<svg width="60" height="60" viewBox="0 0 60 60" fill="none" xmlns="http://www.w3.org/2000/svg">
<circle cx="30" cy="30" r="30" fill="#20C968" fill-opacity="0.16"/>
<path d="M36.5442 38.9241H23.4555C22.1412 38.9241 21.0757 37.8587 21.0757 36.5443V23.4556C21.0757 22.1413 22.1412 21.0758 23.4555 21.0758H36.5443C37.8586 21.0758 38.9241 22.1413 38.9241 23.4556V36.5444C38.924 37.8587 37.8586 38.9241 36.5442 38.9241Z" fill="#4BD7C8"/>
<path d="M36.5443 37.1394H23.4555C23.127 37.1394 22.8606 36.873 22.8606 36.5444V23.4556C22.8606 23.1271 23.127 22.8607 23.4555 22.8607H36.5443C36.8729 22.8607 37.1393 23.1271 37.1393 23.4556V36.5444C37.1393 36.873 36.8729 37.1394 36.5443 37.1394Z" fill="#99E9DF"/>
<path d="M13.9364 26.4301C14.5935 26.4301 15.1261 25.8974 15.1261 25.2404C15.1261 24.5833 14.5935 24.0507 13.9364 24.0507C13.2794 24.0507 12.7467 24.5833 12.7467 25.2404C12.7467 25.8974 13.2794 26.4301 13.9364 26.4301Z" fill="#4BD7C8"/>
<path d="M46.0637 35.9494C46.7208 35.9494 47.2535 35.4167 47.2535 34.7597C47.2535 34.1026 46.7208 33.5699 46.0637 33.5699C45.4067 33.5699 44.874 34.1026 44.874 34.7597C44.874 35.4167 45.4067 35.9494 46.0637 35.9494Z" fill="#4BD7C8"/>
<path d="M12.7465 41.3034C13.4036 41.3034 13.9363 40.7708 13.9363 40.1137C13.9363 39.4567 13.4036 38.924 12.7465 38.924C12.0895 38.924 11.5568 39.4567 11.5568 40.1137C11.5568 40.7708 12.0895 41.3034 12.7465 41.3034Z" fill="#99E9DF"/>
<path d="M47.2535 21.076C47.9106 21.076 48.4432 20.5433 48.4432 19.8862C48.4432 19.2292 47.9106 18.6965 47.2535 18.6965C46.5964 18.6965 46.0638 19.2292 46.0638 19.8862C46.0638 20.5433 46.5964 21.076 47.2535 21.076Z" fill="#99E9DF"/>
<path d="M34.7595 15.1262C35.4166 15.1262 35.9493 14.5936 35.9493 13.9365C35.9493 13.2794 35.4166 12.7468 34.7595 12.7468C34.1025 12.7468 33.5698 13.2794 33.5698 13.9365C33.5698 14.5936 34.1025 15.1262 34.7595 15.1262Z" fill="#4BD7C8"/>
<path d="M25.2403 47.2535C25.8973 47.2535 26.43 46.7209 26.43 46.0638C26.43 45.4067 25.8973 44.8741 25.2403 44.8741C24.5832 44.8741 24.0505 45.4067 24.0505 46.0638C24.0505 46.7209 24.5832 47.2535 25.2403 47.2535Z" fill="#4BD7C8"/>
<path d="M19.8862 13.9363C20.5433 13.9363 21.0759 13.4036 21.0759 12.7466C21.0759 12.0895 20.5433 11.5568 19.8862 11.5568C19.2291 11.5568 18.6965 12.0895 18.6965 12.7466C18.6965 13.4036 19.2291 13.9363 19.8862 13.9363Z" fill="#99E9DF"/>
<path d="M40.1137 48.4433C40.7707 48.4433 41.3034 47.9106 41.3034 47.2536C41.3034 46.5965 40.7707 46.0638 40.1137 46.0638C39.4566 46.0638 38.924 46.5965 38.924 47.2536C38.924 47.9106 39.4566 48.4433 40.1137 48.4433Z" fill="#99E9DF"/>
<path d="M29.9999 35.0652C30.1696 35.0652 30.3311 35.1376 30.4438 35.2639C30.8325 35.6996 31.4025 35.9494 32.0079 35.9494C33.049 35.9494 33.9235 35.2206 33.9984 34.2904C34.0141 34.0966 34.1239 33.9226 34.2918 33.8244C34.9472 33.4418 35.3545 32.7742 35.3545 32.0823C35.3545 31.583 35.1465 31.0978 34.7682 30.7161C34.5388 30.4843 34.5388 30.1107 34.7682 29.8788C35.1465 29.4971 35.3545 29.012 35.3545 28.5126C35.3545 27.6141 34.6985 26.8222 33.7224 26.5419C33.4186 26.4548 33.2361 26.1444 33.307 25.8363C33.3337 25.7201 33.3465 25.6254 33.3465 25.5379C33.3465 24.7178 32.5959 24.0506 31.6733 24.0506C31.1963 24.0506 30.7396 24.2339 30.4218 24.5534C30.1975 24.7777 29.8024 24.7777 29.5781 24.5534C29.2603 24.2338 28.8037 24.0506 28.3267 24.0506C27.4041 24.0506 26.6534 24.7179 26.6534 25.5379C26.6534 25.6361 26.6645 25.7349 26.6854 25.831C26.7528 26.1378 26.571 26.444 26.2688 26.5308C25.298 26.8106 24.6455 27.6069 24.6455 28.5126C24.6455 28.9458 24.8012 29.3635 25.0958 29.7211C25.2706 29.934 25.277 30.2391 25.1103 30.4587C24.8065 30.8601 24.6455 31.3189 24.6455 31.7848C24.6455 32.5273 25.0475 33.2388 25.7215 33.6882C25.8854 33.7974 25.9847 33.981 25.9865 34.1782C25.9947 35.1549 26.8946 35.9494 27.9921 35.9494C28.5975 35.9494 29.1675 35.6996 29.5562 35.2638C29.6688 35.1375 29.8303 35.0652 29.9999 35.0652Z" fill="#CCF4EF"/>
<path d="M48.4432 29.4434H39.4808V28.1769H41.8989C42.2063 28.1769 42.4555 27.9277 42.4555 27.6203C42.4555 27.3129 42.2063 27.0637 41.8989 27.0637H39.4808V25.7971H41.1596C41.785 25.7971 42.3731 25.5536 42.8152 25.1113L46.4761 21.4504C46.7147 21.5693 46.9791 21.6325 47.2534 21.6325C47.72 21.6325 48.1585 21.4508 48.4884 21.121C48.8183 20.7911 49 20.3525 49 19.886C49 19.4194 48.8183 18.9809 48.4884 18.651C48.1586 18.3211 47.72 18.1394 47.2534 18.1394C46.7869 18.1394 46.3483 18.3211 46.0184 18.6509C45.6885 18.9808 45.5069 19.4194 45.5069 19.8859C45.5069 20.1602 45.5701 20.4247 45.6889 20.6632L42.028 24.3241C41.7961 24.556 41.4876 24.6838 41.1595 24.6838H39.4807V23.4557C39.4807 21.8365 38.1634 20.5193 36.5443 20.5193H35.3161V15.5916C36.007 15.3586 36.506 14.7049 36.506 13.9365C36.506 12.9734 35.7225 12.19 34.7595 12.19C33.7965 12.19 33.013 12.9735 33.013 13.9365C33.013 14.7049 33.512 15.3585 34.2029 15.5916V20.5192H32.9364V18.1011C32.9364 17.7937 32.6872 17.5445 32.3798 17.5445C32.0723 17.5445 31.8231 17.7937 31.8231 18.1011V20.5192H30.5566V11.5567C30.5566 11.2493 30.3074 11.0001 29.9999 11.0001C29.6925 11.0001 29.4433 11.2493 29.4433 11.5567V20.5192H28.1768V18.1011C28.1768 17.7937 27.9276 17.5445 27.6202 17.5445C27.3128 17.5445 27.0636 17.7937 27.0636 18.1011V20.5192H25.7971V18.8405C25.7971 18.215 25.5535 17.627 25.1112 17.1848L21.4491 13.5226C21.7726 12.8694 21.6642 12.055 21.121 11.5117C20.4399 10.8307 19.3319 10.8308 18.651 11.5117C17.97 12.1926 17.97 13.3007 18.651 13.9817C18.9915 14.3221 19.4387 14.4924 19.886 14.4924C20.1523 14.4924 20.4181 14.4306 20.6619 14.3098L24.3241 17.972C24.5561 18.204 24.6838 18.5124 24.6838 18.8405V20.5192H23.4557C23.2074 20.5192 22.9605 20.5504 22.7218 20.6118C22.4241 20.6884 22.2449 20.9918 22.3214 21.2896C22.398 21.5874 22.7016 21.7666 22.9993 21.6899C23.1474 21.6519 23.3008 21.6325 23.4556 21.6325H36.5443C37.5496 21.6325 38.3674 22.4504 38.3674 23.4556V36.5444C38.3674 36.699 38.3481 36.8524 38.3101 37.0003C38.2336 37.2981 38.4129 37.6015 38.7106 37.678C38.7571 37.69 38.8037 37.6957 38.8496 37.6957C39.0976 37.6957 39.3237 37.5288 39.3883 37.2775C39.4496 37.0391 39.4807 36.7924 39.4807 36.5443V35.3162H44.4083C44.6413 36.007 45.295 36.506 46.0634 36.506C47.0265 36.506 47.8099 35.7226 47.8099 34.7595C47.8099 33.7965 47.0264 33.013 46.0634 33.013C45.295 33.013 44.6414 33.5121 44.4083 34.2029H39.4807V32.9363H41.8988C42.2062 32.9363 42.4554 32.6871 42.4554 32.3797C42.4554 32.0723 42.2062 31.8231 41.8988 31.8231H39.4807V30.5567H48.4432C48.7506 30.5567 48.9999 30.3074 48.9999 30C48.9999 29.6926 48.7506 29.4434 48.4432 29.4434ZM46.8056 19.4382C46.9252 19.3186 47.0842 19.2528 47.2534 19.2528C47.4225 19.2528 47.5815 19.3186 47.7011 19.4382C47.8208 19.5579 47.8866 19.7168 47.8866 19.886C47.8866 20.0551 47.8208 20.2141 47.7011 20.3337C47.5815 20.4534 47.4225 20.5192 47.2534 20.5192C47.0842 20.5192 46.9252 20.4534 46.8056 20.3337C46.686 20.2141 46.6201 20.0551 46.6201 19.886C46.6201 19.7168 46.686 19.5578 46.8056 19.4382ZM34.7595 13.3033C35.1087 13.3033 35.3927 13.5874 35.3927 13.9365C35.3927 14.2856 35.1086 14.5697 34.7595 14.5697C34.4104 14.5697 34.1263 14.2856 34.1263 13.9365C34.1263 13.5874 34.4103 13.3033 34.7595 13.3033ZM19.4381 13.1944C19.1911 12.9475 19.1911 12.5458 19.4381 12.2989C19.5616 12.1754 19.7237 12.1138 19.8859 12.1138C20.0481 12.1138 20.2102 12.1755 20.3337 12.2989C20.5806 12.5459 20.5806 12.9476 20.3337 13.1945C20.0868 13.4413 19.6851 13.4414 19.4381 13.1944ZM46.0635 34.1264C46.4127 34.1264 46.6967 34.4105 46.6967 34.7596C46.6967 35.1088 46.4126 35.3928 46.0635 35.3928C45.7144 35.3928 45.4303 35.1087 45.4303 34.7596C45.4302 34.4104 45.7143 34.1264 46.0635 34.1264Z" fill="black"/>
<path d="M39.338 45.6902L35.6759 42.028C35.4439 41.7961 35.3161 41.4876 35.3161 41.1596V39.4808H36.5443C36.7925 39.4808 37.0394 39.4496 37.278 39.3883C37.5757 39.3117 37.7549 39.0082 37.6783 38.7104C37.6018 38.4127 37.2984 38.2335 37.0005 38.3101C36.8525 38.3482 36.699 38.3675 36.5443 38.3675H23.4556C22.4503 38.3675 21.6325 37.5496 21.6325 36.5444V23.4556C21.6325 23.3009 21.6518 23.1474 21.6898 22.9995C21.7665 22.7018 21.5873 22.3983 21.2896 22.3216C20.9918 22.245 20.6883 22.4242 20.6117 22.7219C20.5503 22.9604 20.5192 23.2073 20.5192 23.4556V24.6838H15.5915C15.3585 23.993 14.7048 23.4939 13.9364 23.4939C12.9733 23.4939 12.1899 24.2774 12.1899 25.2404C12.1899 26.2035 12.9734 26.9869 13.9364 26.9869C14.7048 26.9869 15.3584 26.4879 15.5915 25.7971H20.5191V27.0636H18.101C17.7936 27.0636 17.5444 27.3128 17.5444 27.6203C17.5444 27.9277 17.7936 28.1769 18.101 28.1769H20.5191V29.4434H11.5566C11.2492 29.4434 11 29.6926 11 30C11 30.3074 11.2492 30.5566 11.5566 30.5566H20.5191V31.8231H18.101C17.7936 31.8231 17.5444 32.0723 17.5444 32.3797C17.5444 32.6871 17.7936 32.9364 18.101 32.9364H20.5191V34.2029H18.8403C18.2149 34.2029 17.6268 34.4464 17.1846 34.8887L13.5237 38.5496C13.2852 38.4308 13.0207 38.3675 12.7464 38.3675C12.2799 38.3675 11.8413 38.5492 11.5114 38.879C11.1817 39.209 11 39.6476 11 40.114C11 40.5805 11.1817 41.0191 11.5116 41.349C11.8414 41.6789 12.28 41.8606 12.7466 41.8606C13.2131 41.8606 13.6517 41.6789 13.9816 41.349C14.3115 41.0191 14.4932 40.5806 14.4932 40.114C14.4932 39.8397 14.4299 39.5753 14.3111 39.3368L17.972 35.6759C18.2039 35.4439 18.5124 35.3161 18.8405 35.3161H20.5193V36.5443C20.5193 38.1634 21.8366 39.4807 23.4557 39.4807H24.6839V44.4083C23.9931 44.6413 23.494 45.2949 23.494 46.0634C23.494 47.0265 24.2775 47.8099 25.2405 47.8099C26.2035 47.8099 26.987 47.0264 26.987 46.0634C26.987 45.2949 26.488 44.6414 25.7972 44.4083V39.4807H27.0636V41.8988C27.0636 42.2062 27.3128 42.4554 27.6203 42.4554C27.9277 42.4554 28.1769 42.2062 28.1769 41.8988V39.4807H29.4433V48.4433C29.4433 48.7507 29.6925 48.9999 29.9999 48.9999C30.3073 48.9999 30.5566 48.7507 30.5566 48.4433V39.4808H31.823V41.8989C31.823 42.2063 32.0723 42.4556 32.3797 42.4556C32.6871 42.4556 32.9363 42.2063 32.9363 41.8989V39.4808H34.2028V41.1596C34.2028 41.785 34.4464 42.373 34.8886 42.8152L38.5508 46.4774C38.2273 47.1306 38.3357 47.9451 38.879 48.4883C39.2194 48.8289 39.6667 48.999 40.114 48.999C40.5612 48.999 41.0085 48.8289 41.349 48.4883C42.0299 47.8074 42.0299 46.6994 41.349 46.0184C40.8058 45.4751 39.9912 45.3667 39.338 45.6902ZM13.9364 25.8737C13.5872 25.8737 13.3031 25.5896 13.3031 25.2404C13.3031 24.8912 13.5873 24.6072 13.9364 24.6072C14.2855 24.6072 14.5696 24.8913 14.5696 25.2404C14.5697 25.5896 14.2856 25.8737 13.9364 25.8737ZM13.1943 40.5618C13.0746 40.6814 12.9157 40.7473 12.7465 40.7473C12.5774 40.7473 12.4184 40.6814 12.2987 40.5618C12.1791 40.4422 12.1133 40.2832 12.1133 40.114C12.1133 39.9449 12.1791 39.7859 12.2987 39.6663C12.4184 39.5466 12.5774 39.4808 12.7465 39.4808C12.9157 39.4808 13.0746 39.5466 13.1943 39.6663C13.3139 39.7859 13.3797 39.9449 13.3797 40.114C13.3797 40.2832 13.3139 40.4422 13.1943 40.5618ZM25.2404 46.6968C24.8912 46.6968 24.6071 46.4127 24.6071 46.0635C24.6071 45.7144 24.8912 45.4303 25.2404 45.4303C25.5895 45.4303 25.8736 45.7144 25.8736 46.0635C25.8736 46.4127 25.5896 46.6968 25.2404 46.6968ZM40.5618 47.7012C40.3149 47.9481 39.9131 47.948 39.6662 47.7012C39.4193 47.4543 39.4193 47.0525 39.6662 46.8057C39.7897 46.6822 39.9519 46.6205 40.114 46.6205C40.2762 46.6205 40.4384 46.6822 40.5618 46.8057C40.8087 47.0525 40.8087 47.4543 40.5618 47.7012Z" fill="black"/>
<path d="M25.4275 34.1633C25.4275 34.1638 25.4275 34.1642 25.4275 34.1646C25.4275 35.4558 26.578 36.5062 27.9921 36.5062C28.8048 36.5062 29.5299 36.1589 30 35.6187C30.4702 36.1589 31.1953 36.5062 32.0079 36.5062C33.3689 36.5062 34.4851 35.5332 34.5671 34.3091C35.3937 33.8295 35.9111 32.9895 35.9111 32.0824C35.9111 31.4151 35.6266 30.7787 35.137 30.2976C35.6265 29.8165 35.9111 29.1799 35.9111 28.5128C35.9111 27.3223 35.0404 26.3139 33.8483 25.9862C33.8836 25.8407 33.9032 25.691 33.9032 25.538C33.9032 24.4109 32.9028 23.494 31.6733 23.494C31.0073 23.494 30.409 23.7633 30 24.189C29.5911 23.7633 28.9928 23.494 28.3268 23.494C27.0972 23.494 26.0969 24.4109 26.0969 25.538C26.0969 25.691 26.1165 25.8407 26.1517 25.9862C24.9597 26.3138 24.089 27.3222 24.089 28.5128C24.089 29.0946 24.2949 29.6435 24.6752 30.0968C24.3033 30.5783 24.089 31.1627 24.089 31.785C24.0888 32.7314 24.5946 33.6151 25.4275 34.1633ZM26.9742 26.9873C26.9792 26.9874 26.9842 26.9881 26.9891 26.9881C27.1161 26.9881 27.2439 26.9448 27.3484 26.8563C27.5618 26.6756 27.6046 26.3691 27.4614 26.1385C27.4572 26.1317 27.4533 26.1247 27.4489 26.1181C27.4466 26.1148 27.4438 26.1116 27.4414 26.1082C27.4328 26.0961 27.424 26.0843 27.4144 26.0728C27.4141 26.0725 27.4139 26.0721 27.4136 26.0718C27.3208 25.962 27.2099 25.7803 27.2099 25.5379C27.2099 25.0247 27.7109 24.6072 28.3266 24.6072C28.9422 24.6072 29.4432 25.0247 29.4432 25.5379C29.4432 25.8453 29.6924 26.0946 29.9998 26.0946C30.3072 26.0946 30.5565 25.8453 30.5565 25.5379C30.5565 25.0247 31.0574 24.6072 31.6731 24.6072C32.2887 24.6072 32.7897 25.0247 32.7897 25.5379C32.7897 25.6751 32.7538 25.7921 32.7062 25.8882C32.3896 25.9182 32.0834 25.9947 31.7926 26.1173C31.5093 26.2367 31.3766 26.5632 31.496 26.8465C31.6154 27.1297 31.9419 27.2626 32.2252 27.1431C32.4658 27.0417 32.7247 26.9895 32.9947 26.9874C33 26.9876 33.0053 26.9881 33.0106 26.9881C33.0156 26.9881 33.0205 26.9874 33.0255 26.9873C34.0039 26.9937 34.7976 27.6754 34.7976 28.5126C34.7976 29.0389 34.4774 29.5221 33.941 29.8052C33.7585 29.9015 33.6442 30.091 33.6442 30.2975C33.6442 30.504 33.7585 30.6934 33.941 30.7898C34.4774 31.0729 34.7976 31.5561 34.7976 32.0824C34.7976 32.4748 34.6152 32.849 34.3072 33.1289C34.0146 32.5871 33.4974 32.1557 32.8439 31.9504C32.5507 31.8583 32.2382 32.0214 32.146 32.3146C32.0538 32.6079 32.2169 32.9204 32.5102 33.0125C33.0777 33.1908 33.459 33.6539 33.459 34.1647C33.459 34.842 32.8079 35.393 32.0077 35.393C31.2074 35.393 30.5564 34.842 30.5564 34.1647V30.595C30.5564 29.9178 31.2074 29.3669 32.0077 29.3669C32.3151 29.3669 32.5643 29.1176 32.5643 28.8102C32.5643 28.5028 32.3151 28.2536 32.0077 28.2536C31.4693 28.2536 30.9693 28.4062 30.5564 28.666V27.955C30.5564 27.6476 30.3072 27.3984 29.9997 27.3984C29.6923 27.3984 29.4431 27.6476 29.4431 27.955V31.0452C29.2558 30.9277 29.0503 30.8304 28.8281 30.7605C28.5347 30.6684 28.2224 30.8315 28.1303 31.1247C28.0381 31.418 28.2011 31.7304 28.4944 31.8226C29.0618 32.001 29.4431 32.464 29.4431 32.9748V34.1646C29.4431 34.8419 28.7921 35.3929 27.9918 35.3929C27.1915 35.3929 26.5405 34.8419 26.5405 34.1646C26.5405 33.8744 26.6636 33.5922 26.887 33.3701C27.105 33.1534 27.106 32.801 26.8893 32.5829C26.6726 32.3648 26.3202 32.3638 26.1022 32.5805C25.9688 32.7132 25.854 32.858 25.7585 33.012C25.407 32.6795 25.2018 32.2421 25.2018 31.7848C25.2018 30.9601 25.8491 30.2356 26.7758 30.023C27.0755 29.9542 27.2626 29.6556 27.1939 29.356C27.1252 29.0563 26.8265 28.8692 26.5269 28.9379C26.1538 29.0235 25.8103 29.1663 25.5057 29.3539C25.3083 29.1058 25.2019 28.8153 25.2019 28.5126C25.2021 27.6754 25.9958 26.9937 26.9742 26.9873Z" fill="black"/>
</svg>
