<svg width="347" height="355" viewBox="0 0 347 355" fill="none" xmlns="http://www.w3.org/2000/svg">
<g filter="url(#filter0_d_1_3564)">
<rect x="40" y="33" width="267" height="275" rx="20" fill="white"/>
<rect width="267" height="50" transform="translate(40 33)" fill="#6930C3"/>
<path d="M139.98 63.14C138.991 63.14 138.095 62.9253 137.292 62.496C136.499 62.0573 135.874 61.4553 135.416 60.69C134.968 59.9247 134.744 59.0613 134.744 58.1C134.744 57.1387 134.973 56.2753 135.43 55.51C135.888 54.7447 136.513 54.1473 137.306 53.718C138.109 53.2793 139.005 53.06 139.994 53.06C140.797 53.06 141.53 53.2 142.192 53.48C142.855 53.76 143.415 54.166 143.872 54.698L142.696 55.804C141.987 55.0387 141.114 54.656 140.078 54.656C139.406 54.656 138.804 54.8053 138.272 55.104C137.74 55.3933 137.325 55.7993 137.026 56.322C136.728 56.8447 136.578 57.4373 136.578 58.1C136.578 58.7627 136.728 59.3553 137.026 59.878C137.325 60.4007 137.74 60.8113 138.272 61.11C138.804 61.3993 139.406 61.544 140.078 61.544C141.114 61.544 141.987 61.1567 142.696 60.382L143.872 61.502C143.415 62.034 142.85 62.44 142.178 62.72C141.516 63 140.783 63.14 139.98 63.14ZM151.487 60.732H146.587L145.621 63H143.745L148.155 53.2H149.947L154.371 63H152.467L151.487 60.732ZM150.885 59.304L149.037 55.02L147.203 59.304H150.885ZM155.338 53.2H157.158V61.46H162.282V63H155.338V53.2ZM170.788 61.474V63H163.438V53.2H170.592V54.726H165.258V57.274H169.99V58.772H165.258V61.474H170.788ZM181.245 53.2V63H179.747L174.343 56.364V63H172.537V53.2H174.035L179.439 59.836V53.2H181.245ZM183.591 53.2H187.875C188.921 53.2 189.849 53.4053 190.661 53.816C191.473 54.2173 192.103 54.7913 192.551 55.538C192.999 56.2753 193.223 57.1293 193.223 58.1C193.223 59.0707 192.999 59.9293 192.551 60.676C192.103 61.4133 191.473 61.9873 190.661 62.398C189.849 62.7993 188.921 63 187.875 63H183.591V53.2ZM187.791 61.46C188.51 61.46 189.14 61.3247 189.681 61.054C190.232 60.774 190.652 60.382 190.941 59.878C191.24 59.3647 191.389 58.772 191.389 58.1C191.389 57.428 191.24 56.84 190.941 56.336C190.652 55.8227 190.232 55.4307 189.681 55.16C189.14 54.88 188.51 54.74 187.791 54.74H185.411V61.46H187.791ZM201.097 60.732H196.197L195.231 63H193.355L197.765 53.2H199.557L203.981 63H202.077L201.097 60.732ZM200.495 59.304L198.647 55.02L196.813 59.304H200.495ZM211.359 63L209.357 60.13C209.273 60.1393 209.147 60.144 208.979 60.144H206.767V63H204.947V53.2H208.979C209.829 53.2 210.566 53.34 211.191 53.62C211.826 53.9 212.311 54.3013 212.647 54.824C212.983 55.3467 213.151 55.9673 213.151 56.686C213.151 57.4233 212.969 58.058 212.605 58.59C212.251 59.122 211.737 59.5187 211.065 59.78L213.319 63H211.359ZM211.317 56.686C211.317 56.0607 211.112 55.58 210.701 55.244C210.291 54.908 209.689 54.74 208.895 54.74H206.767V58.646H208.895C209.689 58.646 210.291 58.478 210.701 58.142C211.112 57.7967 211.317 57.3113 211.317 56.686Z" fill="white"/>
<rect x="122.25" y="115.25" width="30.5" height="30.5" fill="#EBEBEB"/>
<rect x="122.25" y="115.25" width="30.5" height="30.5" stroke="#C4C4C4" stroke-width="0.5"/>
<rect x="122.25" y="115.25" width="30.5" height="30.5" stroke="#C4C4C4" stroke-width="0.5"/>
<rect x="60.25" y="146.25" width="30.5" height="30.5" fill="#EBEBEB"/>
<rect x="60.25" y="146.25" width="30.5" height="30.5" stroke="#C4C4C4" stroke-width="0.5"/>
<rect x="60.25" y="146.25" width="30.5" height="30.5" stroke="#C4C4C4" stroke-width="0.5"/>
<rect x="60.25" y="177.25" width="30.5" height="30.5" fill="#EBEBEB"/>
<rect x="60.25" y="177.25" width="30.5" height="30.5" stroke="#C4C4C4" stroke-width="0.5"/>
<rect x="60.25" y="177.25" width="30.5" height="30.5" stroke="#C4C4C4" stroke-width="0.5"/>
<rect x="60.25" y="208.25" width="30.5" height="30.5" fill="#EBEBEB"/>
<rect x="60.25" y="208.25" width="30.5" height="30.5" stroke="#C4C4C4" stroke-width="0.5"/>
<rect x="60.25" y="208.25" width="30.5" height="30.5" stroke="#C4C4C4" stroke-width="0.5"/>
<rect x="153.25" y="115.25" width="30.5" height="30.5" fill="#EBEBEB"/>
<rect x="153.25" y="115.25" width="30.5" height="30.5" stroke="#C4C4C4" stroke-width="0.5"/>
<rect x="153.25" y="115.25" width="30.5" height="30.5" stroke="#C4C4C4" stroke-width="0.5"/>
<rect x="91.25" y="146.25" width="30.5" height="30.5" fill="#EBEBEB"/>
<rect x="91.25" y="146.25" width="30.5" height="30.5" stroke="#C4C4C4" stroke-width="0.5"/>
<rect x="91.25" y="146.25" width="30.5" height="30.5" stroke="#C4C4C4" stroke-width="0.5"/>
<rect x="91.25" y="177.25" width="30.5" height="30.5" fill="#EBEBEB"/>
<rect x="91.25" y="177.25" width="30.5" height="30.5" stroke="#C4C4C4" stroke-width="0.5"/>
<rect x="91.25" y="177.25" width="30.5" height="30.5" stroke="#C4C4C4" stroke-width="0.5"/>
<rect x="91.25" y="208.25" width="30.5" height="30.5" fill="#EBEBEB"/>
<rect x="91.25" y="208.25" width="30.5" height="30.5" stroke="#C4C4C4" stroke-width="0.5"/>
<rect x="91.25" y="208.25" width="30.5" height="30.5" stroke="#C4C4C4" stroke-width="0.5"/>
<rect x="184.25" y="115.25" width="30.5" height="30.5" fill="#EBEBEB"/>
<rect x="184.25" y="115.25" width="30.5" height="30.5" stroke="#C4C4C4" stroke-width="0.5"/>
<rect x="184.25" y="115.25" width="30.5" height="30.5" stroke="#C4C4C4" stroke-width="0.5"/>
<rect x="122.25" y="146.25" width="30.5" height="30.5" fill="#EBEBEB"/>
<rect x="122.25" y="146.25" width="30.5" height="30.5" stroke="#C4C4C4" stroke-width="0.5"/>
<rect x="122.25" y="146.25" width="30.5" height="30.5" stroke="#C4C4C4" stroke-width="0.5"/>
<rect x="122.25" y="177.25" width="30.5" height="30.5" fill="#EBEBEB"/>
<rect x="122.25" y="177.25" width="30.5" height="30.5" stroke="#C4C4C4" stroke-width="0.5"/>
<rect x="122.25" y="177.25" width="30.5" height="30.5" stroke="#C4C4C4" stroke-width="0.5"/>
<rect x="122.25" y="208.25" width="30.5" height="30.5" fill="#EBEBEB"/>
<rect x="122.25" y="208.25" width="30.5" height="30.5" stroke="#C4C4C4" stroke-width="0.5"/>
<rect x="122.25" y="208.25" width="30.5" height="30.5" stroke="#C4C4C4" stroke-width="0.5"/>
<rect x="215.25" y="115.25" width="30.5" height="30.5" fill="#EBEBEB"/>
<rect x="215.25" y="115.25" width="30.5" height="30.5" stroke="#C4C4C4" stroke-width="0.5"/>
<rect x="215.25" y="115.25" width="30.5" height="30.5" stroke="#C4C4C4" stroke-width="0.5"/>
<rect x="153.25" y="146.25" width="30.5" height="30.5" fill="#EBEBEB"/>
<rect x="153.25" y="146.25" width="30.5" height="30.5" stroke="#C4C4C4" stroke-width="0.5"/>
<rect x="153.25" y="146.25" width="30.5" height="30.5" stroke="#C4C4C4" stroke-width="0.5"/>
<rect x="153.25" y="177.25" width="30.5" height="30.5" fill="#EBEBEB"/>
<rect x="153.25" y="177.25" width="30.5" height="30.5" stroke="#C4C4C4" stroke-width="0.5"/>
<rect x="153.25" y="177.25" width="30.5" height="30.5" stroke="#C4C4C4" stroke-width="0.5"/>
<rect x="246.25" y="115.25" width="30.5" height="30.5" fill="#EBEBEB"/>
<rect x="246.25" y="115.25" width="30.5" height="30.5" stroke="#C4C4C4" stroke-width="0.5"/>
<rect x="246.25" y="115.25" width="30.5" height="30.5" stroke="#C4C4C4" stroke-width="0.5"/>
<rect x="184.25" y="146.25" width="30.5" height="30.5" fill="#EBEBEB"/>
<rect x="184.25" y="146.25" width="30.5" height="30.5" stroke="#C4C4C4" stroke-width="0.5"/>
<rect x="184.25" y="146.25" width="30.5" height="30.5" stroke="#C4C4C4" stroke-width="0.5"/>
<rect x="184.25" y="177.25" width="30.5" height="30.5" fill="#EBEBEB"/>
<rect x="184.25" y="177.25" width="30.5" height="30.5" stroke="#C4C4C4" stroke-width="0.5"/>
<rect x="184.25" y="177.25" width="30.5" height="30.5" stroke="#C4C4C4" stroke-width="0.5"/>
<rect x="215.25" y="146.25" width="30.5" height="30.5" fill="#EBEBEB"/>
<rect x="215.25" y="146.25" width="30.5" height="30.5" stroke="#C4C4C4" stroke-width="0.5"/>
<rect x="215.25" y="146.25" width="30.5" height="30.5" stroke="#C4C4C4" stroke-width="0.5"/>
<rect x="215.25" y="177.25" width="30.5" height="30.5" fill="#EBEBEB"/>
<rect x="215.25" y="177.25" width="30.5" height="30.5" stroke="#C4C4C4" stroke-width="0.5"/>
<rect x="215.25" y="177.25" width="30.5" height="30.5" stroke="#C4C4C4" stroke-width="0.5"/>
<rect x="246.25" y="146.25" width="30.5" height="30.5" fill="#EBEBEB"/>
<rect x="246.25" y="146.25" width="30.5" height="30.5" stroke="#C4C4C4" stroke-width="0.5"/>
<rect x="246.25" y="146.25" width="30.5" height="30.5" stroke="#C4C4C4" stroke-width="0.5"/>
<rect x="246.25" y="177.25" width="30.5" height="30.5" fill="#EBEBEB"/>
<rect x="246.25" y="177.25" width="30.5" height="30.5" stroke="#C4C4C4" stroke-width="0.5"/>
<rect x="246.25" y="177.25" width="30.5" height="30.5" stroke="#C4C4C4" stroke-width="0.5"/>
</g>
<defs>
<filter id="filter0_d_1_3564" x="0" y="0" width="347" height="355" filterUnits="userSpaceOnUse" color-interpolation-filters="sRGB">
<feFlood flood-opacity="0" result="BackgroundImageFix"/>
<feColorMatrix in="SourceAlpha" type="matrix" values="0 0 0 0 0 0 0 0 0 0 0 0 0 0 0 0 0 0 127 0" result="hardAlpha"/>
<feOffset dy="7"/>
<feGaussianBlur stdDeviation="20"/>
<feComposite in2="hardAlpha" operator="out"/>
<feColorMatrix type="matrix" values="0 0 0 0 0 0 0 0 0 0 0 0 0 0 0 0 0 0 0.1 0"/>
<feBlend mode="normal" in2="BackgroundImageFix" result="effect1_dropShadow_1_3564"/>
<feBlend mode="normal" in="SourceGraphic" in2="effect1_dropShadow_1_3564" result="shape"/>
</filter>
</defs>
</svg>
