<svg width="185" height="140" viewBox="0 0 185 140" fill="none" xmlns="http://www.w3.org/2000/svg">
<circle cx="3.58589" cy="3.37239" r="2.97016" fill="#D5D5D5" fill-opacity="0.5"/>
<circle cx="3.58589" cy="18.2233" r="2.97016" fill="#D5D5D5" fill-opacity="0.5"/>
<circle cx="3.58589" cy="33.0742" r="2.97016" fill="#D5D5D5" fill-opacity="0.5"/>
<circle cx="3.58589" cy="47.9248" r="2.97016" fill="#D5D5D5" fill-opacity="0.5"/>
<circle cx="3.58589" cy="62.7756" r="2.97016" fill="#D5D5D5" fill-opacity="0.5"/>
<circle cx="3.58589" cy="77.6265" r="2.97016" fill="#D5D5D5" fill-opacity="0.5"/>
<circle cx="3.58589" cy="92.4774" r="2.97016" fill="#D5D5D5" fill-opacity="0.5"/>
<circle cx="3.58589" cy="107.328" r="2.97016" fill="#D5D5D5" fill-opacity="0.5"/>
<circle cx="3.58589" cy="122.179" r="2.97016" fill="#D5D5D5" fill-opacity="0.5"/>
<circle cx="3.58589" cy="137.03" r="2.97016" fill="#D5D5D5" fill-opacity="0.5"/>
<circle cx="18.4368" cy="3.37239" r="2.97016" fill="#D5D5D5" fill-opacity="0.5"/>
<circle cx="18.4368" cy="18.2233" r="2.97016" fill="#D5D5D5" fill-opacity="0.5"/>
<circle cx="18.4368" cy="33.0742" r="2.97016" fill="#D5D5D5" fill-opacity="0.5"/>
<circle cx="18.4368" cy="47.9248" r="2.97016" fill="#D5D5D5" fill-opacity="0.5"/>
<circle cx="18.4368" cy="62.7756" r="2.97016" fill="#D5D5D5" fill-opacity="0.5"/>
<circle cx="18.4368" cy="77.6265" r="2.97016" fill="#D5D5D5" fill-opacity="0.5"/>
<circle cx="18.4368" cy="92.4774" r="2.97016" fill="#D5D5D5" fill-opacity="0.5"/>
<circle cx="18.4368" cy="107.328" r="2.97016" fill="#D5D5D5" fill-opacity="0.5"/>
<circle cx="18.4368" cy="122.179" r="2.97016" fill="#D5D5D5" fill-opacity="0.5"/>
<circle cx="18.4368" cy="137.03" r="2.97016" fill="#D5D5D5" fill-opacity="0.5"/>
<circle cx="33.2877" cy="3.37239" r="2.97016" fill="#D5D5D5" fill-opacity="0.5"/>
<circle cx="33.2877" cy="18.2233" r="2.97016" fill="#D5D5D5" fill-opacity="0.5"/>
<circle cx="33.2877" cy="33.0742" r="2.97016" fill="#D5D5D5" fill-opacity="0.5"/>
<circle cx="33.2877" cy="47.9248" r="2.97016" fill="#D5D5D5" fill-opacity="0.5"/>
<circle cx="33.2877" cy="62.7756" r="2.97016" fill="#D5D5D5" fill-opacity="0.5"/>
<circle cx="33.2877" cy="77.6265" r="2.97016" fill="#D5D5D5" fill-opacity="0.5"/>
<circle cx="71.8999" cy="68.716" r="2.97016" fill="#D5D5D5" fill-opacity="0.5"/>
<circle cx="33.2877" cy="107.328" r="2.97016" fill="#D5D5D5" fill-opacity="0.5"/>
<circle cx="33.2877" cy="122.179" r="2.97016" fill="#D5D5D5" fill-opacity="0.5"/>
<circle cx="33.2877" cy="137.03" r="2.97016" fill="#D5D5D5" fill-opacity="0.5"/>
<circle cx="48.1385" cy="3.37239" r="2.97016" fill="#D5D5D5" fill-opacity="0.5"/>
<circle cx="48.1385" cy="18.2233" r="2.97016" fill="#D5D5D5" fill-opacity="0.5"/>
<circle cx="48.1385" cy="33.0742" r="2.97016" fill="#D5D5D5" fill-opacity="0.5"/>
<circle cx="48.1385" cy="47.9248" r="2.97016" fill="#D5D5D5" fill-opacity="0.5"/>
<circle cx="48.1385" cy="62.7756" r="2.97016" fill="#D5D5D5" fill-opacity="0.5"/>
<circle cx="48.1385" cy="77.6265" r="2.97016" fill="#D5D5D5" fill-opacity="0.5"/>
<circle cx="48.1385" cy="92.4774" r="2.97016" fill="#D5D5D5" fill-opacity="0.5"/>
<circle cx="48.1385" cy="107.328" r="2.97016" fill="#D5D5D5" fill-opacity="0.5"/>
<circle cx="48.1385" cy="122.179" r="2.97016" fill="#D5D5D5" fill-opacity="0.5"/>
<circle cx="48.1385" cy="137.03" r="2.97016" fill="#D5D5D5" fill-opacity="0.5"/>
<circle cx="62.9894" cy="3.37239" r="2.97016" fill="#D5D5D5" fill-opacity="0.5"/>
<circle cx="62.9894" cy="18.2233" r="2.97016" fill="#D5D5D5" fill-opacity="0.5"/>
<circle cx="62.9894" cy="33.0742" r="2.97016" fill="#D5D5D5" fill-opacity="0.5"/>
<circle cx="62.9894" cy="47.9248" r="2.97016" fill="#D5D5D5" fill-opacity="0.5"/>
<circle cx="62.9894" cy="62.7756" r="2.97016" fill="#D5D5D5" fill-opacity="0.5"/>
<circle cx="62.9894" cy="77.6265" r="2.97016" fill="#D5D5D5" fill-opacity="0.5"/>
<circle cx="62.9894" cy="92.4774" r="2.97016" fill="#D5D5D5" fill-opacity="0.5"/>
<circle cx="62.9894" cy="107.328" r="2.97016" fill="#D5D5D5" fill-opacity="0.5"/>
<circle cx="62.9894" cy="122.179" r="2.97016" fill="#D5D5D5" fill-opacity="0.5"/>
<circle cx="62.9894" cy="137.03" r="2.97016" fill="#D5D5D5" fill-opacity="0.5"/>
<circle cx="77.8397" cy="3.37239" r="2.97016" fill="#D5D5D5" fill-opacity="0.5"/>
<circle cx="77.8397" cy="18.2233" r="2.97016" fill="#D5D5D5" fill-opacity="0.5"/>
<circle cx="77.8397" cy="33.0742" r="2.97016" fill="#D5D5D5" fill-opacity="0.5"/>
<circle cx="77.8397" cy="47.9248" r="2.97016" fill="#D5D5D5" fill-opacity="0.5"/>
<circle cx="77.8397" cy="62.7756" r="2.97016" fill="#D5D5D5" fill-opacity="0.5"/>
<circle cx="77.8397" cy="77.6265" r="2.97016" fill="#D5D5D5" fill-opacity="0.5"/>
<circle cx="77.8397" cy="92.4774" r="2.97016" fill="#D5D5D5" fill-opacity="0.5"/>
<circle cx="77.8397" cy="107.328" r="2.97016" fill="#D5D5D5" fill-opacity="0.5"/>
<circle cx="77.8397" cy="122.179" r="2.97016" fill="#D5D5D5" fill-opacity="0.5"/>
<circle cx="77.8397" cy="137.03" r="2.97016" fill="#D5D5D5" fill-opacity="0.5"/>
<circle cx="92.6906" cy="3.37239" r="2.97016" fill="#D5D5D5" fill-opacity="0.5"/>
<circle cx="92.6906" cy="18.2233" r="2.97016" fill="#D5D5D5" fill-opacity="0.5"/>
<circle cx="92.6906" cy="33.0742" r="2.97016" fill="#D5D5D5" fill-opacity="0.5"/>
<circle cx="92.6906" cy="47.9248" r="2.97016" fill="#D5D5D5" fill-opacity="0.5"/>
<circle cx="92.6906" cy="62.7756" r="2.97016" fill="#D5D5D5" fill-opacity="0.5"/>
<circle cx="92.6906" cy="77.6265" r="2.97016" fill="#D5D5D5" fill-opacity="0.5"/>
<circle cx="92.6906" cy="92.4774" r="2.97016" fill="#D5D5D5" fill-opacity="0.5"/>
<circle cx="92.6906" cy="107.328" r="2.97016" fill="#D5D5D5" fill-opacity="0.5"/>
<circle cx="92.6906" cy="122.179" r="2.97016" fill="#D5D5D5" fill-opacity="0.5"/>
<circle cx="92.6906" cy="137.03" r="2.97016" fill="#D5D5D5" fill-opacity="0.5"/>
<circle cx="107.542" cy="3.37239" r="2.97016" fill="#D5D5D5" fill-opacity="0.5"/>
<circle cx="107.542" cy="18.2233" r="2.97016" fill="#D5D5D5" fill-opacity="0.5"/>
<circle cx="107.542" cy="33.0742" r="2.97016" fill="#D5D5D5" fill-opacity="0.5"/>
<circle cx="107.542" cy="47.9248" r="2.97016" fill="#D5D5D5" fill-opacity="0.5"/>
<circle cx="107.542" cy="62.7756" r="2.97016" fill="#D5D5D5" fill-opacity="0.5"/>
<circle cx="107.542" cy="77.6265" r="2.97016" fill="#D5D5D5" fill-opacity="0.5"/>
<circle cx="107.542" cy="92.4774" r="2.97016" fill="#D5D5D5" fill-opacity="0.5"/>
<circle cx="107.542" cy="107.328" r="2.97016" fill="#D5D5D5" fill-opacity="0.5"/>
<circle cx="107.542" cy="122.179" r="2.97016" fill="#D5D5D5" fill-opacity="0.5"/>
<circle cx="107.542" cy="137.03" r="2.97016" fill="#D5D5D5" fill-opacity="0.5"/>
<circle cx="122.392" cy="3.37239" r="2.97016" fill="#D5D5D5" fill-opacity="0.5"/>
<circle cx="122.392" cy="18.2233" r="2.97016" fill="#D5D5D5" fill-opacity="0.5"/>
<circle cx="122.392" cy="33.0742" r="2.97016" fill="#D5D5D5" fill-opacity="0.5"/>
<circle cx="122.392" cy="47.9248" r="2.97016" fill="#D5D5D5" fill-opacity="0.5"/>
<circle cx="122.392" cy="62.7756" r="2.97016" fill="#D5D5D5" fill-opacity="0.5"/>
<circle cx="122.392" cy="77.6265" r="2.97016" fill="#D5D5D5" fill-opacity="0.5"/>
<circle cx="122.392" cy="92.4774" r="2.97016" fill="#D5D5D5" fill-opacity="0.5"/>
<circle cx="122.392" cy="107.328" r="2.97016" fill="#D5D5D5" fill-opacity="0.5"/>
<circle cx="122.392" cy="122.179" r="2.97016" fill="#D5D5D5" fill-opacity="0.5"/>
<circle cx="122.392" cy="137.03" r="2.97016" fill="#D5D5D5" fill-opacity="0.5"/>
<circle cx="137.243" cy="3.37239" r="2.97016" fill="#D5D5D5" fill-opacity="0.5"/>
<circle cx="137.243" cy="18.2233" r="2.97016" fill="#D5D5D5" fill-opacity="0.5"/>
<circle cx="137.243" cy="33.0742" r="2.97016" fill="#D5D5D5" fill-opacity="0.5"/>
<circle cx="137.243" cy="47.9248" r="2.97016" fill="#D5D5D5" fill-opacity="0.5"/>
<circle cx="137.243" cy="62.7756" r="2.97016" fill="#D5D5D5" fill-opacity="0.5"/>
<circle cx="137.243" cy="77.6265" r="2.97016" fill="#D5D5D5" fill-opacity="0.5"/>
<circle cx="137.243" cy="92.4774" r="2.97016" fill="#D5D5D5" fill-opacity="0.5"/>
<circle cx="137.243" cy="107.328" r="2.97016" fill="#D5D5D5" fill-opacity="0.5"/>
<circle cx="137.243" cy="122.179" r="2.97016" fill="#D5D5D5" fill-opacity="0.5"/>
<circle cx="137.243" cy="137.03" r="2.97016" fill="#D5D5D5" fill-opacity="0.5"/>
<circle cx="152.094" cy="3.37239" r="2.97016" fill="#D5D5D5" fill-opacity="0.5"/>
<circle cx="152.094" cy="18.2233" r="2.97016" fill="#D5D5D5" fill-opacity="0.5"/>
<circle cx="152.094" cy="33.0742" r="2.97016" fill="#D5D5D5" fill-opacity="0.5"/>
<circle cx="152.094" cy="47.9248" r="2.97016" fill="#D5D5D5" fill-opacity="0.5"/>
<circle cx="152.094" cy="62.7756" r="2.97016" fill="#D5D5D5" fill-opacity="0.5"/>
<circle cx="152.094" cy="77.6265" r="2.97016" fill="#D5D5D5" fill-opacity="0.5"/>
<circle cx="152.094" cy="92.4774" r="2.97016" fill="#D5D5D5" fill-opacity="0.5"/>
<circle cx="152.094" cy="107.328" r="2.97016" fill="#D5D5D5" fill-opacity="0.5"/>
<circle cx="152.094" cy="122.179" r="2.97016" fill="#D5D5D5" fill-opacity="0.5"/>
<circle cx="152.094" cy="137.03" r="2.97016" fill="#D5D5D5" fill-opacity="0.5"/>
<circle cx="166.945" cy="3.37239" r="2.97016" fill="#D5D5D5" fill-opacity="0.5"/>
<circle cx="166.945" cy="18.2233" r="2.97016" fill="#D5D5D5" fill-opacity="0.5"/>
<circle cx="166.945" cy="33.0742" r="2.97016" fill="#D5D5D5" fill-opacity="0.5"/>
<circle cx="166.945" cy="47.9248" r="2.97016" fill="#D5D5D5" fill-opacity="0.5"/>
<circle cx="166.945" cy="62.7756" r="2.97016" fill="#D5D5D5" fill-opacity="0.5"/>
<circle cx="166.945" cy="77.6265" r="2.97016" fill="#D5D5D5" fill-opacity="0.5"/>
<circle cx="166.945" cy="92.4774" r="2.97016" fill="#D5D5D5" fill-opacity="0.5"/>
<circle cx="166.945" cy="107.328" r="2.97016" fill="#D5D5D5" fill-opacity="0.5"/>
<circle cx="166.945" cy="122.179" r="2.97016" fill="#D5D5D5" fill-opacity="0.5"/>
<circle cx="166.945" cy="137.03" r="2.97016" fill="#D5D5D5" fill-opacity="0.5"/>
<circle cx="181.796" cy="3.37239" r="2.97016" fill="#D5D5D5" fill-opacity="0.5"/>
<circle cx="181.796" cy="18.2233" r="2.97016" fill="#D5D5D5" fill-opacity="0.5"/>
<circle cx="181.796" cy="33.0742" r="2.97016" fill="#D5D5D5" fill-opacity="0.5"/>
<circle cx="181.796" cy="47.9248" r="2.97016" fill="#D5D5D5" fill-opacity="0.5"/>
<circle cx="181.796" cy="62.7756" r="2.97016" fill="#D5D5D5" fill-opacity="0.5"/>
<circle cx="181.796" cy="77.6265" r="2.97016" fill="#D5D5D5" fill-opacity="0.5"/>
<circle cx="181.796" cy="92.4774" r="2.97016" fill="#D5D5D5" fill-opacity="0.5"/>
<circle cx="181.796" cy="107.328" r="2.97016" fill="#D5D5D5" fill-opacity="0.5"/>
<circle cx="181.796" cy="122.179" r="2.97016" fill="#D5D5D5" fill-opacity="0.5"/>
<circle cx="181.796" cy="137.03" r="2.97016" fill="#D5D5D5" fill-opacity="0.5"/>
</svg>
