<svg width="306" height="101" viewBox="0 0 306 101" fill="none" xmlns="http://www.w3.org/2000/svg">
<path d="M107.584 8.544V11.952H112.992V13.712H107.584V18H105.504V6.8H113.68V8.544H107.584ZM123.297 13.776C123.297 13.9147 123.286 14.112 123.265 14.368H116.561C116.678 14.9973 116.982 15.4987 117.473 15.872C117.974 16.2347 118.593 16.416 119.329 16.416C120.268 16.416 121.041 16.1067 121.649 15.488L122.721 16.72C122.337 17.1787 121.852 17.5253 121.265 17.76C120.678 17.9947 120.017 18.112 119.281 18.112C118.342 18.112 117.516 17.9253 116.801 17.552C116.086 17.1787 115.532 16.6613 115.137 16C114.753 15.328 114.561 14.5707 114.561 13.728C114.561 12.896 114.748 12.1493 115.121 11.488C115.505 10.816 116.033 10.2933 116.705 9.92C117.377 9.54667 118.134 9.36 118.977 9.36C119.809 9.36 120.55 9.54667 121.201 9.92C121.862 10.2827 122.374 10.8 122.737 11.472C123.11 12.1333 123.297 12.9013 123.297 13.776ZM118.977 10.96C118.337 10.96 117.793 11.152 117.345 11.536C116.908 11.9093 116.641 12.4107 116.545 13.04H121.393C121.308 12.4213 121.046 11.92 120.609 11.536C120.172 11.152 119.628 10.96 118.977 10.96ZM130.354 17.536C130.12 17.728 129.832 17.872 129.49 17.968C129.16 18.064 128.808 18.112 128.434 18.112C127.496 18.112 126.77 17.8667 126.258 17.376C125.746 16.8853 125.49 16.1707 125.49 15.232V11.12H124.082V9.52H125.49V7.568H127.49V9.52H129.778V11.12H127.49V15.184C127.49 15.6 127.592 15.92 127.794 16.144C127.997 16.3573 128.29 16.464 128.674 16.464C129.122 16.464 129.496 16.3467 129.794 16.112L130.354 17.536ZM134.64 18.112C133.946 18.112 133.269 18.0213 132.608 17.84C131.946 17.6587 131.418 17.4293 131.024 17.152L131.792 15.632C132.176 15.888 132.634 16.096 133.168 16.256C133.712 16.4053 134.245 16.48 134.768 16.48C135.962 16.48 136.56 16.1653 136.56 15.536C136.56 15.2373 136.405 15.0293 136.096 14.912C135.797 14.7947 135.312 14.6827 134.64 14.576C133.936 14.4693 133.36 14.3467 132.912 14.208C132.474 14.0693 132.09 13.8293 131.76 13.488C131.44 13.136 131.28 12.6507 131.28 12.032C131.28 11.2213 131.616 10.576 132.288 10.096C132.97 9.60533 133.888 9.36 135.04 9.36C135.626 9.36 136.213 9.42933 136.8 9.568C137.386 9.696 137.866 9.872 138.24 10.096L137.472 11.616C136.746 11.1893 135.93 10.976 135.024 10.976C134.437 10.976 133.989 11.0667 133.68 11.248C133.381 11.4187 133.232 11.648 133.232 11.936C133.232 12.256 133.392 12.4853 133.712 12.624C134.042 12.752 134.549 12.8747 135.232 12.992C135.914 13.0987 136.474 13.2213 136.912 13.36C137.349 13.4987 137.722 13.7333 138.032 14.064C138.352 14.3947 138.512 14.864 138.512 15.472C138.512 16.272 138.165 16.912 137.472 17.392C136.778 17.872 135.834 18.112 134.64 18.112ZM144.074 18.112C143.21 18.112 142.431 17.9253 141.738 17.552C141.045 17.1787 140.501 16.6613 140.106 16C139.722 15.328 139.53 14.5707 139.53 13.728C139.53 12.8853 139.722 12.1333 140.106 11.472C140.501 10.8107 141.045 10.2933 141.738 9.92C142.431 9.54667 143.21 9.36 144.074 9.36C144.949 9.36 145.733 9.54667 146.426 9.92C147.119 10.2933 147.658 10.8107 148.042 11.472C148.437 12.1333 148.634 12.8853 148.634 13.728C148.634 14.5707 148.437 15.328 148.042 16C147.658 16.6613 147.119 17.1787 146.426 17.552C145.733 17.9253 144.949 18.112 144.074 18.112ZM144.074 16.4C144.81 16.4 145.418 16.1547 145.898 15.664C146.378 15.1733 146.618 14.528 146.618 13.728C146.618 12.928 146.378 12.2827 145.898 11.792C145.418 11.3013 144.81 11.056 144.074 11.056C143.338 11.056 142.73 11.3013 142.25 11.792C141.781 12.2827 141.546 12.928 141.546 13.728C141.546 14.528 141.781 15.1733 142.25 15.664C142.73 16.1547 143.338 16.4 144.074 16.4ZM155.394 9.36C156.472 9.36 157.336 9.67467 157.986 10.304C158.637 10.9333 158.962 11.8667 158.962 13.104V18H156.962V13.36C156.962 12.6133 156.786 12.0533 156.434 11.68C156.082 11.296 155.581 11.104 154.93 11.104C154.194 11.104 153.613 11.328 153.186 11.776C152.76 12.2133 152.546 12.848 152.546 13.68V18H150.546V9.456H152.45V10.56C152.781 10.1653 153.197 9.86667 153.698 9.664C154.2 9.46133 154.765 9.36 155.394 9.36ZM162.14 18.112C161.777 18.112 161.468 17.9893 161.212 17.744C160.956 17.488 160.828 17.168 160.828 16.784C160.828 16.3893 160.95 16.0693 161.196 15.824C161.452 15.5787 161.766 15.456 162.14 15.456C162.513 15.456 162.822 15.5787 163.068 15.824C163.324 16.0693 163.452 16.3893 163.452 16.784C163.452 17.168 163.324 17.488 163.068 17.744C162.812 17.9893 162.502 18.112 162.14 18.112ZM169.17 18.112C168.284 18.112 167.49 17.9253 166.786 17.552C166.082 17.1787 165.532 16.6613 165.138 16C164.743 15.328 164.546 14.5707 164.546 13.728C164.546 12.8853 164.743 12.1333 165.138 11.472C165.532 10.8107 166.076 10.2933 166.77 9.92C167.474 9.54667 168.274 9.36 169.17 9.36C170.012 9.36 170.748 9.53067 171.378 9.872C172.018 10.2133 172.498 10.704 172.818 11.344L171.282 12.24C171.036 11.8453 170.727 11.552 170.354 11.36C169.991 11.1573 169.591 11.056 169.154 11.056C168.407 11.056 167.788 11.3013 167.298 11.792C166.807 12.272 166.562 12.9173 166.562 13.728C166.562 14.5387 166.802 15.1893 167.282 15.68C167.772 16.16 168.396 16.4 169.154 16.4C169.591 16.4 169.991 16.304 170.354 16.112C170.727 15.9093 171.036 15.6107 171.282 15.216L172.818 16.112C172.487 16.752 172.002 17.248 171.362 17.6C170.732 17.9413 170.002 18.112 169.17 18.112ZM178.261 18.112C177.397 18.112 176.619 17.9253 175.925 17.552C175.232 17.1787 174.688 16.6613 174.293 16C173.909 15.328 173.717 14.5707 173.717 13.728C173.717 12.8853 173.909 12.1333 174.293 11.472C174.688 10.8107 175.232 10.2933 175.925 9.92C176.619 9.54667 177.397 9.36 178.261 9.36C179.136 9.36 179.92 9.54667 180.613 9.92C181.307 10.2933 181.845 10.8107 182.229 11.472C182.624 12.1333 182.821 12.8853 182.821 13.728C182.821 14.5707 182.624 15.328 182.229 16C181.845 16.6613 181.307 17.1787 180.613 17.552C179.92 17.9253 179.136 18.112 178.261 18.112ZM178.261 16.4C178.997 16.4 179.605 16.1547 180.085 15.664C180.565 15.1733 180.805 14.528 180.805 13.728C180.805 12.928 180.565 12.2827 180.085 11.792C179.605 11.3013 178.997 11.056 178.261 11.056C177.525 11.056 176.917 11.3013 176.437 11.792C175.968 12.2827 175.733 12.928 175.733 13.728C175.733 14.528 175.968 15.1733 176.437 15.664C176.917 16.1547 177.525 16.4 178.261 16.4ZM195.518 9.36C196.595 9.36 197.449 9.67467 198.078 10.304C198.707 10.9227 199.022 11.856 199.022 13.104V18H197.022V13.36C197.022 12.6133 196.857 12.0533 196.526 11.68C196.195 11.296 195.721 11.104 195.102 11.104C194.43 11.104 193.891 11.328 193.486 11.776C193.081 12.2133 192.878 12.8427 192.878 13.664V18H190.878V13.36C190.878 12.6133 190.713 12.0533 190.382 11.68C190.051 11.296 189.577 11.104 188.958 11.104C188.275 11.104 187.731 11.3227 187.326 11.76C186.931 12.1973 186.734 12.832 186.734 13.664V18H184.734V9.456H186.638V10.544C186.958 10.16 187.358 9.86667 187.838 9.664C188.318 9.46133 188.851 9.36 189.438 9.36C190.078 9.36 190.643 9.48267 191.134 9.728C191.635 9.96267 192.03 10.3147 192.318 10.784C192.67 10.336 193.123 9.98933 193.678 9.744C194.233 9.488 194.846 9.36 195.518 9.36Z" fill="#222222"/>
<path d="M9.65377 94.112C8.66443 94.112 7.7731 93.8973 6.97977 93.468C6.18643 93.0293 5.5611 92.4273 5.10377 91.662C4.65577 90.8967 4.43177 90.0427 4.43177 89.1C4.43177 88.1573 4.65577 87.3033 5.10377 86.538C5.5611 85.7727 6.18643 85.1753 6.97977 84.746C7.7731 84.3073 8.66443 84.088 9.65377 84.088C10.6338 84.088 11.5204 84.3073 12.3138 84.746C13.1071 85.1753 13.7278 85.7727 14.1758 86.538C14.6238 87.294 14.8478 88.148 14.8478 89.1C14.8478 90.052 14.6238 90.9107 14.1758 91.676C13.7278 92.432 13.1071 93.0293 12.3138 93.468C11.5204 93.8973 10.6338 94.112 9.65377 94.112ZM9.65377 92.866C10.3724 92.866 11.0164 92.7027 11.5858 92.376C12.1644 92.0493 12.6171 91.6013 12.9438 91.032C13.2798 90.4533 13.4478 89.8093 13.4478 89.1C13.4478 88.3907 13.2798 87.7513 12.9438 87.182C12.6171 86.6033 12.1644 86.1507 11.5858 85.824C11.0164 85.4973 10.3724 85.334 9.65377 85.334C8.9351 85.334 8.28177 85.4973 7.69377 85.824C7.1151 86.1507 6.65777 86.6033 6.32177 87.182C5.9951 87.7513 5.83177 88.3907 5.83177 89.1C5.83177 89.8093 5.9951 90.4533 6.32177 91.032C6.65777 91.6013 7.1151 92.0493 7.69377 92.376C8.28177 92.7027 8.9351 92.866 9.65377 92.866ZM18.0796 87.826C18.3129 87.3967 18.6582 87.07 19.1156 86.846C19.5729 86.622 20.1282 86.51 20.7816 86.51V87.812C20.7069 87.8027 20.6042 87.798 20.4736 87.798C19.7456 87.798 19.1716 88.0173 18.7516 88.456C18.3409 88.8853 18.1356 89.5013 18.1356 90.304V94H16.7916V86.58H18.0796V87.826ZM22.4381 86.58H23.7821V94H22.4381V86.58ZM23.1101 85.152C22.8487 85.152 22.6294 85.068 22.4521 84.9C22.2841 84.732 22.2001 84.5267 22.2001 84.284C22.2001 84.0413 22.2841 83.836 22.4521 83.668C22.6294 83.4907 22.8487 83.402 23.1101 83.402C23.3714 83.402 23.5861 83.486 23.7541 83.654C23.9314 83.8127 24.0201 84.0133 24.0201 84.256C24.0201 84.508 23.9314 84.7227 23.7541 84.9C23.5861 85.068 23.3714 85.152 23.1101 85.152ZM33.4462 86.58V92.992C33.4462 94.2893 33.1242 95.246 32.4802 95.862C31.8362 96.4873 30.8749 96.8 29.5962 96.8C28.8962 96.8 28.2289 96.702 27.5942 96.506C26.9596 96.3193 26.4462 96.0487 26.0542 95.694L26.6982 94.658C27.0436 94.9567 27.4682 95.19 27.9722 95.358C28.4856 95.5353 29.0129 95.624 29.5542 95.624C30.4222 95.624 31.0616 95.4187 31.4722 95.008C31.8922 94.5973 32.1022 93.972 32.1022 93.132V92.544C31.7849 92.9267 31.3929 93.216 30.9262 93.412C30.4689 93.5987 29.9696 93.692 29.4282 93.692C28.7189 93.692 28.0749 93.5427 27.4962 93.244C26.9269 92.936 26.4789 92.5113 26.1522 91.97C25.8256 91.4193 25.6622 90.794 25.6622 90.094C25.6622 89.394 25.8256 88.7733 26.1522 88.232C26.4789 87.6813 26.9269 87.2567 27.4962 86.958C28.0749 86.6593 28.7189 86.51 29.4282 86.51C29.9882 86.51 30.5062 86.6127 30.9822 86.818C31.4676 87.0233 31.8642 87.3267 32.1722 87.728V86.58H33.4462ZM29.5822 92.516C30.0676 92.516 30.5016 92.4133 30.8842 92.208C31.2762 92.0027 31.5796 91.718 31.7942 91.354C32.0182 90.9807 32.1302 90.5607 32.1302 90.094C32.1302 89.3753 31.8922 88.7967 31.4162 88.358C30.9402 87.91 30.3289 87.686 29.5822 87.686C28.8262 87.686 28.2102 87.91 27.7342 88.358C27.2582 88.7967 27.0202 89.3753 27.0202 90.094C27.0202 90.5607 27.1276 90.9807 27.3422 91.354C27.5662 91.718 27.8696 92.0027 28.2522 92.208C28.6442 92.4133 29.0876 92.516 29.5822 92.516ZM36.0142 86.58H37.3582V94H36.0142V86.58ZM36.6862 85.152C36.4249 85.152 36.2056 85.068 36.0282 84.9C35.8602 84.732 35.7762 84.5267 35.7762 84.284C35.7762 84.0413 35.8602 83.836 36.0282 83.668C36.2056 83.4907 36.4249 83.402 36.6862 83.402C36.9476 83.402 37.1622 83.486 37.3302 83.654C37.5076 83.8127 37.5962 84.0133 37.5962 84.256C37.5962 84.508 37.5076 84.7227 37.3302 84.9C37.1622 85.068 36.9476 85.152 36.6862 85.152ZM43.8864 86.51C44.8291 86.51 45.5757 86.7853 46.1264 87.336C46.6864 87.8773 46.9664 88.6753 46.9664 89.73V94H45.6224V89.884C45.6224 89.1653 45.4497 88.624 45.1044 88.26C44.7591 87.896 44.2644 87.714 43.6204 87.714C42.8924 87.714 42.3184 87.9287 41.8984 88.358C41.4784 88.778 41.2684 89.3847 41.2684 90.178V94H39.9244V86.58H41.2124V87.7C41.4831 87.3173 41.8471 87.0233 42.3044 86.818C42.7711 86.6127 43.2984 86.51 43.8864 86.51ZM52.1557 86.51C53.1824 86.51 53.9664 86.762 54.5077 87.266C55.0584 87.77 55.3337 88.5213 55.3337 89.52V94H54.0597V93.02C53.8357 93.3653 53.5137 93.6313 53.0937 93.818C52.683 93.9953 52.193 94.084 51.6237 94.084C50.793 94.084 50.1257 93.8833 49.6217 93.482C49.127 93.0807 48.8797 92.5533 48.8797 91.9C48.8797 91.2467 49.1177 90.724 49.5937 90.332C50.0697 89.9307 50.8257 89.73 51.8617 89.73H53.9897V89.464C53.9897 88.8853 53.8217 88.442 53.4857 88.134C53.1497 87.826 52.655 87.672 52.0017 87.672C51.563 87.672 51.1337 87.7467 50.7137 87.896C50.2937 88.036 49.939 88.2273 49.6497 88.47L49.0897 87.462C49.4724 87.154 49.9297 86.9207 50.4617 86.762C50.9937 86.594 51.5584 86.51 52.1557 86.51ZM51.8477 93.048C52.361 93.048 52.8044 92.936 53.1777 92.712C53.551 92.4787 53.8217 92.152 53.9897 91.732V90.696H51.9177C50.779 90.696 50.2097 91.0787 50.2097 91.844C50.2097 92.2173 50.3544 92.5113 50.6437 92.726C50.933 92.9407 51.3344 93.048 51.8477 93.048ZM57.8209 83.612H59.1649V94H57.8209V83.612ZM65.4908 83.612H66.8348V94H65.4908V83.612ZM76.107 90.332C76.107 90.4347 76.0976 90.57 76.079 90.738H70.059C70.143 91.3913 70.4276 91.9187 70.913 92.32C71.4076 92.712 72.019 92.908 72.747 92.908C73.6336 92.908 74.3476 92.6093 74.889 92.012L75.631 92.88C75.295 93.272 74.875 93.5707 74.371 93.776C73.8763 93.9813 73.321 94.084 72.705 94.084C71.921 94.084 71.2256 93.9253 70.619 93.608C70.0123 93.2813 69.541 92.8287 69.205 92.25C68.8783 91.6713 68.715 91.018 68.715 90.29C68.715 89.5713 68.8736 88.9227 69.191 88.344C69.5176 87.7653 69.961 87.3173 70.521 87C71.0903 86.6733 71.7296 86.51 72.439 86.51C73.1483 86.51 73.7783 86.6733 74.329 87C74.889 87.3173 75.323 87.7653 75.631 88.344C75.9483 88.9227 76.107 89.5853 76.107 90.332ZM72.439 87.644C71.795 87.644 71.2536 87.84 70.815 88.232C70.3856 88.624 70.1336 89.1373 70.059 89.772H74.819C74.7443 89.1467 74.4876 88.638 74.049 88.246C73.6196 87.8447 73.083 87.644 72.439 87.644ZM80.4701 86.51C81.4968 86.51 82.2808 86.762 82.8221 87.266C83.3728 87.77 83.6481 88.5213 83.6481 89.52V94H82.3741V93.02C82.1501 93.3653 81.8281 93.6313 81.4081 93.818C80.9975 93.9953 80.5075 94.084 79.9381 94.084C79.1075 94.084 78.4401 93.8833 77.9361 93.482C77.4415 93.0807 77.1941 92.5533 77.1941 91.9C77.1941 91.2467 77.4321 90.724 77.9081 90.332C78.3841 89.9307 79.1401 89.73 80.1761 89.73H82.3041V89.464C82.3041 88.8853 82.1361 88.442 81.8001 88.134C81.4641 87.826 80.9695 87.672 80.3161 87.672C79.8775 87.672 79.4481 87.7467 79.0281 87.896C78.6081 88.036 78.2535 88.2273 77.9641 88.47L77.4041 87.462C77.7868 87.154 78.2441 86.9207 78.7761 86.762C79.3081 86.594 79.8728 86.51 80.4701 86.51ZM80.1621 93.048C80.6755 93.048 81.1188 92.936 81.4921 92.712C81.8655 92.4787 82.1361 92.152 82.3041 91.732V90.696H80.2321C79.0935 90.696 78.5241 91.0787 78.5241 91.844C78.5241 92.2173 78.6688 92.5113 78.9581 92.726C79.2475 92.9407 79.6488 93.048 80.1621 93.048ZM90.3073 93.566C90.1113 93.734 89.8687 93.8647 89.5793 93.958C89.29 94.042 88.9913 94.084 88.6833 94.084C87.9367 94.084 87.358 93.8833 86.9473 93.482C86.5367 93.0807 86.3313 92.5067 86.3313 91.76V87.686H85.0713V86.58H86.3313V84.956H87.6753V86.58H89.8033V87.686H87.6753V91.704C87.6753 92.1053 87.7733 92.4133 87.9693 92.628C88.1747 92.8427 88.464 92.95 88.8373 92.95C89.248 92.95 89.598 92.8333 89.8873 92.6L90.3073 93.566ZM95.8942 86.51C96.8369 86.51 97.5835 86.7853 98.1342 87.336C98.6942 87.8773 98.9742 88.6753 98.9742 89.73V94H97.6302V89.884C97.6302 89.1653 97.4575 88.624 97.1122 88.26C96.7669 87.896 96.2722 87.714 95.6282 87.714C94.9002 87.714 94.3262 87.9287 93.9062 88.358C93.4862 88.778 93.2762 89.3847 93.2762 90.178V94H91.9322V83.612H93.2762V87.63C93.5562 87.2753 93.9202 87 94.3682 86.804C94.8255 86.608 95.3342 86.51 95.8942 86.51ZM108.209 90.332C108.209 90.4347 108.199 90.57 108.181 90.738H102.161C102.245 91.3913 102.529 91.9187 103.015 92.32C103.509 92.712 104.121 92.908 104.849 92.908C105.735 92.908 106.449 92.6093 106.991 92.012L107.733 92.88C107.397 93.272 106.977 93.5707 106.473 93.776C105.978 93.9813 105.423 94.084 104.807 94.084C104.023 94.084 103.327 93.9253 102.721 93.608C102.114 93.2813 101.643 92.8287 101.307 92.25C100.98 91.6713 100.817 91.018 100.817 90.29C100.817 89.5713 100.975 88.9227 101.293 88.344C101.619 87.7653 102.063 87.3173 102.623 87C103.192 86.6733 103.831 86.51 104.541 86.51C105.25 86.51 105.88 86.6733 106.431 87C106.991 87.3173 107.425 87.7653 107.733 88.344C108.05 88.9227 108.209 89.5853 108.209 90.332ZM104.541 87.644C103.897 87.644 103.355 87.84 102.917 88.232C102.487 88.624 102.235 89.1373 102.161 89.772H106.921C106.846 89.1467 106.589 88.638 106.151 88.246C105.721 87.8447 105.185 87.644 104.541 87.644ZM111.363 87.826C111.596 87.3967 111.941 87.07 112.399 86.846C112.856 86.622 113.411 86.51 114.065 86.51V87.812C113.99 87.8027 113.887 87.798 113.757 87.798C113.029 87.798 112.455 88.0173 112.035 88.456C111.624 88.8853 111.419 89.5013 111.419 90.304V94H110.075V86.58H111.363V87.826ZM119.577 83.612H120.921V94H119.577V83.612ZM130.403 86.58V94H129.129V92.88C128.858 93.2627 128.499 93.5613 128.051 93.776C127.612 93.9813 127.132 94.084 126.609 94.084C125.62 94.084 124.84 93.8133 124.271 93.272C123.702 92.7213 123.417 91.914 123.417 90.85V86.58H124.761V90.696C124.761 91.4147 124.934 91.9607 125.279 92.334C125.624 92.698 126.119 92.88 126.763 92.88C127.472 92.88 128.032 92.6653 128.443 92.236C128.854 91.8067 129.059 91.2 129.059 90.416V86.58H130.403ZM137.694 94L135.552 91.158L133.382 94H131.884L134.81 90.206L132.024 86.58H133.522L135.566 89.254L137.596 86.58H139.066L136.266 90.206L139.22 94H137.694ZM147.465 86.58V94H146.191V92.88C145.921 93.2627 145.561 93.5613 145.113 93.776C144.675 93.9813 144.194 94.084 143.671 94.084C142.682 94.084 141.903 93.8133 141.333 93.272C140.764 92.7213 140.479 91.914 140.479 90.85V86.58H141.823V90.696C141.823 91.4147 141.996 91.9607 142.341 92.334C142.687 92.698 143.181 92.88 143.825 92.88C144.535 92.88 145.095 92.6653 145.505 92.236C145.916 91.8067 146.121 91.2 146.121 90.416V86.58H147.465ZM151.312 87.826C151.545 87.3967 151.891 87.07 152.348 86.846C152.805 86.622 153.361 86.51 154.014 86.51V87.812C153.939 87.8027 153.837 87.798 153.706 87.798C152.978 87.798 152.404 88.0173 151.984 88.456C151.573 88.8853 151.368 89.5013 151.368 90.304V94H150.024V86.58H151.312V87.826ZM162.537 86.58L158.939 94.742C158.622 95.498 158.249 96.03 157.819 96.338C157.399 96.646 156.891 96.8 156.293 96.8C155.929 96.8 155.575 96.7393 155.229 96.618C154.893 96.506 154.613 96.338 154.389 96.114L154.963 95.106C155.346 95.47 155.789 95.652 156.293 95.652C156.62 95.652 156.891 95.5633 157.105 95.386C157.329 95.218 157.53 94.924 157.707 94.504L157.945 93.986L154.669 86.58H156.069L158.659 92.516L161.221 86.58H162.537ZM167.551 83.612H168.895V94H167.551V83.612ZM171.462 86.58H172.806V94H171.462V86.58ZM172.134 85.152C171.872 85.152 171.653 85.068 171.476 84.9C171.308 84.732 171.224 84.5267 171.224 84.284C171.224 84.0413 171.308 83.836 171.476 83.668C171.653 83.4907 171.872 83.402 172.134 83.402C172.395 83.402 172.61 83.486 172.778 83.654C172.955 83.8127 173.044 84.0133 173.044 84.256C173.044 84.508 172.955 84.7227 172.778 84.9C172.61 85.068 172.395 85.152 172.134 85.152ZM178.088 84.634C177.285 84.634 176.884 85.068 176.884 85.936V86.58H179.04V87.686H176.912V94H175.568V87.686H174.308V86.58H175.568V85.922C175.568 85.1847 175.782 84.6013 176.212 84.172C176.641 83.7427 177.243 83.528 178.018 83.528C178.316 83.528 178.596 83.5653 178.858 83.64C179.119 83.7147 179.343 83.822 179.53 83.962L179.124 84.984C178.816 84.7507 178.47 84.634 178.088 84.634ZM186.904 90.332C186.904 90.4347 186.894 90.57 186.876 90.738H180.856C180.94 91.3913 181.224 91.9187 181.71 92.32C182.204 92.712 182.816 92.908 183.544 92.908C184.43 92.908 185.144 92.6093 185.686 92.012L186.428 92.88C186.092 93.272 185.672 93.5707 185.168 93.776C184.673 93.9813 184.118 94.084 183.502 94.084C182.718 94.084 182.022 93.9253 181.416 93.608C180.809 93.2813 180.338 92.8287 180.002 92.25C179.675 91.6713 179.512 91.018 179.512 90.29C179.512 89.5713 179.67 88.9227 179.988 88.344C180.314 87.7653 180.758 87.3173 181.318 87C181.887 86.6733 182.526 86.51 183.236 86.51C183.945 86.51 184.575 86.6733 185.126 87C185.686 87.3173 186.12 87.7653 186.428 88.344C186.745 88.9227 186.904 89.5853 186.904 90.332ZM183.236 87.644C182.592 87.644 182.05 87.84 181.612 88.232C181.182 88.624 180.93 89.1373 180.856 89.772H185.616C185.541 89.1467 185.284 88.638 184.846 88.246C184.416 87.8447 183.88 87.644 183.236 87.644ZM190.898 94.084C190.291 94.084 189.708 94.0047 189.148 93.846C188.588 93.678 188.149 93.468 187.832 93.216L188.392 92.152C188.719 92.3853 189.115 92.572 189.582 92.712C190.049 92.852 190.52 92.922 190.996 92.922C192.172 92.922 192.76 92.586 192.76 91.914C192.76 91.69 192.681 91.5127 192.522 91.382C192.363 91.2513 192.163 91.158 191.92 91.102C191.687 91.0367 191.351 90.9667 190.912 90.892C190.315 90.7987 189.825 90.6913 189.442 90.57C189.069 90.4487 188.747 90.2433 188.476 89.954C188.205 89.6647 188.07 89.2587 188.07 88.736C188.07 88.064 188.35 87.5273 188.91 87.126C189.47 86.7153 190.221 86.51 191.164 86.51C191.659 86.51 192.153 86.5707 192.648 86.692C193.143 86.8133 193.549 86.9767 193.866 87.182L193.292 88.246C192.685 87.854 191.971 87.658 191.15 87.658C190.581 87.658 190.147 87.7513 189.848 87.938C189.549 88.1247 189.4 88.372 189.4 88.68C189.4 88.9227 189.484 89.114 189.652 89.254C189.82 89.394 190.025 89.4967 190.268 89.562C190.52 89.6273 190.87 89.702 191.318 89.786C191.915 89.8887 192.396 90.0007 192.76 90.122C193.133 90.234 193.451 90.43 193.712 90.71C193.973 90.99 194.104 91.382 194.104 91.886C194.104 92.558 193.815 93.0947 193.236 93.496C192.667 93.888 191.887 94.084 190.898 94.084ZM199.956 93.566C199.76 93.734 199.517 93.8647 199.228 93.958C198.938 94.042 198.64 94.084 198.332 94.084C197.585 94.084 197.006 93.8833 196.596 93.482C196.185 93.0807 195.98 92.5067 195.98 91.76V87.686H194.72V86.58H195.98V84.956H197.324V86.58H199.452V87.686H197.324V91.704C197.324 92.1053 197.422 92.4133 197.618 92.628C197.823 92.8427 198.112 92.95 198.486 92.95C198.896 92.95 199.246 92.8333 199.536 92.6L199.956 93.566ZM208.01 86.58L204.412 94.742C204.095 95.498 203.721 96.03 203.292 96.338C202.872 96.646 202.363 96.8 201.766 96.8C201.402 96.8 201.047 96.7393 200.702 96.618C200.366 96.506 200.086 96.338 199.862 96.114L200.436 95.106C200.819 95.47 201.262 95.652 201.766 95.652C202.093 95.652 202.363 95.5633 202.578 95.386C202.802 95.218 203.003 94.924 203.18 94.504L203.418 93.986L200.142 86.58H201.542L204.132 92.516L206.694 86.58H208.01ZM209.264 83.612H210.608V94H209.264V83.612ZM219.88 90.332C219.88 90.4347 219.871 90.57 219.852 90.738H213.832C213.916 91.3913 214.201 91.9187 214.686 92.32C215.181 92.712 215.792 92.908 216.52 92.908C217.407 92.908 218.121 92.6093 218.662 92.012L219.404 92.88C219.068 93.272 218.648 93.5707 218.144 93.776C217.65 93.9813 217.094 94.084 216.478 94.084C215.694 94.084 214.999 93.9253 214.392 93.608C213.786 93.2813 213.314 92.8287 212.978 92.25C212.652 91.6713 212.488 91.018 212.488 90.29C212.488 89.5713 212.647 88.9227 212.964 88.344C213.291 87.7653 213.734 87.3173 214.294 87C214.864 86.6733 215.503 86.51 216.212 86.51C216.922 86.51 217.552 86.6733 218.102 87C218.662 87.3173 219.096 87.7653 219.404 88.344C219.722 88.9227 219.88 89.5853 219.88 90.332ZM216.212 87.644C215.568 87.644 215.027 87.84 214.588 88.232C214.159 88.624 213.907 89.1373 213.832 89.772H218.592C218.518 89.1467 218.261 88.638 217.822 88.246C217.393 87.8447 216.856 87.644 216.212 87.644ZM228.208 86.51C229.235 86.51 230.019 86.762 230.56 87.266C231.111 87.77 231.386 88.5213 231.386 89.52V94H230.112V93.02C229.888 93.3653 229.566 93.6313 229.146 93.818C228.736 93.9953 228.246 94.084 227.676 94.084C226.846 94.084 226.178 93.8833 225.674 93.482C225.18 93.0807 224.932 92.5533 224.932 91.9C224.932 91.2467 225.17 90.724 225.646 90.332C226.122 89.9307 226.878 89.73 227.914 89.73H230.042V89.464C230.042 88.8853 229.874 88.442 229.538 88.134C229.202 87.826 228.708 87.672 228.054 87.672C227.616 87.672 227.186 87.7467 226.766 87.896C226.346 88.036 225.992 88.2273 225.702 88.47L225.142 87.462C225.525 87.154 225.982 86.9207 226.514 86.762C227.046 86.594 227.611 86.51 228.208 86.51ZM227.9 93.048C228.414 93.048 228.857 92.936 229.23 92.712C229.604 92.4787 229.874 92.152 230.042 91.732V90.696H227.97C226.832 90.696 226.262 91.0787 226.262 91.844C226.262 92.2173 226.407 92.5113 226.696 92.726C226.986 92.9407 227.387 93.048 227.9 93.048ZM237.149 94.084C236.393 94.084 235.716 93.9207 235.119 93.594C234.531 93.2673 234.069 92.8193 233.733 92.25C233.397 91.6713 233.229 91.018 233.229 90.29C233.229 89.562 233.397 88.9133 233.733 88.344C234.069 87.7653 234.531 87.3173 235.119 87C235.716 86.6733 236.393 86.51 237.149 86.51C237.821 86.51 238.418 86.6453 238.941 86.916C239.473 87.1867 239.883 87.5787 240.173 88.092L239.151 88.75C238.917 88.3953 238.628 88.1293 238.283 87.952C237.937 87.7747 237.555 87.686 237.135 87.686C236.649 87.686 236.211 87.7933 235.819 88.008C235.436 88.2227 235.133 88.5307 234.909 88.932C234.694 89.324 234.587 89.7767 234.587 90.29C234.587 90.8127 234.694 91.2747 234.909 91.676C235.133 92.068 235.436 92.3713 235.819 92.586C236.211 92.8007 236.649 92.908 237.135 92.908C237.555 92.908 237.937 92.8193 238.283 92.642C238.628 92.4647 238.917 92.1987 239.151 91.844L240.173 92.488C239.883 93.0013 239.473 93.398 238.941 93.678C238.418 93.9487 237.821 94.084 237.149 94.084ZM245.037 94.084C244.281 94.084 243.605 93.9207 243.007 93.594C242.419 93.2673 241.957 92.8193 241.621 92.25C241.285 91.6713 241.117 91.018 241.117 90.29C241.117 89.562 241.285 88.9133 241.621 88.344C241.957 87.7653 242.419 87.3173 243.007 87C243.605 86.6733 244.281 86.51 245.037 86.51C245.709 86.51 246.307 86.6453 246.829 86.916C247.361 87.1867 247.772 87.5787 248.061 88.092L247.039 88.75C246.806 88.3953 246.517 88.1293 246.171 87.952C245.826 87.7747 245.443 87.686 245.023 87.686C244.538 87.686 244.099 87.7933 243.707 88.008C243.325 88.2227 243.021 88.5307 242.797 88.932C242.583 89.324 242.475 89.7767 242.475 90.29C242.475 90.8127 242.583 91.2747 242.797 91.676C243.021 92.068 243.325 92.3713 243.707 92.586C244.099 92.8007 244.538 92.908 245.023 92.908C245.443 92.908 245.826 92.8193 246.171 92.642C246.517 92.4647 246.806 92.1987 247.039 91.844L248.061 92.488C247.772 93.0013 247.361 93.398 246.829 93.678C246.307 93.9487 245.709 94.084 245.037 94.084ZM256.398 90.332C256.398 90.4347 256.389 90.57 256.37 90.738H250.35C250.434 91.3913 250.719 91.9187 251.204 92.32C251.699 92.712 252.31 92.908 253.038 92.908C253.925 92.908 254.639 92.6093 255.18 92.012L255.922 92.88C255.586 93.272 255.166 93.5707 254.662 93.776C254.167 93.9813 253.612 94.084 252.996 94.084C252.212 94.084 251.517 93.9253 250.91 93.608C250.303 93.2813 249.832 92.8287 249.496 92.25C249.169 91.6713 249.006 91.018 249.006 90.29C249.006 89.5713 249.165 88.9227 249.482 88.344C249.809 87.7653 250.252 87.3173 250.812 87C251.381 86.6733 252.021 86.51 252.73 86.51C253.439 86.51 254.069 86.6733 254.62 87C255.18 87.3173 255.614 87.7653 255.922 88.344C256.239 88.9227 256.398 89.5853 256.398 90.332ZM252.73 87.644C252.086 87.644 251.545 87.84 251.106 88.232C250.677 88.624 250.425 89.1373 250.35 89.772H255.11C255.035 89.1467 254.779 88.638 254.34 88.246C253.911 87.8447 253.374 87.644 252.73 87.644ZM260.392 94.084C259.786 94.084 259.202 94.0047 258.642 93.846C258.082 93.678 257.644 93.468 257.326 93.216L257.886 92.152C258.213 92.3853 258.61 92.572 259.076 92.712C259.543 92.852 260.014 92.922 260.49 92.922C261.666 92.922 262.254 92.586 262.254 91.914C262.254 91.69 262.175 91.5127 262.016 91.382C261.858 91.2513 261.657 91.158 261.414 91.102C261.181 91.0367 260.845 90.9667 260.406 90.892C259.809 90.7987 259.319 90.6913 258.936 90.57C258.563 90.4487 258.241 90.2433 257.97 89.954C257.7 89.6647 257.564 89.2587 257.564 88.736C257.564 88.064 257.844 87.5273 258.404 87.126C258.964 86.7153 259.716 86.51 260.658 86.51C261.153 86.51 261.648 86.5707 262.142 86.692C262.637 86.8133 263.043 86.9767 263.36 87.182L262.786 88.246C262.18 87.854 261.466 87.658 260.644 87.658C260.075 87.658 259.641 87.7513 259.342 87.938C259.044 88.1247 258.894 88.372 258.894 88.68C258.894 88.9227 258.978 89.114 259.146 89.254C259.314 89.394 259.52 89.4967 259.762 89.562C260.014 89.6273 260.364 89.702 260.812 89.786C261.41 89.8887 261.89 90.0007 262.254 90.122C262.628 90.234 262.945 90.43 263.206 90.71C263.468 90.99 263.598 91.382 263.598 91.886C263.598 92.558 263.309 93.0947 262.73 93.496C262.161 93.888 261.382 94.084 260.392 94.084ZM267.406 94.084C266.799 94.084 266.216 94.0047 265.656 93.846C265.096 93.678 264.657 93.468 264.34 93.216L264.9 92.152C265.227 92.3853 265.623 92.572 266.09 92.712C266.557 92.852 267.028 92.922 267.504 92.922C268.68 92.922 269.268 92.586 269.268 91.914C269.268 91.69 269.189 91.5127 269.03 91.382C268.871 91.2513 268.671 91.158 268.428 91.102C268.195 91.0367 267.859 90.9667 267.42 90.892C266.823 90.7987 266.333 90.6913 265.95 90.57C265.577 90.4487 265.255 90.2433 264.984 89.954C264.713 89.6647 264.578 89.2587 264.578 88.736C264.578 88.064 264.858 87.5273 265.418 87.126C265.978 86.7153 266.729 86.51 267.672 86.51C268.167 86.51 268.661 86.5707 269.156 86.692C269.651 86.8133 270.057 86.9767 270.374 87.182L269.8 88.246C269.193 87.854 268.479 87.658 267.658 87.658C267.089 87.658 266.655 87.7513 266.356 87.938C266.057 88.1247 265.908 88.372 265.908 88.68C265.908 88.9227 265.992 89.114 266.16 89.254C266.328 89.394 266.533 89.4967 266.776 89.562C267.028 89.6273 267.378 89.702 267.826 89.786C268.423 89.8887 268.904 90.0007 269.268 90.122C269.641 90.234 269.959 90.43 270.22 90.71C270.481 90.99 270.612 91.382 270.612 91.886C270.612 92.558 270.323 93.0947 269.744 93.496C269.175 93.888 268.395 94.084 267.406 94.084ZM275.47 94.084C274.732 94.084 274.07 93.9207 273.482 93.594C272.894 93.2673 272.432 92.8193 272.096 92.25C271.769 91.6713 271.606 91.018 271.606 90.29C271.606 89.562 271.769 88.9133 272.096 88.344C272.432 87.7653 272.894 87.3173 273.482 87C274.07 86.6733 274.732 86.51 275.47 86.51C276.207 86.51 276.865 86.6733 277.444 87C278.032 87.3173 278.489 87.7653 278.816 88.344C279.152 88.9133 279.32 89.562 279.32 90.29C279.32 91.018 279.152 91.6713 278.816 92.25C278.489 92.8193 278.032 93.2673 277.444 93.594C276.865 93.9207 276.207 94.084 275.47 94.084ZM275.47 92.908C275.946 92.908 276.37 92.8007 276.744 92.586C277.126 92.362 277.425 92.054 277.64 91.662C277.854 91.2607 277.962 90.8033 277.962 90.29C277.962 89.7767 277.854 89.324 277.64 88.932C277.425 88.5307 277.126 88.2227 276.744 88.008C276.37 87.7933 275.946 87.686 275.47 87.686C274.994 87.686 274.564 87.7933 274.182 88.008C273.808 88.2227 273.51 88.5307 273.286 88.932C273.071 89.324 272.964 89.7767 272.964 90.29C272.964 90.8033 273.071 91.2607 273.286 91.662C273.51 92.054 273.808 92.362 274.182 92.586C274.564 92.8007 274.994 92.908 275.47 92.908ZM282.466 87.826C282.7 87.3967 283.045 87.07 283.502 86.846C283.96 86.622 284.515 86.51 285.168 86.51V87.812C285.094 87.8027 284.991 87.798 284.86 87.798C284.132 87.798 283.558 88.0173 283.138 88.456C282.728 88.8853 282.522 89.5013 282.522 90.304V94H281.178V86.58H282.466V87.826ZM286.825 86.58H288.169V94H286.825V86.58ZM287.497 85.152C287.235 85.152 287.016 85.068 286.839 84.9C286.671 84.732 286.587 84.5267 286.587 84.284C286.587 84.0413 286.671 83.836 286.839 83.668C287.016 83.4907 287.235 83.402 287.497 83.402C287.758 83.402 287.973 83.486 288.141 83.654C288.318 83.8127 288.407 84.0133 288.407 84.256C288.407 84.508 288.318 84.7227 288.141 84.9C287.973 85.068 287.758 85.152 287.497 85.152ZM297.441 90.332C297.441 90.4347 297.432 90.57 297.413 90.738H291.393C291.477 91.3913 291.762 91.9187 292.247 92.32C292.742 92.712 293.353 92.908 294.081 92.908C294.968 92.908 295.682 92.6093 296.223 92.012L296.965 92.88C296.629 93.272 296.209 93.5707 295.705 93.776C295.21 93.9813 294.655 94.084 294.039 94.084C293.255 94.084 292.56 93.9253 291.953 93.608C291.346 93.2813 290.875 92.8287 290.539 92.25C290.212 91.6713 290.049 91.018 290.049 90.29C290.049 89.5713 290.208 88.9227 290.525 88.344C290.852 87.7653 291.295 87.3173 291.855 87C292.424 86.6733 293.064 86.51 293.773 86.51C294.482 86.51 295.112 86.6733 295.663 87C296.223 87.3173 296.657 87.7653 296.965 88.344C297.282 88.9227 297.441 89.5853 297.441 90.332ZM293.773 87.644C293.129 87.644 292.588 87.84 292.149 88.232C291.72 88.624 291.468 89.1373 291.393 89.772H296.153C296.078 89.1467 295.822 88.638 295.383 88.246C294.954 87.8447 294.417 87.644 293.773 87.644ZM301.435 94.084C300.829 94.084 300.245 94.0047 299.685 93.846C299.125 93.678 298.687 93.468 298.369 93.216L298.929 92.152C299.256 92.3853 299.653 92.572 300.119 92.712C300.586 92.852 301.057 92.922 301.533 92.922C302.709 92.922 303.297 92.586 303.297 91.914C303.297 91.69 303.218 91.5127 303.059 91.382C302.901 91.2513 302.7 91.158 302.457 91.102C302.224 91.0367 301.888 90.9667 301.449 90.892C300.852 90.7987 300.362 90.6913 299.979 90.57C299.606 90.4487 299.284 90.2433 299.013 89.954C298.743 89.6647 298.607 89.2587 298.607 88.736C298.607 88.064 298.887 87.5273 299.447 87.126C300.007 86.7153 300.759 86.51 301.701 86.51C302.196 86.51 302.691 86.5707 303.185 86.692C303.68 86.8133 304.086 86.9767 304.403 87.182L303.829 88.246C303.223 87.854 302.509 87.658 301.687 87.658C301.118 87.658 300.684 87.7513 300.385 87.938C300.087 88.1247 299.937 88.372 299.937 88.68C299.937 88.9227 300.021 89.114 300.189 89.254C300.357 89.394 300.563 89.4967 300.805 89.562C301.057 89.6273 301.407 89.702 301.855 89.786C302.453 89.8887 302.933 90.0007 303.297 90.122C303.671 90.234 303.988 90.43 304.249 90.71C304.511 90.99 304.641 91.382 304.641 91.886C304.641 92.558 304.352 93.0947 303.773 93.496C303.204 93.888 302.425 94.084 301.435 94.084Z" fill="#C4C4C4"/>
<g opacity="0.4">
<path opacity="0.4" d="M63.8138 51.6236V61.5999H67.6553V53.0488H79.9207V49.2118H67.6553V43.1273H83.927V39.2903H63.8138V51.6236Z" fill="black"/>
<path opacity="0.4" d="M93.5034 60.0378L92.0765 51.103C92.0491 50.9111 92.0215 50.6919 92.0215 50.5C92.0215 50.3081 92.0491 50.0889 92.0765 49.897L93.5034 40.9622C93.5582 40.5511 93.6131 40.14 93.6131 39.7289C93.6131 38.6874 93.3936 37.6733 93.0095 36.7415C92.4332 35.3711 91.4728 34.1652 90.238 33.343C89.0032 32.4933 87.4941 32 85.8752 32H60.8229C59.7528 32 58.7101 32.2193 57.7771 32.6304C56.3777 33.2059 55.2252 34.1926 54.4021 35.4259C53.5789 36.6593 53.085 38.1667 53.085 39.7289C53.085 40.14 53.1124 40.5511 53.1947 40.9622L54.6216 49.897C54.649 50.0889 54.6765 50.3081 54.6765 50.5C54.6765 50.6919 54.649 50.9111 54.6216 51.103L53.1947 60.0378C53.1398 60.4489 53.085 60.86 53.085 61.2711C53.085 62.3126 53.3045 63.3266 53.6886 64.2585C54.2649 65.6289 55.2252 66.8349 56.46 67.657C57.6948 68.5066 59.204 69 60.8229 69H85.8476C86.9179 69 87.9605 68.7807 88.8935 68.3696C90.293 67.7666 91.4728 66.78 92.296 65.5466C93.1192 64.3134 93.6131 62.8334 93.6131 61.2711C93.6131 60.86 93.5857 60.4489 93.5034 60.0378ZM88.2899 51.7059L89.7167 60.6407C89.7441 60.86 89.7715 61.0519 89.7715 61.2711C89.7715 61.7919 89.6618 62.3126 89.4697 62.7511C89.1679 63.4363 88.674 64.0393 88.0704 64.4778C87.4392 64.8889 86.6983 65.163 85.8752 65.163H60.8229C60.2741 65.163 59.7528 65.0534 59.2863 64.8615C58.6003 64.56 57.9966 64.0666 57.5576 63.4363C57.146 62.8059 56.8991 62.0659 56.8991 61.2711C56.8991 61.0793 56.9265 60.86 56.9539 60.6407L58.3808 51.7059C58.4357 51.2949 58.4905 50.8837 58.4905 50.5C58.4905 50.0889 58.4631 49.6778 58.3808 49.2941L56.9539 40.3593C56.9265 40.14 56.8991 39.9481 56.8991 39.7289C56.8991 39.2081 57.0088 38.6874 57.2009 38.2489C57.5027 37.5637 57.9966 36.9607 58.6003 36.5222C59.2314 36.1111 59.9723 35.837 60.7955 35.837H85.8202C86.3691 35.837 86.8904 35.9467 87.3569 36.1385C88.0428 36.44 88.6465 36.9333 89.0856 37.5637C89.4971 38.1941 89.7441 38.9341 89.7441 39.7289C89.7441 39.9207 89.7167 40.14 89.6892 40.3593L88.2623 49.2941C88.2075 49.7051 88.1526 50.1163 88.1526 50.5C88.2075 50.9111 88.2349 51.3222 88.2899 51.7059Z" fill="black"/>
<path opacity="0.4" d="M112.256 44.0547V49.5633H123.116V52.434H112.256V60.296H108.386V41.0547H126.819V44.0547H112.256Z" fill="black"/>
<path opacity="0.4" d="M131.428 60.296V41.0547H149.862V44.0547H135.246V48.9943H146.481V51.9168H135.246V57.2961H149.862V60.296H131.428Z" fill="black"/>
<path opacity="0.4" d="M166.202 44.0547V60.296H162.323V44.0547H153.318V41.0547H175.208V44.0547H166.202Z" fill="black"/>
<path opacity="0.4" d="M188.834 61.4281C184.623 61.4281 180.747 60.326 177.512 58.8475L178.935 55.8637C182.197 57.4228 185.655 58.3636 189.001 58.3636C193.491 58.3636 195.47 56.9658 195.47 55.4336C195.47 50.6487 178.098 53.8476 178.098 46.509C178.098 42.7725 182.281 39.9231 188.861 39.9231C192.932 39.9231 196.753 41.294 199.068 42.7725L196.948 45.2994C195.025 44.0897 191.845 42.9876 188.722 42.9876C184.679 42.9876 182.002 44.3047 182.002 46.0251C182.002 50.3799 199.403 47.4768 199.403 55.0304C199.403 58.9282 194.996 61.4281 188.834 61.4281Z" fill="black"/>
<path opacity="0.4" d="M213.79 61.4281C206.456 61.4281 201.706 56.3207 201.706 50.9982V50.3262C201.706 44.9499 206.456 39.9231 213.79 39.9231C221.151 39.9231 225.9 44.9499 225.9 50.353V51.0251C225.873 56.3207 221.123 61.4281 213.79 61.4281ZM221.984 50.4068C221.984 46.5358 219.068 43.0682 213.79 43.0682C208.512 43.0682 205.623 46.509 205.623 50.4068V50.8906C205.623 54.7616 208.512 58.283 213.79 58.283C219.068 58.283 221.984 54.7616 221.984 50.8906V50.4068Z" fill="black"/>
<path opacity="0.4" d="M249.078 60.296L235.684 47.4168L234.383 46.046V60.296H230.509V41.0547H234.218L247.196 53.9081L248.525 55.3047V41.0547H252.399V60.296H249.078Z" fill="black"/>
</g>
</svg>
