<svg width="273" height="551" viewBox="0 0 273 551" fill="none" xmlns="http://www.w3.org/2000/svg">
<rect x="6.49805" y="4" width="260.718" height="543" rx="44" fill="#F7F7F7" stroke="white" stroke-width="8"/>
<path d="M0 89.432C0 88.3274 0.895431 87.432 2 87.432H2.49804V108.13H2C0.895431 108.13 0 107.235 0 106.13V89.432Z" fill="white"/>
<path d="M0.713745 128.828C0.713745 127.843 1.51261 127.044 2.49806 127.044V127.044V168.44V168.44C1.51261 168.44 0.713745 167.642 0.713745 166.656V128.828Z" fill="white"/>
<path d="M0.713745 181.288C0.713745 180.302 1.51261 179.503 2.49806 179.503V179.503V220.9V220.9C1.51261 220.9 0.713745 220.101 0.713745 219.115V181.288Z" fill="white"/>
<path d="M273 204.841C273 205.826 272.201 206.625 271.216 206.625V206.625L271.216 140.962V140.962C272.201 140.962 273 141.761 273 142.746L273 204.841Z" fill="white"/>
<path fill-rule="evenodd" clip-rule="evenodd" d="M6.7804 55.6393C6.7804 27.4728 29.6139 4.63928 57.7804 4.63928H215.576C243.743 4.63928 266.577 27.4728 266.577 55.6393V495.718C266.577 523.884 243.743 546.718 215.577 546.718H57.7804C29.6139 546.718 6.7804 523.884 6.7804 495.718V55.6393ZM15.3451 38.2041C15.3451 24.397 26.538 13.2041 40.3451 13.2041H67.804C69.7724 13.2041 71.3685 14.7978 71.3726 16.7653V13.2041C71.3726 24.0441 80.1601 32.8317 91.0002 32.8317H182C192.828 32.8317 201.609 24.063 201.627 13.2391V16.7622C201.633 14.7961 203.229 13.2041 205.196 13.2041H233.012C246.819 13.2041 258.012 24.397 258.012 38.2041V512.796C258.012 526.603 246.819 537.796 233.012 537.796H40.3451C26.538 537.796 15.3451 526.603 15.3451 512.796V38.2041Z" fill="white"/>
<rect x="121.69" y="17.8433" width="30.3333" height="4.99611" rx="2.49806" fill="#E4E8EF"/>
<ellipse cx="163.8" cy="20.3413" rx="2.49805" ry="2.49806" fill="#E4E8EF"/>
</svg>
