<svg width="167" height="100" viewBox="0 0 167 100" fill="none" xmlns="http://www.w3.org/2000/svg">
<path d="M42.8 14.336L41.312 15.744V18H39.312V6.128H41.312V13.296L45.456 9.456H47.856L44.288 13.04L48.192 18H45.76L42.8 14.336ZM52.9645 18.112C52.1005 18.112 51.3218 17.9253 50.6285 17.552C49.9352 17.1787 49.3912 16.6613 48.9965 16C48.6125 15.328 48.4205 14.5707 48.4205 13.728C48.4205 12.8853 48.6125 12.1333 48.9965 11.472C49.3912 10.8107 49.9352 10.2933 50.6285 9.92C51.3218 9.54667 52.1005 9.36 52.9645 9.36C53.8392 9.36 54.6232 9.54667 55.3165 9.92C56.0098 10.2933 56.5485 10.8107 56.9325 11.472C57.3272 12.1333 57.5245 12.8853 57.5245 13.728C57.5245 14.5707 57.3272 15.328 56.9325 16C56.5485 16.6613 56.0098 17.1787 55.3165 17.552C54.6232 17.9253 53.8392 18.112 52.9645 18.112ZM52.9645 16.4C53.7005 16.4 54.3085 16.1547 54.7885 15.664C55.2685 15.1733 55.5085 14.528 55.5085 13.728C55.5085 12.928 55.2685 12.2827 54.7885 11.792C54.3085 11.3013 53.7005 11.056 52.9645 11.056C52.2285 11.056 51.6205 11.3013 51.1405 11.792C50.6712 12.2827 50.4365 12.928 50.4365 13.728C50.4365 14.528 50.6712 15.1733 51.1405 15.664C51.6205 16.1547 52.2285 16.4 52.9645 16.4ZM64.173 9.36C65.005 9.36 65.7463 9.54133 66.397 9.904C67.0583 10.2667 67.5757 10.7787 67.949 11.44C68.3223 12.1013 68.509 12.864 68.509 13.728C68.509 14.592 68.3223 15.36 67.949 16.032C67.5757 16.6933 67.0583 17.2053 66.397 17.568C65.7463 17.9307 65.005 18.112 64.173 18.112C63.5863 18.112 63.0477 18.0107 62.557 17.808C62.077 17.6053 61.6717 17.3013 61.341 16.896V18H59.437V6.128H61.437V10.496C61.7783 10.1227 62.1783 9.84 62.637 9.648C63.1063 9.456 63.6183 9.36 64.173 9.36ZM63.949 16.4C64.685 16.4 65.2877 16.1547 65.757 15.664C66.237 15.1733 66.477 14.528 66.477 13.728C66.477 12.928 66.237 12.2827 65.757 11.792C65.2877 11.3013 64.685 11.056 63.949 11.056C63.469 11.056 63.037 11.168 62.653 11.392C62.269 11.6053 61.965 11.9147 61.741 12.32C61.517 12.7253 61.405 13.1947 61.405 13.728C61.405 14.2613 61.517 14.7307 61.741 15.136C61.965 15.5413 62.269 15.856 62.653 16.08C63.037 16.2933 63.469 16.4 63.949 16.4ZM70.4058 6.128H72.4058V18H70.4058V6.128ZM75.0308 9.456H77.0308V18H75.0308V9.456ZM76.0388 8.048C75.6761 8.048 75.3721 7.936 75.1268 7.712C74.8814 7.47733 74.7588 7.18933 74.7588 6.848C74.7588 6.50667 74.8814 6.224 75.1268 6C75.3721 5.76533 75.6761 5.648 76.0388 5.648C76.4014 5.648 76.7054 5.76 76.9508 5.984C77.1961 6.19733 77.3188 6.46933 77.3188 6.8C77.3188 7.152 77.1961 7.45067 76.9508 7.696C76.7161 7.93067 76.4121 8.048 76.0388 8.048ZM87.6878 13.776C87.6878 13.9147 87.6771 14.112 87.6558 14.368H80.9518C81.0691 14.9973 81.3731 15.4987 81.8638 15.872C82.3651 16.2347 82.9838 16.416 83.7198 16.416C84.6584 16.416 85.4318 16.1067 86.0398 15.488L87.1118 16.72C86.7278 17.1787 86.2424 17.5253 85.6558 17.76C85.0691 17.9947 84.4078 18.112 83.6718 18.112C82.7331 18.112 81.9064 17.9253 81.1918 17.552C80.4771 17.1787 79.9224 16.6613 79.5278 16C79.1438 15.328 78.9518 14.5707 78.9518 13.728C78.9518 12.896 79.1384 12.1493 79.5118 11.488C79.8958 10.816 80.4238 10.2933 81.0958 9.92C81.7678 9.54667 82.5251 9.36 83.3678 9.36C84.1998 9.36 84.9411 9.54667 85.5918 9.92C86.2531 10.2827 86.7651 10.8 87.1278 11.472C87.5011 12.1333 87.6878 12.9013 87.6878 13.776ZM83.3678 10.96C82.7278 10.96 82.1838 11.152 81.7358 11.536C81.2984 11.9093 81.0318 12.4107 80.9358 13.04H85.7838C85.6984 12.4213 85.4371 11.92 84.9998 11.536C84.5624 11.152 84.0184 10.96 83.3678 10.96ZM90.2489 18.112C89.8862 18.112 89.5769 17.9893 89.3209 17.744C89.0649 17.488 88.9369 17.168 88.9369 16.784C88.9369 16.3893 89.0595 16.0693 89.3049 15.824C89.5609 15.5787 89.8755 15.456 90.2489 15.456C90.6222 15.456 90.9315 15.5787 91.1769 15.824C91.4329 16.0693 91.5609 16.3893 91.5609 16.784C91.5609 17.168 91.4329 17.488 91.1769 17.744C90.9209 17.9893 90.6115 18.112 90.2489 18.112ZM97.2789 18.112C96.3935 18.112 95.5989 17.9253 94.8949 17.552C94.1909 17.1787 93.6415 16.6613 93.2469 16C92.8522 15.328 92.6549 14.5707 92.6549 13.728C92.6549 12.8853 92.8522 12.1333 93.2469 11.472C93.6415 10.8107 94.1855 10.2933 94.8789 9.92C95.5829 9.54667 96.3829 9.36 97.2789 9.36C98.1215 9.36 98.8575 9.53067 99.4869 9.872C100.127 10.2133 100.607 10.704 100.927 11.344L99.3909 12.24C99.1455 11.8453 98.8362 11.552 98.4629 11.36C98.1002 11.1573 97.7002 11.056 97.2629 11.056C96.5162 11.056 95.8975 11.3013 95.4069 11.792C94.9162 12.272 94.6709 12.9173 94.6709 13.728C94.6709 14.5387 94.9109 15.1893 95.3909 15.68C95.8815 16.16 96.5055 16.4 97.2629 16.4C97.7002 16.4 98.1002 16.304 98.4629 16.112C98.8362 15.9093 99.1455 15.6107 99.3909 15.216L100.927 16.112C100.596 16.752 100.111 17.248 99.4709 17.6C98.8415 17.9413 98.1109 18.112 97.2789 18.112ZM106.371 18.112C105.507 18.112 104.728 17.9253 104.035 17.552C103.341 17.1787 102.797 16.6613 102.403 16C102.019 15.328 101.827 14.5707 101.827 13.728C101.827 12.8853 102.019 12.1333 102.403 11.472C102.797 10.8107 103.341 10.2933 104.035 9.92C104.728 9.54667 105.507 9.36 106.371 9.36C107.245 9.36 108.029 9.54667 108.723 9.92C109.416 10.2933 109.955 10.8107 110.339 11.472C110.733 12.1333 110.931 12.8853 110.931 13.728C110.931 14.5707 110.733 15.328 110.339 16C109.955 16.6613 109.416 17.1787 108.723 17.552C108.029 17.9253 107.245 18.112 106.371 18.112ZM106.371 16.4C107.107 16.4 107.715 16.1547 108.195 15.664C108.675 15.1733 108.915 14.528 108.915 13.728C108.915 12.928 108.675 12.2827 108.195 11.792C107.715 11.3013 107.107 11.056 106.371 11.056C105.635 11.056 105.027 11.3013 104.547 11.792C104.077 12.2827 103.843 12.928 103.843 13.728C103.843 14.528 104.077 15.1733 104.547 15.664C105.027 16.1547 105.635 16.4 106.371 16.4ZM123.627 9.36C124.705 9.36 125.558 9.67467 126.187 10.304C126.817 10.9227 127.131 11.856 127.131 13.104V18H125.131V13.36C125.131 12.6133 124.966 12.0533 124.635 11.68C124.305 11.296 123.83 11.104 123.211 11.104C122.539 11.104 122.001 11.328 121.595 11.776C121.19 12.2133 120.987 12.8427 120.987 13.664V18H118.987V13.36C118.987 12.6133 118.822 12.0533 118.491 11.68C118.161 11.296 117.686 11.104 117.067 11.104C116.385 11.104 115.841 11.3227 115.435 11.76C115.041 12.1973 114.843 12.832 114.843 13.664V18H112.843V9.456H114.747V10.544C115.067 10.16 115.467 9.86667 115.947 9.664C116.427 9.46133 116.961 9.36 117.547 9.36C118.187 9.36 118.753 9.48267 119.243 9.728C119.745 9.96267 120.139 10.3147 120.427 10.784C120.779 10.336 121.233 9.98933 121.787 9.744C122.342 9.488 122.955 9.36 123.627 9.36Z" fill="#222222"/>
<path d="M2.87 84.418V87.834H7.784V89.038H2.87V93H1.47V83.2H8.386V84.418H2.87ZM12.603 85.51C13.6296 85.51 14.4136 85.762 14.955 86.266C15.5056 86.77 15.781 87.5213 15.781 88.52V93H14.507V92.02C14.283 92.3653 13.961 92.6313 13.541 92.818C13.1303 92.9953 12.6403 93.084 12.071 93.084C11.2403 93.084 10.573 92.8833 10.069 92.482C9.57429 92.0807 9.32695 91.5533 9.32695 90.9C9.32695 90.2467 9.56495 89.724 10.041 89.332C10.517 88.9307 11.273 88.73 12.309 88.73H14.437V88.464C14.437 87.8853 14.269 87.442 13.933 87.134C13.597 86.826 13.1023 86.672 12.449 86.672C12.0103 86.672 11.581 86.7467 11.161 86.896C10.741 87.036 10.3863 87.2273 10.097 87.47L9.53695 86.462C9.91962 86.154 10.377 85.9207 10.909 85.762C11.441 85.594 12.0056 85.51 12.603 85.51ZM12.295 92.048C12.8083 92.048 13.2516 91.936 13.625 91.712C13.9983 91.4787 14.269 91.152 14.437 90.732V89.696H12.365C11.2263 89.696 10.657 90.0787 10.657 90.844C10.657 91.2173 10.8016 91.5113 11.091 91.726C11.3803 91.9407 11.7816 92.048 12.295 92.048ZM20.3961 93.084C19.7895 93.084 19.2061 93.0047 18.6461 92.846C18.0861 92.678 17.6475 92.468 17.3301 92.216L17.8901 91.152C18.2168 91.3853 18.6135 91.572 19.0801 91.712C19.5468 91.852 20.0181 91.922 20.4941 91.922C21.6701 91.922 22.2581 91.586 22.2581 90.914C22.2581 90.69 22.1788 90.5127 22.0201 90.382C21.8615 90.2513 21.6608 90.158 21.4181 90.102C21.1848 90.0367 20.8488 89.9667 20.4101 89.892C19.8128 89.7987 19.3228 89.6913 18.9401 89.57C18.5668 89.4487 18.2448 89.2433 17.9741 88.954C17.7035 88.6647 17.5681 88.2587 17.5681 87.736C17.5681 87.064 17.8481 86.5273 18.4081 86.126C18.9681 85.7153 19.7195 85.51 20.6621 85.51C21.1568 85.51 21.6515 85.5707 22.1461 85.692C22.6408 85.8133 23.0468 85.9767 23.3641 86.182L22.7901 87.246C22.1835 86.854 21.4695 86.658 20.6481 86.658C20.0788 86.658 19.6448 86.7513 19.3461 86.938C19.0475 87.1247 18.8981 87.372 18.8981 87.68C18.8981 87.9227 18.9821 88.114 19.1501 88.254C19.3181 88.394 19.5235 88.4967 19.7661 88.562C20.0181 88.6273 20.3681 88.702 20.8161 88.786C21.4135 88.8887 21.8941 89.0007 22.2581 89.122C22.6315 89.234 22.9488 89.43 23.2101 89.71C23.4715 89.99 23.6021 90.382 23.6021 90.886C23.6021 91.558 23.3128 92.0947 22.7341 92.496C22.1648 92.888 21.3855 93.084 20.3961 93.084ZM29.4538 92.566C29.2578 92.734 29.0151 92.8647 28.7258 92.958C28.4365 93.042 28.1378 93.084 27.8298 93.084C27.0831 93.084 26.5045 92.8833 26.0938 92.482C25.6831 92.0807 25.4778 91.5067 25.4778 90.76V86.686H24.2178V85.58H25.4778V83.956H26.8218V85.58H28.9498V86.686H26.8218V90.704C26.8218 91.1053 26.9198 91.4133 27.1158 91.628C27.3211 91.8427 27.6105 91.95 27.9838 91.95C28.3945 91.95 28.7445 91.8333 29.0338 91.6L29.4538 92.566ZM37.5545 83.634C36.7518 83.634 36.3505 84.068 36.3505 84.936V85.58H38.5065V86.686H36.3785V93H35.0345V86.686H33.7745V85.58H35.0345V84.922C35.0345 84.1847 35.2491 83.6013 35.6785 83.172C36.1078 82.7427 36.7098 82.528 37.4845 82.528C37.7831 82.528 38.0631 82.5653 38.3245 82.64C38.5858 82.7147 38.8098 82.822 38.9965 82.962L38.5905 83.984C38.2825 83.7507 37.9371 83.634 37.5545 83.634ZM42.3393 85.51C43.3659 85.51 44.1499 85.762 44.6913 86.266C45.2419 86.77 45.5173 87.5213 45.5173 88.52V93H44.2433V92.02C44.0193 92.3653 43.6973 92.6313 43.2773 92.818C42.8666 92.9953 42.3766 93.084 41.8073 93.084C40.9766 93.084 40.3093 92.8833 39.8053 92.482C39.3106 92.0807 39.0633 91.5533 39.0633 90.9C39.0633 90.2467 39.3013 89.724 39.7773 89.332C40.2533 88.9307 41.0093 88.73 42.0453 88.73H44.1733V88.464C44.1733 87.8853 44.0053 87.442 43.6693 87.134C43.3333 86.826 42.8386 86.672 42.1853 86.672C41.7466 86.672 41.3173 86.7467 40.8973 86.896C40.4773 87.036 40.1226 87.2273 39.8333 87.47L39.2733 86.462C39.6559 86.154 40.1133 85.9207 40.6453 85.762C41.1773 85.594 41.7419 85.51 42.3393 85.51ZM42.0313 92.048C42.5446 92.048 42.9879 91.936 43.3613 91.712C43.7346 91.4787 44.0053 91.152 44.1733 90.732V89.696H42.1013C40.9626 89.696 40.3933 90.0787 40.3933 90.844C40.3933 91.2173 40.5379 91.5113 40.8273 91.726C41.1166 91.9407 41.5179 92.048 42.0313 92.048ZM50.1325 93.084C49.5258 93.084 48.9425 93.0047 48.3825 92.846C47.8225 92.678 47.3838 92.468 47.0665 92.216L47.6265 91.152C47.9531 91.3853 48.3498 91.572 48.8165 91.712C49.2831 91.852 49.7545 91.922 50.2305 91.922C51.4065 91.922 51.9945 91.586 51.9945 90.914C51.9945 90.69 51.9151 90.5127 51.7565 90.382C51.5978 90.2513 51.3971 90.158 51.1545 90.102C50.9211 90.0367 50.5851 89.9667 50.1465 89.892C49.5491 89.7987 49.0591 89.6913 48.6765 89.57C48.3031 89.4487 47.9811 89.2433 47.7105 88.954C47.4398 88.6647 47.3045 88.2587 47.3045 87.736C47.3045 87.064 47.5845 86.5273 48.1445 86.126C48.7045 85.7153 49.4558 85.51 50.3985 85.51C50.8931 85.51 51.3878 85.5707 51.8825 85.692C52.3771 85.8133 52.7831 85.9767 53.1005 86.182L52.5265 87.246C51.9198 86.854 51.2058 86.658 50.3845 86.658C49.8151 86.658 49.3811 86.7513 49.0825 86.938C48.7838 87.1247 48.6345 87.372 48.6345 87.68C48.6345 87.9227 48.7185 88.114 48.8865 88.254C49.0545 88.394 49.2598 88.4967 49.5025 88.562C49.7545 88.6273 50.1045 88.702 50.5525 88.786C51.1498 88.8887 51.6305 89.0007 51.9945 89.122C52.3678 89.234 52.6851 89.43 52.9465 89.71C53.2078 89.99 53.3385 90.382 53.3385 90.886C53.3385 91.558 53.0491 92.0947 52.4705 92.496C51.9011 92.888 51.1218 93.084 50.1325 93.084ZM58.9801 85.51C59.9228 85.51 60.6695 85.7853 61.2201 86.336C61.7801 86.8773 62.0601 87.6753 62.0601 88.73V93H60.7161V88.884C60.7161 88.1653 60.5435 87.624 60.1981 87.26C59.8528 86.896 59.3581 86.714 58.7141 86.714C57.9861 86.714 57.4121 86.9287 56.9921 87.358C56.5721 87.778 56.3621 88.3847 56.3621 89.178V93H55.0181V82.612H56.3621V86.63C56.6421 86.2753 57.0061 86 57.4541 85.804C57.9115 85.608 58.4201 85.51 58.9801 85.51ZM64.5474 85.58H65.8914V93H64.5474V85.58ZM65.2194 84.152C64.9581 84.152 64.7388 84.068 64.5614 83.9C64.3934 83.732 64.3094 83.5267 64.3094 83.284C64.3094 83.0413 64.3934 82.836 64.5614 82.668C64.7388 82.4907 64.9581 82.402 65.2194 82.402C65.4808 82.402 65.6954 82.486 65.8634 82.654C66.0408 82.8127 66.1294 83.0133 66.1294 83.256C66.1294 83.508 66.0408 83.7227 65.8634 83.9C65.6954 84.068 65.4808 84.152 65.2194 84.152ZM71.6356 93.084C70.8983 93.084 70.2356 92.9207 69.6476 92.594C69.0596 92.2673 68.5976 91.8193 68.2616 91.25C67.9349 90.6713 67.7716 90.018 67.7716 89.29C67.7716 88.562 67.9349 87.9133 68.2616 87.344C68.5976 86.7653 69.0596 86.3173 69.6476 86C70.2356 85.6733 70.8983 85.51 71.6356 85.51C72.3729 85.51 73.0309 85.6733 73.6096 86C74.1976 86.3173 74.6549 86.7653 74.9816 87.344C75.3176 87.9133 75.4856 88.562 75.4856 89.29C75.4856 90.018 75.3176 90.6713 74.9816 91.25C74.6549 91.8193 74.1976 92.2673 73.6096 92.594C73.0309 92.9207 72.3729 93.084 71.6356 93.084ZM71.6356 91.908C72.1116 91.908 72.5363 91.8007 72.9096 91.586C73.2923 91.362 73.5909 91.054 73.8056 90.662C74.0203 90.2607 74.1276 89.8033 74.1276 89.29C74.1276 88.7767 74.0203 88.324 73.8056 87.932C73.5909 87.5307 73.2923 87.2227 72.9096 87.008C72.5363 86.7933 72.1116 86.686 71.6356 86.686C71.1596 86.686 70.7303 86.7933 70.3476 87.008C69.9743 87.2227 69.6756 87.5307 69.4516 87.932C69.2369 88.324 69.1296 88.7767 69.1296 89.29C69.1296 89.8033 69.2369 90.2607 69.4516 90.662C69.6756 91.054 69.9743 91.362 70.3476 91.586C70.7303 91.8007 71.1596 91.908 71.6356 91.908ZM81.3063 85.51C82.249 85.51 82.9956 85.7853 83.5463 86.336C84.1063 86.8773 84.3863 87.6753 84.3863 88.73V93H83.0423V88.884C83.0423 88.1653 82.8696 87.624 82.5243 87.26C82.179 86.896 81.6843 86.714 81.0403 86.714C80.3123 86.714 79.7383 86.9287 79.3183 87.358C78.8983 87.778 78.6883 88.3847 78.6883 89.178V93H77.3443V85.58H78.6323V86.7C78.903 86.3173 79.267 86.0233 79.7243 85.818C80.191 85.6127 80.7183 85.51 81.3063 85.51ZM93.3494 83.634C92.5467 83.634 92.1454 84.068 92.1454 84.936V85.58H94.3014V86.686H92.1734V93H90.8294V86.686H89.5694V85.58H90.8294V84.922C90.8294 84.1847 91.044 83.6013 91.4734 83.172C91.9027 82.7427 92.5047 82.528 93.2794 82.528C93.578 82.528 93.858 82.5653 94.1194 82.64C94.3807 82.7147 94.6047 82.822 94.7914 82.962L94.3854 83.984C94.0774 83.7507 93.732 83.634 93.3494 83.634ZM98.6375 93.084C97.9002 93.084 97.2375 92.9207 96.6495 92.594C96.0615 92.2673 95.5995 91.8193 95.2635 91.25C94.9369 90.6713 94.7735 90.018 94.7735 89.29C94.7735 88.562 94.9369 87.9133 95.2635 87.344C95.5995 86.7653 96.0615 86.3173 96.6495 86C97.2375 85.6733 97.9002 85.51 98.6375 85.51C99.3749 85.51 100.033 85.6733 100.612 86C101.2 86.3173 101.657 86.7653 101.984 87.344C102.32 87.9133 102.488 88.562 102.488 89.29C102.488 90.018 102.32 90.6713 101.984 91.25C101.657 91.8193 101.2 92.2673 100.612 92.594C100.033 92.9207 99.3749 93.084 98.6375 93.084ZM98.6375 91.908C99.1135 91.908 99.5382 91.8007 99.9115 91.586C100.294 91.362 100.593 91.054 100.808 90.662C101.022 90.2607 101.13 89.8033 101.13 89.29C101.13 88.7767 101.022 88.324 100.808 87.932C100.593 87.5307 100.294 87.2227 99.9115 87.008C99.5382 86.7933 99.1135 86.686 98.6375 86.686C98.1615 86.686 97.7322 86.7933 97.3495 87.008C96.9762 87.2227 96.6775 87.5307 96.4535 87.932C96.2389 88.324 96.1315 88.7767 96.1315 89.29C96.1315 89.8033 96.2389 90.2607 96.4535 90.662C96.6775 91.054 96.9762 91.362 97.3495 91.586C97.7322 91.8007 98.1615 91.908 98.6375 91.908ZM105.634 86.826C105.868 86.3967 106.213 86.07 106.67 85.846C107.128 85.622 107.683 85.51 108.336 85.51V86.812C108.262 86.8027 108.159 86.798 108.028 86.798C107.3 86.798 106.726 87.0173 106.306 87.456C105.896 87.8853 105.69 88.5013 105.69 89.304V93H104.346V85.58H105.634V86.826ZM125.076 85.58L122.304 93H121.016L118.874 87.372L116.704 93H115.416L112.658 85.58H113.932L116.088 91.488L118.328 85.58H119.462L121.66 91.516L123.872 85.58H125.076ZM129.413 93.084C128.676 93.084 128.013 92.9207 127.425 92.594C126.837 92.2673 126.375 91.8193 126.039 91.25C125.712 90.6713 125.549 90.018 125.549 89.29C125.549 88.562 125.712 87.9133 126.039 87.344C126.375 86.7653 126.837 86.3173 127.425 86C128.013 85.6733 128.676 85.51 129.413 85.51C130.15 85.51 130.808 85.6733 131.387 86C131.975 86.3173 132.432 86.7653 132.759 87.344C133.095 87.9133 133.263 88.562 133.263 89.29C133.263 90.018 133.095 90.6713 132.759 91.25C132.432 91.8193 131.975 92.2673 131.387 92.594C130.808 92.9207 130.15 93.084 129.413 93.084ZM129.413 91.908C129.889 91.908 130.314 91.8007 130.687 91.586C131.07 91.362 131.368 91.054 131.583 90.662C131.798 90.2607 131.905 89.8033 131.905 89.29C131.905 88.7767 131.798 88.324 131.583 87.932C131.368 87.5307 131.07 87.2227 130.687 87.008C130.314 86.7933 129.889 86.686 129.413 86.686C128.937 86.686 128.508 86.7933 128.125 87.008C127.752 87.2227 127.453 87.5307 127.229 87.932C127.014 88.324 126.907 88.7767 126.907 89.29C126.907 89.8033 127.014 90.2607 127.229 90.662C127.453 91.054 127.752 91.362 128.125 91.586C128.508 91.8007 128.937 91.908 129.413 91.908ZM144.404 85.51C145.337 85.51 146.074 85.7807 146.616 86.322C147.166 86.8633 147.442 87.666 147.442 88.73V93H146.098V88.884C146.098 88.1653 145.93 87.624 145.594 87.26C145.267 86.896 144.796 86.714 144.18 86.714C143.498 86.714 142.957 86.9287 142.556 87.358C142.154 87.778 141.954 88.3847 141.954 89.178V93H140.61V88.884C140.61 88.1653 140.442 87.624 140.106 87.26C139.779 86.896 139.308 86.714 138.692 86.714C138.01 86.714 137.469 86.9287 137.068 87.358C136.666 87.778 136.466 88.3847 136.466 89.178V93H135.122V85.58H136.41V86.686C136.68 86.3033 137.035 86.014 137.474 85.818C137.912 85.6127 138.412 85.51 138.972 85.51C139.55 85.51 140.064 85.6267 140.512 85.86C140.96 86.0933 141.305 86.434 141.548 86.882C141.828 86.4527 142.215 86.1167 142.71 85.874C143.214 85.6313 143.778 85.51 144.404 85.51ZM156.662 89.332C156.662 89.4347 156.652 89.57 156.634 89.738H150.614C150.698 90.3913 150.982 90.9187 151.468 91.32C151.962 91.712 152.574 91.908 153.302 91.908C154.188 91.908 154.902 91.6093 155.444 91.012L156.186 91.88C155.85 92.272 155.43 92.5707 154.926 92.776C154.431 92.9813 153.876 93.084 153.26 93.084C152.476 93.084 151.78 92.9253 151.174 92.608C150.567 92.2813 150.096 91.8287 149.76 91.25C149.433 90.6713 149.27 90.018 149.27 89.29C149.27 88.5713 149.428 87.9227 149.746 87.344C150.072 86.7653 150.516 86.3173 151.076 86C151.645 85.6733 152.284 85.51 152.994 85.51C153.703 85.51 154.333 85.6733 154.884 86C155.444 86.3173 155.878 86.7653 156.186 87.344C156.503 87.9227 156.662 88.5853 156.662 89.332ZM152.994 86.644C152.35 86.644 151.808 86.84 151.37 87.232C150.94 87.624 150.688 88.1373 150.614 88.772H155.374C155.299 88.1467 155.042 87.638 154.604 87.246C154.174 86.8447 153.638 86.644 152.994 86.644ZM162.49 85.51C163.433 85.51 164.179 85.7853 164.73 86.336C165.29 86.8773 165.57 87.6753 165.57 88.73V93H164.226V88.884C164.226 88.1653 164.053 87.624 163.708 87.26C163.363 86.896 162.868 86.714 162.224 86.714C161.496 86.714 160.922 86.9287 160.502 87.358C160.082 87.778 159.872 88.3847 159.872 89.178V93H158.528V85.58H159.816V86.7C160.087 86.3173 160.451 86.0233 160.908 85.818C161.375 85.6127 161.902 85.51 162.49 85.51Z" fill="#C4C4C4"/>
<rect x="26.4636" y="70.9006" width="27.3893" height="27.3893" rx="13.6947" transform="rotate(-100.809 26.4636 70.9006)" fill="#1A78FD"/>
<path d="M68.1631 62H63.799L59.4657 53.7021L57.9905 55.1158V62H53.9952V41.6854L57.9905 39.8107V50.5673L62.2009 46.2954H66.9953L62.3853 50.8439L68.1631 62ZM81.313 60.1867C80.0222 61.6414 78.2602 62.3688 76.0269 62.3688C73.7937 62.3688 72.0316 61.6414 70.7409 60.1867C69.4501 58.732 68.8047 56.7242 68.8047 54.1631C68.8047 51.6225 69.4501 49.6146 70.7409 48.1394C72.0521 46.6642 73.8142 45.9266 76.0269 45.9266C78.2397 45.9266 79.9915 46.6642 81.2823 48.1394C82.5936 49.6146 83.2492 51.6225 83.2492 54.1631C83.2492 56.7242 82.6038 58.732 81.313 60.1867ZM76.0269 58.5272C77.0309 58.5272 77.8197 58.1481 78.3934 57.39C78.9671 56.6115 79.2539 55.5358 79.2539 54.1631C79.2539 52.7903 78.9671 51.7147 78.3934 50.9361C77.8197 50.1575 77.0309 49.7682 76.0269 49.7682C75.0435 49.7682 74.2547 50.1678 73.6605 50.9668C73.0868 51.7454 72.8 52.8108 72.8 54.1631C72.8 55.5153 73.0868 56.5807 73.6605 57.3593C74.2547 58.1379 75.0435 58.5272 76.0269 58.5272ZM93.0627 62.3688C91.649 62.3688 90.5835 61.8668 89.8664 60.8629V62H85.8711V41.624L89.8664 39.8107V47.4325C90.6655 46.4286 91.7821 45.9266 93.2163 45.9266C95.1218 45.9266 96.6789 46.6744 97.8878 48.1701C99.1171 49.6453 99.7318 51.6327 99.7318 54.1323C99.7318 56.7549 99.1376 58.7833 97.9492 60.2175C96.7609 61.6517 95.132 62.3688 93.0627 62.3688ZM92.6017 58.5272C93.6056 58.5272 94.374 58.1379 94.9067 57.3593C95.4599 56.5807 95.7365 55.5051 95.7365 54.1323C95.7365 52.7186 95.4599 51.643 94.9067 50.9054C94.374 50.1473 93.6056 49.7682 92.6017 49.7682C91.3724 49.7682 90.4606 50.1985 89.8664 51.059V57.2671C90.4606 58.1071 91.3724 58.5272 92.6017 58.5272ZM102.503 62V41.6854L106.498 39.8107V62H102.503ZM112.062 44.4514C111.427 44.4514 110.874 44.226 110.403 43.7753C109.952 43.304 109.726 42.7508 109.726 42.1157C109.726 41.4805 109.952 40.9376 110.403 40.4868C110.853 40.0361 111.407 39.8107 112.062 39.8107C112.718 39.8107 113.271 40.0361 113.722 40.4868C114.173 40.9171 114.398 41.4601 114.398 42.1157C114.398 42.7713 114.173 43.3245 113.722 43.7753C113.271 44.226 112.718 44.4514 112.062 44.4514ZM110.065 62V46.2954H114.06V62H110.065ZM124.055 62.3688C121.781 62.3688 119.988 61.6414 118.677 60.1867C117.365 58.732 116.71 56.7139 116.71 54.1323C116.71 51.6122 117.365 49.6146 118.677 48.1394C120.009 46.6642 121.801 45.9266 124.055 45.9266C126.104 45.9266 127.774 46.5617 129.065 47.832C130.355 49.0819 131.001 50.9156 131.001 53.3333C131.001 54.3372 130.96 55.126 130.878 55.6997H120.644C120.726 56.6832 121.084 57.4617 121.719 58.0354C122.375 58.5886 123.154 58.8652 124.055 58.8652C125.448 58.8652 126.575 58.3223 127.436 57.2364L129.894 59.7258C128.44 61.4878 126.493 62.3688 124.055 62.3688ZM120.674 52.3191H127.098C126.975 51.4176 126.637 50.7107 126.083 50.1985C125.551 49.6863 124.875 49.4302 124.055 49.4302C122.047 49.4302 120.92 50.3931 120.674 52.3191Z" fill="url(#paint0_linear_1_3670)"/>
<path d="M18.9999 64.0127L39.5706 36.3236L36.1906 47.489L51.0481 50.9268L34.5741 52.829L35.0199 68.8622L29.8533 56.1694L18.9999 64.0127Z" stroke="white" stroke-width="1.29762"/>
<defs>
<linearGradient id="paint0_linear_1_3670" x1="54.2262" y1="56.911" x2="148.06" y2="57.9254" gradientUnits="userSpaceOnUse">
<stop stop-color="#1A78FD"/>
<stop offset="1" stop-color="#9340FA"/>
</linearGradient>
</defs>
</svg>
