<svg width="129" height="40" viewBox="0 0 129 40" fill="none" xmlns="http://www.w3.org/2000/svg">
<path d="M21.6645 22.4996V29.1804H17.3004V22.4457L10 10.3233H14.6335L19.671 18.7012L24.7086 10.3233H28.9918L21.6645 22.4996ZM44.5223 29.5037C42.5647 29.5037 40.7957 29.0816 39.2153 28.2376C37.6529 27.3935 36.4227 26.2351 35.5247 24.7624C34.6447 23.2718 34.2047 21.6016 34.2047 19.7518C34.2047 17.902 34.6447 16.2408 35.5247 14.7682C36.4227 13.2776 37.6529 12.1102 39.2153 11.2661C40.7957 10.422 42.5647 10 44.5223 10C46.4798 10 48.2398 10.422 49.8023 11.2661C51.3647 12.1102 52.5949 13.2776 53.4929 14.7682C54.3908 16.2408 54.8398 17.902 54.8398 19.7518C54.8398 21.6016 54.3908 23.2718 53.4929 24.7624C52.5949 26.2351 51.3647 27.3935 49.8023 28.2376C48.2398 29.0816 46.4798 29.5037 44.5223 29.5037ZM44.5223 25.7861C45.6357 25.7861 46.6415 25.5347 47.5394 25.0318C48.4374 24.511 49.1378 23.7927 49.6406 22.8767C50.1614 21.9608 50.4219 20.9192 50.4219 19.7518C50.4219 18.5845 50.1614 17.5429 49.6406 16.6269C49.1378 15.711 48.4374 15.0016 47.5394 14.4988C46.6415 13.978 45.6357 13.7176 44.5223 13.7176C43.4088 13.7176 42.4031 13.978 41.5051 14.4988C40.6072 15.0016 39.8978 15.711 39.377 16.6269C38.8741 17.5429 38.6227 18.5845 38.6227 19.7518C38.6227 20.9192 38.8741 21.9608 39.377 22.8767C39.8978 23.7927 40.6072 24.511 41.5051 25.0318C42.4031 25.5347 43.4088 25.7861 44.5223 25.7861ZM63.5074 10.3233H72.0737C74.121 10.3233 75.9259 10.7184 77.4884 11.5086C79.0688 12.2808 80.29 13.3763 81.152 14.7951C82.032 16.2139 82.472 17.8661 82.472 19.7518C82.472 21.6376 82.032 23.2898 81.152 24.7086C80.29 26.1273 79.0688 27.2318 77.4884 28.022C75.9259 28.7943 74.121 29.1804 72.0737 29.1804H63.5074V10.3233ZM71.8582 25.5976C73.7439 25.5976 75.2435 25.0767 76.3569 24.0351C77.4884 22.9755 78.0541 21.5478 78.0541 19.7518C78.0541 17.9559 77.4884 16.5371 76.3569 15.4955C75.2435 14.4359 73.7439 13.9061 71.8582 13.9061H67.8712V25.5976H71.8582ZM97.3473 29.5037C95.8567 29.5037 94.411 29.3061 93.0102 28.911C91.6273 28.498 90.5138 27.9682 89.6698 27.3216L91.1514 24.0351C91.9595 24.6278 92.9204 25.1037 94.0338 25.4629C95.1473 25.822 96.2608 26.0016 97.3742 26.0016C98.6134 26.0016 99.5293 25.822 100.122 25.4629C100.715 25.0857 101.011 24.5918 101.011 23.9812C101.011 23.5322 100.831 23.1641 100.472 22.8767C100.131 22.5714 99.682 22.329 99.1253 22.1494C98.5865 21.9698 97.8502 21.7722 96.9163 21.5567C95.4795 21.2155 94.3032 20.8743 93.3873 20.5331C92.4714 20.1918 91.6812 19.6441 91.0167 18.8898C90.3702 18.1355 90.0469 17.1298 90.0469 15.8727C90.0469 14.7771 90.3432 13.7894 90.9359 12.9094C91.5285 12.0114 92.4175 11.302 93.6028 10.7812C94.8061 10.2604 96.2698 10 97.9938 10C99.1971 10 100.373 10.1437 101.523 10.431C102.672 10.7184 103.678 11.1314 104.54 11.6702L103.193 14.9837C101.451 13.9959 99.7089 13.502 97.9669 13.502C96.7457 13.502 95.8387 13.6996 95.2461 14.0947C94.6714 14.4898 94.384 15.0106 94.384 15.6571C94.384 16.3037 94.7163 16.7886 95.3808 17.1118C96.0632 17.4171 97.0959 17.7224 98.4787 18.0278C99.9155 18.369 101.092 18.7102 102.008 19.0514C102.924 19.3927 103.705 19.9314 104.351 20.6678C105.016 21.4041 105.348 22.4008 105.348 23.658C105.348 24.7355 105.043 25.7233 104.432 26.6212C103.84 27.5012 102.942 28.2016 101.738 28.7224C100.535 29.2433 99.0714 29.5037 97.3473 29.5037ZM113.718 10.3233H118.082V29.1804H113.718V10.3233Z" fill="white"/>
</svg>
