<svg width="186" height="103" viewBox="0 0 186 103" fill="none" xmlns="http://www.w3.org/2000/svg">
<path d="M52.16 9.36C53.2373 9.36 54.1013 9.67467 54.752 10.304C55.4027 10.9333 55.728 11.8667 55.728 13.104V18H53.728V13.36C53.728 12.6133 53.552 12.0533 53.2 11.68C52.848 11.296 52.3467 11.104 51.696 11.104C50.96 11.104 50.3787 11.328 49.952 11.776C49.5253 12.2133 49.312 12.848 49.312 13.68V18H47.312V9.456H49.216V10.56C49.5467 10.1653 49.9627 9.86667 50.464 9.664C50.9653 9.46133 51.5307 9.36 52.16 9.36ZM66.5371 9.456V18H64.6331V16.912C64.3131 17.296 63.9131 17.5947 63.4331 17.808C62.9531 18.0107 62.4358 18.112 61.8811 18.112C60.7398 18.112 59.8385 17.7973 59.1771 17.168C58.5265 16.528 58.2011 15.584 58.2011 14.336V9.456H60.2011V14.064C60.2011 14.832 60.3718 15.408 60.7131 15.792C61.0651 16.1653 61.5611 16.352 62.2011 16.352C62.9158 16.352 63.4811 16.1333 63.8971 15.696C64.3238 15.248 64.5371 14.608 64.5371 13.776V9.456H66.5371ZM79.9398 9.36C81.0171 9.36 81.8704 9.67467 82.4998 10.304C83.1291 10.9227 83.4438 11.856 83.4438 13.104V18H81.4438V13.36C81.4438 12.6133 81.2784 12.0533 80.9478 11.68C80.6171 11.296 80.1424 11.104 79.5238 11.104C78.8518 11.104 78.3131 11.328 77.9078 11.776C77.5024 12.2133 77.2998 12.8427 77.2998 13.664V18H75.2998V13.36C75.2998 12.6133 75.1344 12.0533 74.8038 11.68C74.4731 11.296 73.9984 11.104 73.3798 11.104C72.6971 11.104 72.1531 11.3227 71.7478 11.76C71.3531 12.1973 71.1558 12.832 71.1558 13.664V18H69.1558V9.456H71.0598V10.544C71.3798 10.16 71.7798 9.86667 72.2598 9.664C72.7398 9.46133 73.2731 9.36 73.8598 9.36C74.4998 9.36 75.0651 9.48267 75.5558 9.728C76.0571 9.96267 76.4518 10.3147 76.7398 10.784C77.0918 10.336 77.5451 9.98933 78.0998 9.744C78.6544 9.488 79.2678 9.36 79.9398 9.36ZM85.9995 9.456H87.9995V18H85.9995V9.456ZM87.0075 8.048C86.6448 8.048 86.3408 7.936 86.0955 7.712C85.8502 7.47733 85.7275 7.18933 85.7275 6.848C85.7275 6.50667 85.8502 6.224 86.0955 6C86.3408 5.76533 86.6448 5.648 87.0075 5.648C87.3702 5.648 87.6742 5.76 87.9195 5.984C88.1648 6.19733 88.2875 6.46933 88.2875 6.8C88.2875 7.152 88.1648 7.45067 87.9195 7.696C87.6848 7.93067 87.3808 8.048 87.0075 8.048ZM95.4725 9.36C96.5498 9.36 97.4138 9.67467 98.0645 10.304C98.7152 10.9333 99.0405 11.8667 99.0405 13.104V18H97.0405V13.36C97.0405 12.6133 96.8645 12.0533 96.5125 11.68C96.1605 11.296 95.6592 11.104 95.0085 11.104C94.2725 11.104 93.6912 11.328 93.2645 11.776C92.8378 12.2133 92.6245 12.848 92.6245 13.68V18H90.6245V9.456H92.5285V10.56C92.8592 10.1653 93.2752 9.86667 93.7765 9.664C94.2778 9.46133 94.8432 9.36 95.4725 9.36ZM102.218 18.112C101.855 18.112 101.546 17.9893 101.29 17.744C101.034 17.488 100.906 17.168 100.906 16.784C100.906 16.3893 101.028 16.0693 101.274 15.824C101.53 15.5787 101.844 15.456 102.218 15.456C102.591 15.456 102.9 15.5787 103.146 15.824C103.402 16.0693 103.53 16.3893 103.53 16.784C103.53 17.168 103.402 17.488 103.146 17.744C102.89 17.9893 102.58 18.112 102.218 18.112ZM109.248 18.112C108.362 18.112 107.568 17.9253 106.864 17.552C106.16 17.1787 105.61 16.6613 105.216 16C104.821 15.328 104.624 14.5707 104.624 13.728C104.624 12.8853 104.821 12.1333 105.216 11.472C105.61 10.8107 106.154 10.2933 106.848 9.92C107.552 9.54667 108.352 9.36 109.248 9.36C110.09 9.36 110.826 9.53067 111.456 9.872C112.096 10.2133 112.576 10.704 112.896 11.344L111.36 12.24C111.114 11.8453 110.805 11.552 110.432 11.36C110.069 11.1573 109.669 11.056 109.232 11.056C108.485 11.056 107.866 11.3013 107.376 11.792C106.885 12.272 106.64 12.9173 106.64 13.728C106.64 14.5387 106.88 15.1893 107.36 15.68C107.85 16.16 108.474 16.4 109.232 16.4C109.669 16.4 110.069 16.304 110.432 16.112C110.805 15.9093 111.114 15.6107 111.36 15.216L112.896 16.112C112.565 16.752 112.08 17.248 111.44 17.6C110.81 17.9413 110.08 18.112 109.248 18.112ZM118.34 18.112C117.476 18.112 116.697 17.9253 116.004 17.552C115.31 17.1787 114.766 16.6613 114.372 16C113.988 15.328 113.796 14.5707 113.796 13.728C113.796 12.8853 113.988 12.1333 114.372 11.472C114.766 10.8107 115.31 10.2933 116.004 9.92C116.697 9.54667 117.476 9.36 118.34 9.36C119.214 9.36 119.998 9.54667 120.692 9.92C121.385 10.2933 121.924 10.8107 122.308 11.472C122.702 12.1333 122.9 12.8853 122.9 13.728C122.9 14.5707 122.702 15.328 122.308 16C121.924 16.6613 121.385 17.1787 120.692 17.552C119.998 17.9253 119.214 18.112 118.34 18.112ZM118.34 16.4C119.076 16.4 119.684 16.1547 120.164 15.664C120.644 15.1733 120.884 14.528 120.884 13.728C120.884 12.928 120.644 12.2827 120.164 11.792C119.684 11.3013 119.076 11.056 118.34 11.056C117.604 11.056 116.996 11.3013 116.516 11.792C116.046 12.2827 115.812 12.928 115.812 13.728C115.812 14.528 116.046 15.1733 116.516 15.664C116.996 16.1547 117.604 16.4 118.34 16.4ZM135.596 9.36C136.673 9.36 137.527 9.67467 138.156 10.304C138.785 10.9227 139.1 11.856 139.1 13.104V18H137.1V13.36C137.1 12.6133 136.935 12.0533 136.604 11.68C136.273 11.296 135.799 11.104 135.18 11.104C134.508 11.104 133.969 11.328 133.564 11.776C133.159 12.2133 132.956 12.8427 132.956 13.664V18H130.956V13.36C130.956 12.6133 130.791 12.0533 130.46 11.68C130.129 11.296 129.655 11.104 129.036 11.104C128.353 11.104 127.809 11.3227 127.404 11.76C127.009 12.1973 126.812 12.832 126.812 13.664V18H124.812V9.456H126.716V10.544C127.036 10.16 127.436 9.86667 127.916 9.664C128.396 9.46133 128.929 9.36 129.516 9.36C130.156 9.36 130.721 9.48267 131.212 9.728C131.713 9.96267 132.108 10.3147 132.396 10.784C132.748 10.336 133.201 9.98933 133.756 9.744C134.311 9.488 134.924 9.36 135.596 9.36Z" fill="#222222"/>
<path d="M29.976 88.51C31.0027 88.51 31.7867 88.762 32.328 89.266C32.8787 89.77 33.154 90.5213 33.154 91.52V96H31.88V95.02C31.656 95.3653 31.334 95.6313 30.914 95.818C30.5033 95.9953 30.0133 96.084 29.444 96.084C28.6133 96.084 27.946 95.8833 27.442 95.482C26.9473 95.0807 26.7 94.5533 26.7 93.9C26.7 93.2467 26.938 92.724 27.414 92.332C27.89 91.9307 28.646 91.73 29.682 91.73H31.81V91.464C31.81 90.8853 31.642 90.442 31.306 90.134C30.97 89.826 30.4753 89.672 29.822 89.672C29.3833 89.672 28.954 89.7467 28.534 89.896C28.114 90.036 27.7593 90.2273 27.47 90.47L26.91 89.462C27.2927 89.154 27.75 88.9207 28.282 88.762C28.814 88.594 29.3787 88.51 29.976 88.51ZM29.668 95.048C30.1813 95.048 30.6247 94.936 30.998 94.712C31.3713 94.4787 31.642 94.152 31.81 93.732V92.696H29.738C28.5993 92.696 28.03 93.0787 28.03 93.844C28.03 94.2173 28.1747 94.5113 28.464 94.726C28.7533 94.9407 29.1547 95.048 29.668 95.048ZM35.6412 88.58H36.9852V96H35.6412V88.58ZM36.3132 87.152C36.0519 87.152 35.8325 87.068 35.6552 86.9C35.4872 86.732 35.4032 86.5267 35.4032 86.284C35.4032 86.0413 35.4872 85.836 35.6552 85.668C35.8325 85.4907 36.0519 85.402 36.3132 85.402C36.5745 85.402 36.7892 85.486 36.9572 85.654C37.1345 85.8127 37.2232 86.0133 37.2232 86.256C37.2232 86.508 37.1345 86.7227 36.9572 86.9C36.7892 87.068 36.5745 87.152 36.3132 87.152ZM46.0271 86.634C45.2244 86.634 44.8231 87.068 44.8231 87.936V88.58H46.9791V89.686H44.8511V96H43.5071V89.686H42.2471V88.58H43.5071V87.922C43.5071 87.1847 43.7218 86.6013 44.1511 86.172C44.5804 85.7427 45.1824 85.528 45.9571 85.528C46.2558 85.528 46.5358 85.5653 46.7971 85.64C47.0584 85.7147 47.2824 85.822 47.4691 85.962L47.0631 86.984C46.7551 86.7507 46.4098 86.634 46.0271 86.634ZM51.3153 96.084C50.5779 96.084 49.9153 95.9207 49.3273 95.594C48.7393 95.2673 48.2773 94.8193 47.9413 94.25C47.6146 93.6713 47.4513 93.018 47.4513 92.29C47.4513 91.562 47.6146 90.9133 47.9413 90.344C48.2773 89.7653 48.7393 89.3173 49.3273 89C49.9153 88.6733 50.5779 88.51 51.3153 88.51C52.0526 88.51 52.7106 88.6733 53.2893 89C53.8773 89.3173 54.3346 89.7653 54.6613 90.344C54.9973 90.9133 55.1653 91.562 55.1653 92.29C55.1653 93.018 54.9973 93.6713 54.6613 94.25C54.3346 94.8193 53.8773 95.2673 53.2893 95.594C52.7106 95.9207 52.0526 96.084 51.3153 96.084ZM51.3153 94.908C51.7913 94.908 52.2159 94.8007 52.5893 94.586C52.9719 94.362 53.2706 94.054 53.4853 93.662C53.6999 93.2607 53.8073 92.8033 53.8073 92.29C53.8073 91.7767 53.6999 91.324 53.4853 90.932C53.2706 90.5307 52.9719 90.2227 52.5893 90.008C52.2159 89.7933 51.7913 89.686 51.3153 89.686C50.8393 89.686 50.4099 89.7933 50.0273 90.008C49.6539 90.2227 49.3553 90.5307 49.1313 90.932C48.9166 91.324 48.8093 91.7767 48.8093 92.29C48.8093 92.8033 48.9166 93.2607 49.1313 93.662C49.3553 94.054 49.6539 94.362 50.0273 94.586C50.4099 94.8007 50.8393 94.908 51.3153 94.908ZM58.312 89.826C58.5453 89.3967 58.8907 89.07 59.348 88.846C59.8053 88.622 60.3607 88.51 61.014 88.51V89.812C60.9393 89.8027 60.8367 89.798 60.706 89.798C59.978 89.798 59.404 90.0173 58.984 90.456C58.5733 90.8853 58.368 91.5013 58.368 92.304V96H57.024V88.58H58.312V89.826ZM68.654 96.084C68.0473 96.084 67.464 96.0047 66.904 95.846C66.344 95.678 65.9053 95.468 65.588 95.216L66.148 94.152C66.4746 94.3853 66.8713 94.572 67.338 94.712C67.8046 94.852 68.276 94.922 68.752 94.922C69.928 94.922 70.516 94.586 70.516 93.914C70.516 93.69 70.4366 93.5127 70.278 93.382C70.1193 93.2513 69.9186 93.158 69.676 93.102C69.4426 93.0367 69.1066 92.9667 68.668 92.892C68.0706 92.7987 67.5806 92.6913 67.198 92.57C66.8246 92.4487 66.5026 92.2433 66.232 91.954C65.9613 91.6647 65.826 91.2587 65.826 90.736C65.826 90.064 66.106 89.5273 66.666 89.126C67.226 88.7153 67.9773 88.51 68.92 88.51C69.4146 88.51 69.9093 88.5707 70.404 88.692C70.8986 88.8133 71.3046 88.9767 71.622 89.182L71.048 90.246C70.4413 89.854 69.7273 89.658 68.906 89.658C68.3366 89.658 67.9026 89.7513 67.604 89.938C67.3053 90.1247 67.156 90.372 67.156 90.68C67.156 90.9227 67.24 91.114 67.408 91.254C67.576 91.394 67.7813 91.4967 68.024 91.562C68.276 91.6273 68.626 91.702 69.074 91.786C69.6713 91.8887 70.152 92.0007 70.516 92.122C70.8893 92.234 71.2066 92.43 71.468 92.71C71.7293 92.99 71.86 93.382 71.86 93.886C71.86 94.558 71.5706 95.0947 70.992 95.496C70.4226 95.888 69.6433 96.084 68.654 96.084ZM77.7116 95.566C77.5156 95.734 77.273 95.8647 76.9836 95.958C76.6943 96.042 76.3956 96.084 76.0876 96.084C75.341 96.084 74.7623 95.8833 74.3516 95.482C73.941 95.0807 73.7356 94.5067 73.7356 93.76V89.686H72.4756V88.58H73.7356V86.956H75.0796V88.58H77.2076V89.686H75.0796V93.704C75.0796 94.1053 75.1776 94.4133 75.3736 94.628C75.579 94.8427 75.8683 94.95 76.2416 94.95C76.6523 94.95 77.0023 94.8333 77.2916 94.6L77.7116 95.566ZM82.2684 96.084C81.5311 96.084 80.8684 95.9207 80.2804 95.594C79.6924 95.2673 79.2304 94.8193 78.8944 94.25C78.5677 93.6713 78.4044 93.018 78.4044 92.29C78.4044 91.562 78.5677 90.9133 78.8944 90.344C79.2304 89.7653 79.6924 89.3173 80.2804 89C80.8684 88.6733 81.5311 88.51 82.2684 88.51C83.0057 88.51 83.6637 88.6733 84.2424 89C84.8304 89.3173 85.2877 89.7653 85.6144 90.344C85.9504 90.9133 86.1184 91.562 86.1184 92.29C86.1184 93.018 85.9504 93.6713 85.6144 94.25C85.2877 94.8193 84.8304 95.2673 84.2424 95.594C83.6637 95.9207 83.0057 96.084 82.2684 96.084ZM82.2684 94.908C82.7444 94.908 83.1691 94.8007 83.5424 94.586C83.9251 94.362 84.2237 94.054 84.4384 93.662C84.6531 93.2607 84.7604 92.8033 84.7604 92.29C84.7604 91.7767 84.6531 91.324 84.4384 90.932C84.2237 90.5307 83.9251 90.2227 83.5424 90.008C83.1691 89.7933 82.7444 89.686 82.2684 89.686C81.7924 89.686 81.3631 89.7933 80.9804 90.008C80.6071 90.2227 80.3084 90.5307 80.0844 90.932C79.8697 91.324 79.7624 91.7767 79.7624 92.29C79.7624 92.8033 79.8697 93.2607 80.0844 93.662C80.3084 94.054 80.6071 94.362 80.9804 94.586C81.3631 94.8007 81.7924 94.908 82.2684 94.908ZM91.2111 96.084C90.4551 96.084 89.7785 95.9207 89.1811 95.594C88.5931 95.2673 88.1311 94.8193 87.7951 94.25C87.4591 93.6713 87.2911 93.018 87.2911 92.29C87.2911 91.562 87.4591 90.9133 87.7951 90.344C88.1311 89.7653 88.5931 89.3173 89.1811 89C89.7785 88.6733 90.4551 88.51 91.2111 88.51C91.8831 88.51 92.4805 88.6453 93.0031 88.916C93.5351 89.1867 93.9458 89.5787 94.2351 90.092L93.2131 90.75C92.9798 90.3953 92.6905 90.1293 92.3451 89.952C91.9998 89.7747 91.6171 89.686 91.1971 89.686C90.7118 89.686 90.2731 89.7933 89.8811 90.008C89.4985 90.2227 89.1951 90.5307 88.9711 90.932C88.7565 91.324 88.6491 91.7767 88.6491 92.29C88.6491 92.8127 88.7565 93.2747 88.9711 93.676C89.1951 94.068 89.4985 94.3713 89.8811 94.586C90.2731 94.8007 90.7118 94.908 91.1971 94.908C91.6171 94.908 91.9998 94.8193 92.3451 94.642C92.6905 94.4647 92.9798 94.1987 93.2131 93.844L94.2351 94.488C93.9458 95.0013 93.5351 95.398 93.0031 95.678C92.4805 95.9487 91.8831 96.084 91.2111 96.084ZM98.7635 92.542L97.2235 93.97V96H95.8795V85.612H97.2235V92.276L101.269 88.58H102.893L99.7715 91.646L103.201 96H101.549L98.7635 92.542ZM112.438 95.566C112.242 95.734 112 95.8647 111.71 95.958C111.421 96.042 111.122 96.084 110.814 96.084C110.068 96.084 109.489 95.8833 109.078 95.482C108.668 95.0807 108.462 94.5067 108.462 93.76V89.686H107.202V88.58H108.462V86.956H109.806V88.58H111.934V89.686H109.806V93.704C109.806 94.1053 109.904 94.4133 110.1 94.628C110.306 94.8427 110.595 94.95 110.968 94.95C111.379 94.95 111.729 94.8333 112.018 94.6L112.438 95.566ZM115.351 89.826C115.584 89.3967 115.93 89.07 116.387 88.846C116.844 88.622 117.4 88.51 118.053 88.51V89.812C117.978 89.8027 117.876 89.798 117.745 89.798C117.017 89.798 116.443 90.0173 116.023 90.456C115.612 90.8853 115.407 91.5013 115.407 92.304V96H114.063V88.58H115.351V89.826ZM122.398 88.51C123.425 88.51 124.209 88.762 124.75 89.266C125.301 89.77 125.576 90.5213 125.576 91.52V96H124.302V95.02C124.078 95.3653 123.756 95.6313 123.336 95.818C122.925 95.9953 122.435 96.084 121.866 96.084C121.035 96.084 120.368 95.8833 119.864 95.482C119.369 95.0807 119.122 94.5533 119.122 93.9C119.122 93.2467 119.36 92.724 119.836 92.332C120.312 91.9307 121.068 91.73 122.104 91.73H124.232V91.464C124.232 90.8853 124.064 90.442 123.728 90.134C123.392 89.826 122.897 89.672 122.244 89.672C121.805 89.672 121.376 89.7467 120.956 89.896C120.536 90.036 120.181 90.2273 119.892 90.47L119.332 89.462C119.715 89.154 120.172 88.9207 120.704 88.762C121.236 88.594 121.801 88.51 122.398 88.51ZM122.09 95.048C122.603 95.048 123.047 94.936 123.42 94.712C123.793 94.4787 124.064 94.152 124.232 93.732V92.696H122.16C121.021 92.696 120.452 93.0787 120.452 93.844C120.452 94.2173 120.597 94.5113 120.886 94.726C121.175 94.9407 121.577 95.048 122.09 95.048ZM135.104 85.612V96H133.816V94.824C133.517 95.2347 133.139 95.5473 132.682 95.762C132.225 95.9767 131.721 96.084 131.17 96.084C130.451 96.084 129.807 95.9253 129.238 95.608C128.669 95.2907 128.221 94.8473 127.894 94.278C127.577 93.6993 127.418 93.0367 127.418 92.29C127.418 91.5433 127.577 90.8853 127.894 90.316C128.221 89.7467 128.669 89.3033 129.238 88.986C129.807 88.6687 130.451 88.51 131.17 88.51C131.702 88.51 132.192 88.6127 132.64 88.818C133.088 89.014 133.461 89.308 133.76 89.7V85.612H135.104ZM131.282 94.908C131.749 94.908 132.173 94.8007 132.556 94.586C132.939 94.362 133.237 94.054 133.452 93.662C133.667 93.2607 133.774 92.8033 133.774 92.29C133.774 91.7767 133.667 91.324 133.452 90.932C133.237 90.5307 132.939 90.2227 132.556 90.008C132.173 89.7933 131.749 89.686 131.282 89.686C130.806 89.686 130.377 89.7933 129.994 90.008C129.621 90.2227 129.322 90.5307 129.098 90.932C128.883 91.324 128.776 91.7767 128.776 92.29C128.776 92.8033 128.883 93.2607 129.098 93.662C129.322 94.054 129.621 94.362 129.994 94.586C130.377 94.8007 130.806 94.908 131.282 94.908ZM137.647 88.58H138.991V96H137.647V88.58ZM138.319 87.152C138.058 87.152 137.838 87.068 137.661 86.9C137.493 86.732 137.409 86.5267 137.409 86.284C137.409 86.0413 137.493 85.836 137.661 85.668C137.838 85.4907 138.058 85.402 138.319 85.402C138.58 85.402 138.795 85.486 138.963 85.654C139.14 85.8127 139.229 86.0133 139.229 86.256C139.229 86.508 139.14 86.7227 138.963 86.9C138.795 87.068 138.58 87.152 138.319 87.152ZM145.519 88.51C146.462 88.51 147.209 88.7853 147.759 89.336C148.319 89.8773 148.599 90.6753 148.599 91.73V96H147.255V91.884C147.255 91.1653 147.083 90.624 146.737 90.26C146.392 89.896 145.897 89.714 145.253 89.714C144.525 89.714 143.951 89.9287 143.531 90.358C143.111 90.778 142.901 91.3847 142.901 92.178V96H141.557V88.58H142.845V89.7C143.116 89.3173 143.48 89.0233 143.937 88.818C144.404 88.6127 144.931 88.51 145.519 88.51ZM158.226 88.58V94.992C158.226 96.2893 157.904 97.246 157.26 97.862C156.616 98.4873 155.654 98.8 154.376 98.8C153.676 98.8 153.008 98.702 152.374 98.506C151.739 98.3193 151.226 98.0487 150.834 97.694L151.478 96.658C151.823 96.9567 152.248 97.19 152.752 97.358C153.265 97.5353 153.792 97.624 154.334 97.624C155.202 97.624 155.841 97.4187 156.252 97.008C156.672 96.5973 156.882 95.972 156.882 95.132V94.544C156.564 94.9267 156.172 95.216 155.706 95.412C155.248 95.5987 154.749 95.692 154.208 95.692C153.498 95.692 152.854 95.5427 152.276 95.244C151.706 94.936 151.258 94.5113 150.932 93.97C150.605 93.4193 150.442 92.794 150.442 92.094C150.442 91.394 150.605 90.7733 150.932 90.232C151.258 89.6813 151.706 89.2567 152.276 88.958C152.854 88.6593 153.498 88.51 154.208 88.51C154.768 88.51 155.286 88.6127 155.762 88.818C156.247 89.0233 156.644 89.3267 156.952 89.728V88.58H158.226ZM154.362 94.516C154.847 94.516 155.281 94.4133 155.664 94.208C156.056 94.0027 156.359 93.718 156.574 93.354C156.798 92.9807 156.91 92.5607 156.91 92.094C156.91 91.3753 156.672 90.7967 156.196 90.358C155.72 89.91 155.108 89.686 154.362 89.686C153.606 89.686 152.99 89.91 152.514 90.358C152.038 90.7967 151.8 91.3753 151.8 92.094C151.8 92.5607 151.907 92.9807 152.122 93.354C152.346 93.718 152.649 94.0027 153.032 94.208C153.424 94.4133 153.867 94.516 154.362 94.516Z" fill="#C4C4C4"/>
<g clip-path="url(#clip0_1_3697)">
<path d="M24.9021 44.4307C23.916 41.9793 22.2839 39.8811 20.2014 38.3873C18.0655 36.8519 15.5437 36.0316 12.9626 36.0325C11.232 36.0312 9.51885 36.4001 7.92587 37.1168C5.61046 38.1608 3.62833 39.8901 2.21709 42.0975C0.769861 44.3613 -0.00259462 47.0332 -0.000238768 49.7674V65.9999H3.06991V49.7674C3.06878 48.3702 3.3339 46.9872 3.84939 45.7011C4.60424 43.8274 5.8525 42.2237 7.44488 41.0819C9.07222 39.9097 10.9949 39.2838 12.9626 39.2855C14.2813 39.2843 15.5866 39.5652 16.8003 40.1114C18.569 40.9108 20.0826 42.2335 21.1599 43.921C22.2662 45.6453 22.8569 47.6825 22.8553 49.7674V65.9999H25.9255V49.7674C25.9266 47.9337 25.5786 46.1185 24.9021 44.4307Z" fill="black"/>
<path d="M116.239 44.4307C115.253 41.9794 113.621 39.8812 111.539 38.3873C109.403 36.852 106.881 36.0316 104.3 36.0325C102.569 36.0313 100.856 36.4001 99.2631 37.1169C96.4697 38.3724 94.1774 40.6216 92.7817 43.4765C91.778 41.4297 90.3083 39.6805 88.5057 38.3873C86.3694 36.8536 83.8475 36.0351 81.2669 36.038C78.8601 36.0362 76.501 36.75 74.458 38.0982C73.3508 38.8271 72.3528 39.7274 71.497 40.7693C71.422 40.8633 71.347 40.959 71.2753 41.0548C70.2992 42.3678 69.5486 43.8525 69.058 45.441C68.5936 46.9522 68.2658 48.5068 68.0789 50.0837C67.9527 51.0651 67.806 52.2 67.5673 53.3874C67.3882 54.2998 67.1505 55.1983 66.856 56.0765C66.4254 57.4075 65.77 58.6445 64.9218 59.7271C64.4879 60.2668 63.9916 60.7464 63.4447 61.1548C62.8432 61.6004 62.1888 61.9602 61.4986 62.2247V62.2373C60.5482 62.5539 59.5577 62.7148 58.5615 62.7145C57.1586 62.7278 55.7672 62.4459 54.4679 61.8849C52.7234 61.1199 51.2439 59.8034 50.2311 58.1151C49.1892 56.3532 48.6458 54.3117 48.6654 52.2325V36H45.5952V52.2325C45.5952 55.9554 46.8779 59.4018 49.1668 61.9139C50.3339 63.1932 51.7365 64.2051 53.2876 64.8867C54.9593 65.6147 56.7508 65.9833 58.5581 65.9711C60.2321 65.9721 61.8903 65.6271 63.4396 64.9554L63.4174 64.8976C64.7035 64.2784 65.8656 63.4035 66.8407 62.3205C67.6501 61.4238 68.3373 60.4116 68.8823 59.3133C69.6052 57.8088 70.144 56.2128 70.4856 54.5639C70.8182 53.0404 70.9973 51.6253 71.1406 50.5229C71.3811 48.6452 71.7631 46.8343 72.4369 45.2639C72.7654 44.4864 73.1842 43.7555 73.6837 43.088C74.2051 42.3933 74.8207 41.7843 75.5104 41.2807L75.5002 41.2645C75.6895 41.1181 75.884 40.9789 76.0835 40.8488C77.6402 39.821 79.4379 39.2769 81.2721 39.2783C82.5918 39.279 83.8977 39.5623 85.1115 40.1114C86.8803 40.9112 88.3944 42.2338 89.4728 43.9211C90.5777 45.6459 91.1678 47.6828 91.1665 49.7675V66H94.4072V49.7675C94.4061 48.3703 94.6712 46.9872 95.1867 45.7012C95.9415 43.8275 97.1898 42.2238 98.7822 41.0819C100.409 39.9098 102.332 39.2838 104.3 39.2855C105.619 39.2843 106.924 39.5653 108.138 40.1114C109.906 40.9108 111.42 42.2335 112.497 43.9211C113.603 45.6454 114.194 47.6825 114.193 49.7675V66H117.263V49.7675C117.264 47.9337 116.916 46.1186 116.239 44.4307Z" fill="black"/>
<path d="M184.977 44.4309C183.991 41.9795 182.358 39.8813 180.276 38.3875C178.139 36.8541 175.618 36.0356 173.037 36.0381C171.307 36.0369 169.593 36.4057 168 37.1224C165.687 38.1673 163.707 39.8965 162.297 42.1032C160.85 44.3669 160.077 47.0388 160.079 49.773V66.0001H163.15V49.7676C163.148 48.3704 163.414 46.9874 163.929 45.7013C164.684 43.8276 165.932 42.2239 167.525 41.0821C169.152 39.9099 171.075 39.284 173.042 39.2857C174.361 39.2845 175.666 39.5654 176.88 40.1116C178.649 40.911 180.162 42.2337 181.24 43.9212C182.346 45.6455 182.937 47.6827 182.935 49.7676V66.0001H186.005V49.7676C186.005 47.9335 185.655 46.1183 184.977 44.4309Z" fill="black"/>
<path d="M140.289 37.6592H137.219V66.0001H140.289V37.6592Z" fill="black"/>
</g>
<defs>
<clipPath id="clip0_1_3697">
<rect width="186" height="30" fill="white" transform="translate(0 36)"/>
</clipPath>
</defs>
</svg>
