<svg width="205" height="102" viewBox="0 0 205 102" fill="none" xmlns="http://www.w3.org/2000/svg">
<path d="M58.112 6.8C59.0827 6.8 59.9253 6.96 60.64 7.28C61.3653 7.6 61.92 8.05867 62.304 8.656C62.688 9.25333 62.88 9.96267 62.88 10.784C62.88 11.5947 62.688 12.304 62.304 12.912C61.92 13.5093 61.3653 13.968 60.64 14.288C59.9253 14.608 59.0827 14.768 58.112 14.768H55.584V18H53.504V6.8H58.112ZM58.016 13.008C58.9227 13.008 59.6107 12.816 60.08 12.432C60.5493 12.048 60.784 11.4987 60.784 10.784C60.784 10.0693 60.5493 9.52 60.08 9.136C59.6107 8.752 58.9227 8.56 58.016 8.56H55.584V13.008H58.016ZM67.951 9.36C69.2097 9.36 70.1697 9.664 70.831 10.272C71.503 10.8693 71.839 11.776 71.839 12.992V18H69.951V16.96C69.7057 17.3333 69.3537 17.6213 68.895 17.824C68.447 18.016 67.903 18.112 67.263 18.112C66.623 18.112 66.063 18.0053 65.583 17.792C65.103 17.568 64.7297 17.264 64.463 16.88C64.207 16.4853 64.079 16.0427 64.079 15.552C64.079 14.784 64.3617 14.1707 64.927 13.712C65.503 13.2427 66.4043 13.008 67.631 13.008H69.839V12.88C69.839 12.2827 69.6577 11.824 69.295 11.504C68.943 11.184 68.415 11.024 67.711 11.024C67.231 11.024 66.7563 11.0987 66.287 11.248C65.8283 11.3973 65.439 11.6053 65.119 11.872L64.335 10.416C64.783 10.0747 65.3217 9.81333 65.951 9.632C66.5803 9.45067 67.247 9.36 67.951 9.36ZM67.679 16.656C68.1803 16.656 68.623 16.544 69.007 16.32C69.4017 16.0853 69.679 15.7547 69.839 15.328V14.336H67.775C66.623 14.336 66.047 14.7147 66.047 15.472C66.047 15.8347 66.191 16.1227 66.479 16.336C66.767 16.5493 67.167 16.656 67.679 16.656ZM79.2538 9.36C80.3311 9.36 81.1951 9.67467 81.8458 10.304C82.4964 10.9333 82.8218 11.8667 82.8218 13.104V18H80.8218V13.36C80.8218 12.6133 80.6458 12.0533 80.2938 11.68C79.9418 11.296 79.4404 11.104 78.7898 11.104C78.0538 11.104 77.4724 11.328 77.0458 11.776C76.6191 12.2133 76.4058 12.848 76.4058 13.68V18H74.4058V9.456H76.3098V10.56C76.6404 10.1653 77.0564 9.86667 77.5578 9.664C78.0591 9.46133 78.6244 9.36 79.2538 9.36ZM90.4949 17.536C90.2602 17.728 89.9722 17.872 89.6309 17.968C89.3002 18.064 88.9482 18.112 88.5749 18.112C87.6362 18.112 86.9109 17.8667 86.3989 17.376C85.8869 16.8853 85.6309 16.1707 85.6309 15.232V11.12H84.2229V9.52H85.6309V7.568H87.6309V9.52H89.9189V11.12H87.6309V15.184C87.6309 15.6 87.7322 15.92 87.9349 16.144C88.1375 16.3573 88.4309 16.464 88.8149 16.464C89.2629 16.464 89.6362 16.3467 89.9349 16.112L90.4949 17.536ZM94.0441 10.704C94.6201 9.808 95.6335 9.36 97.0841 9.36V11.264C96.9135 11.232 96.7588 11.216 96.6201 11.216C95.8415 11.216 95.2335 11.4453 94.7961 11.904C94.3588 12.352 94.1401 13.0027 94.1401 13.856V18H92.1401V9.456H94.0441V10.704ZM106.735 13.776C106.735 13.9147 106.724 14.112 106.703 14.368H99.9986C100.116 14.9973 100.42 15.4987 100.911 15.872C101.412 16.2347 102.031 16.416 102.767 16.416C103.705 16.416 104.479 16.1067 105.087 15.488L106.159 16.72C105.775 17.1787 105.289 17.5253 104.703 17.76C104.116 17.9947 103.455 18.112 102.719 18.112C101.78 18.112 100.953 17.9253 100.239 17.552C99.524 17.1787 98.9693 16.6613 98.5746 16C98.1906 15.328 97.9986 14.5707 97.9986 13.728C97.9986 12.896 98.1853 12.1493 98.5586 11.488C98.9426 10.816 99.4706 10.2933 100.143 9.92C100.815 9.54667 101.572 9.36 102.415 9.36C103.247 9.36 103.988 9.54667 104.639 9.92C105.3 10.2827 105.812 10.8 106.175 11.472C106.548 12.1333 106.735 12.9013 106.735 13.776ZM102.415 10.96C101.775 10.96 101.231 11.152 100.783 11.536C100.345 11.9093 100.079 12.4107 99.9826 13.04H104.831C104.745 12.4213 104.484 11.92 104.047 11.536C103.609 11.152 103.065 10.96 102.415 10.96ZM108.656 9.456H110.656V18H108.656V9.456ZM109.664 8.048C109.301 8.048 108.997 7.936 108.752 7.712C108.506 7.47733 108.384 7.18933 108.384 6.848C108.384 6.50667 108.506 6.224 108.752 6C108.997 5.76533 109.301 5.648 109.664 5.648C110.026 5.648 110.33 5.76 110.576 5.984C110.821 6.19733 110.944 6.46933 110.944 6.8C110.944 7.152 110.821 7.45067 110.576 7.696C110.341 7.93067 110.037 8.048 109.664 8.048ZM113.921 18.112C113.558 18.112 113.249 17.9893 112.993 17.744C112.737 17.488 112.609 17.168 112.609 16.784C112.609 16.3893 112.731 16.0693 112.977 15.824C113.233 15.5787 113.547 15.456 113.921 15.456C114.294 15.456 114.603 15.5787 114.849 15.824C115.105 16.0693 115.233 16.3893 115.233 16.784C115.233 17.168 115.105 17.488 114.849 17.744C114.593 17.9893 114.283 18.112 113.921 18.112ZM120.951 18.112C120.065 18.112 119.271 17.9253 118.567 17.552C117.863 17.1787 117.313 16.6613 116.919 16C116.524 15.328 116.327 14.5707 116.327 13.728C116.327 12.8853 116.524 12.1333 116.919 11.472C117.313 10.8107 117.857 10.2933 118.551 9.92C119.255 9.54667 120.055 9.36 120.951 9.36C121.793 9.36 122.529 9.53067 123.159 9.872C123.799 10.2133 124.279 10.704 124.599 11.344L123.063 12.24C122.817 11.8453 122.508 11.552 122.135 11.36C121.772 11.1573 121.372 11.056 120.935 11.056C120.188 11.056 119.569 11.3013 119.079 11.792C118.588 12.272 118.343 12.9173 118.343 13.728C118.343 14.5387 118.583 15.1893 119.063 15.68C119.553 16.16 120.177 16.4 120.935 16.4C121.372 16.4 121.772 16.304 122.135 16.112C122.508 15.9093 122.817 15.6107 123.063 15.216L124.599 16.112C124.268 16.752 123.783 17.248 123.143 17.6C122.513 17.9413 121.783 18.112 120.951 18.112ZM130.043 18.112C129.179 18.112 128.4 17.9253 127.707 17.552C127.013 17.1787 126.469 16.6613 126.075 16C125.691 15.328 125.499 14.5707 125.499 13.728C125.499 12.8853 125.691 12.1333 126.075 11.472C126.469 10.8107 127.013 10.2933 127.707 9.92C128.4 9.54667 129.179 9.36 130.043 9.36C130.917 9.36 131.701 9.54667 132.395 9.92C133.088 10.2933 133.627 10.8107 134.011 11.472C134.405 12.1333 134.603 12.8853 134.603 13.728C134.603 14.5707 134.405 15.328 134.011 16C133.627 16.6613 133.088 17.1787 132.395 17.552C131.701 17.9253 130.917 18.112 130.043 18.112ZM130.043 16.4C130.779 16.4 131.387 16.1547 131.867 15.664C132.347 15.1733 132.587 14.528 132.587 13.728C132.587 12.928 132.347 12.2827 131.867 11.792C131.387 11.3013 130.779 11.056 130.043 11.056C129.307 11.056 128.699 11.3013 128.219 11.792C127.749 12.2827 127.515 12.928 127.515 13.728C127.515 14.528 127.749 15.1733 128.219 15.664C128.699 16.1547 129.307 16.4 130.043 16.4ZM147.299 9.36C148.376 9.36 149.23 9.67467 149.859 10.304C150.488 10.9227 150.803 11.856 150.803 13.104V18H148.803V13.36C148.803 12.6133 148.638 12.0533 148.307 11.68C147.976 11.296 147.502 11.104 146.883 11.104C146.211 11.104 145.672 11.328 145.267 11.776C144.862 12.2133 144.659 12.8427 144.659 13.664V18H142.659V13.36C142.659 12.6133 142.494 12.0533 142.163 11.68C141.832 11.296 141.358 11.104 140.739 11.104C140.056 11.104 139.512 11.3227 139.107 11.76C138.712 12.1973 138.515 12.832 138.515 13.664V18H136.515V9.456H138.419V10.544C138.739 10.16 139.139 9.86667 139.619 9.664C140.099 9.46133 140.632 9.36 141.219 9.36C141.859 9.36 142.424 9.48267 142.915 9.728C143.416 9.96267 143.811 10.3147 144.099 10.784C144.451 10.336 144.904 9.98933 145.459 9.744C146.014 9.488 146.627 9.36 147.299 9.36Z" fill="#222222"/>
<path d="M21.87 86.418V89.834H26.784V91.038H21.87V95H20.47V85.2H27.386V86.418H21.87ZM31.603 87.51C32.6296 87.51 33.4136 87.762 33.955 88.266C34.5056 88.77 34.781 89.5213 34.781 90.52V95H33.507V94.02C33.283 94.3653 32.961 94.6313 32.541 94.818C32.1303 94.9953 31.6403 95.084 31.071 95.084C30.2403 95.084 29.573 94.8833 29.069 94.482C28.5743 94.0807 28.327 93.5533 28.327 92.9C28.327 92.2467 28.565 91.724 29.041 91.332C29.517 90.9307 30.273 90.73 31.309 90.73H33.437V90.464C33.437 89.8853 33.269 89.442 32.933 89.134C32.597 88.826 32.1023 88.672 31.449 88.672C31.0103 88.672 30.581 88.7467 30.161 88.896C29.741 89.036 29.3863 89.2273 29.097 89.47L28.537 88.462C28.9196 88.154 29.377 87.9207 29.909 87.762C30.441 87.594 31.0056 87.51 31.603 87.51ZM31.295 94.048C31.8083 94.048 32.2516 93.936 32.625 93.712C32.9983 93.4787 33.269 93.152 33.437 92.732V91.696H31.365C30.2263 91.696 29.657 92.0787 29.657 92.844C29.657 93.2173 29.8016 93.5113 30.091 93.726C30.3803 93.9407 30.7816 94.048 31.295 94.048ZM39.3961 95.084C38.7895 95.084 38.2061 95.0047 37.6461 94.846C37.0861 94.678 36.6475 94.468 36.3301 94.216L36.8901 93.152C37.2168 93.3853 37.6135 93.572 38.0801 93.712C38.5468 93.852 39.0181 93.922 39.4941 93.922C40.6701 93.922 41.2581 93.586 41.2581 92.914C41.2581 92.69 41.1788 92.5127 41.0201 92.382C40.8615 92.2513 40.6608 92.158 40.4181 92.102C40.1848 92.0367 39.8488 91.9667 39.4101 91.892C38.8128 91.7987 38.3228 91.6913 37.9401 91.57C37.5668 91.4487 37.2448 91.2433 36.9741 90.954C36.7035 90.6647 36.5681 90.2587 36.5681 89.736C36.5681 89.064 36.8481 88.5273 37.4081 88.126C37.9681 87.7153 38.7195 87.51 39.6621 87.51C40.1568 87.51 40.6515 87.5707 41.1461 87.692C41.6408 87.8133 42.0468 87.9767 42.3641 88.182L41.7901 89.246C41.1835 88.854 40.4695 88.658 39.6481 88.658C39.0788 88.658 38.6448 88.7513 38.3461 88.938C38.0475 89.1247 37.8981 89.372 37.8981 89.68C37.8981 89.9227 37.9821 90.114 38.1501 90.254C38.3181 90.394 38.5235 90.4967 38.7661 90.562C39.0181 90.6273 39.3681 90.702 39.8161 90.786C40.4135 90.8887 40.8941 91.0007 41.2581 91.122C41.6315 91.234 41.9488 91.43 42.2101 91.71C42.4715 91.99 42.6021 92.382 42.6021 92.886C42.6021 93.558 42.3128 94.0947 41.7341 94.496C41.1648 94.888 40.3855 95.084 39.3961 95.084ZM48.4538 94.566C48.2578 94.734 48.0151 94.8647 47.7258 94.958C47.4365 95.042 47.1378 95.084 46.8298 95.084C46.0831 95.084 45.5045 94.8833 45.0938 94.482C44.6831 94.0807 44.4778 93.5067 44.4778 92.76V88.686H43.2178V87.58H44.4778V85.956H45.8218V87.58H47.9498V88.686H45.8218V92.704C45.8218 93.1053 45.9198 93.4133 46.1158 93.628C46.3211 93.8427 46.6105 93.95 46.9838 93.95C47.3945 93.95 47.7445 93.8333 48.0338 93.6L48.4538 94.566ZM56.5545 85.634C55.7518 85.634 55.3505 86.068 55.3505 86.936V87.58H57.5065V88.686H55.3785V95H54.0345V88.686H52.7745V87.58H54.0345V86.922C54.0345 86.1847 54.2491 85.6013 54.6785 85.172C55.1078 84.7427 55.7098 84.528 56.4845 84.528C56.7831 84.528 57.0631 84.5653 57.3245 84.64C57.5858 84.7147 57.8098 84.822 57.9965 84.962L57.5905 85.984C57.2825 85.7507 56.9371 85.634 56.5545 85.634ZM61.3393 87.51C62.3659 87.51 63.1499 87.762 63.6913 88.266C64.2419 88.77 64.5173 89.5213 64.5173 90.52V95H63.2433V94.02C63.0193 94.3653 62.6973 94.6313 62.2773 94.818C61.8666 94.9953 61.3766 95.084 60.8073 95.084C59.9766 95.084 59.3093 94.8833 58.8053 94.482C58.3106 94.0807 58.0633 93.5533 58.0633 92.9C58.0633 92.2467 58.3013 91.724 58.7773 91.332C59.2533 90.9307 60.0093 90.73 61.0453 90.73H63.1733V90.464C63.1733 89.8853 63.0053 89.442 62.6693 89.134C62.3333 88.826 61.8386 88.672 61.1853 88.672C60.7466 88.672 60.3173 88.7467 59.8973 88.896C59.4773 89.036 59.1226 89.2273 58.8333 89.47L58.2733 88.462C58.6559 88.154 59.1133 87.9207 59.6453 87.762C60.1773 87.594 60.7419 87.51 61.3393 87.51ZM61.0313 94.048C61.5446 94.048 61.9879 93.936 62.3613 93.712C62.7346 93.4787 63.0053 93.152 63.1733 92.732V91.696H61.1013C59.9626 91.696 59.3933 92.0787 59.3933 92.844C59.3933 93.2173 59.5379 93.5113 59.8273 93.726C60.1166 93.9407 60.5179 94.048 61.0313 94.048ZM69.1325 95.084C68.5258 95.084 67.9425 95.0047 67.3825 94.846C66.8225 94.678 66.3838 94.468 66.0665 94.216L66.6265 93.152C66.9531 93.3853 67.3498 93.572 67.8165 93.712C68.2831 93.852 68.7545 93.922 69.2305 93.922C70.4065 93.922 70.9945 93.586 70.9945 92.914C70.9945 92.69 70.9151 92.5127 70.7565 92.382C70.5978 92.2513 70.3971 92.158 70.1545 92.102C69.9211 92.0367 69.5851 91.9667 69.1465 91.892C68.5491 91.7987 68.0591 91.6913 67.6765 91.57C67.3031 91.4487 66.9811 91.2433 66.7105 90.954C66.4398 90.6647 66.3045 90.2587 66.3045 89.736C66.3045 89.064 66.5845 88.5273 67.1445 88.126C67.7045 87.7153 68.4558 87.51 69.3985 87.51C69.8931 87.51 70.3878 87.5707 70.8825 87.692C71.3771 87.8133 71.7831 87.9767 72.1005 88.182L71.5265 89.246C70.9198 88.854 70.2058 88.658 69.3845 88.658C68.8151 88.658 68.3811 88.7513 68.0825 88.938C67.7838 89.1247 67.6345 89.372 67.6345 89.68C67.6345 89.9227 67.7185 90.114 67.8865 90.254C68.0545 90.394 68.2598 90.4967 68.5025 90.562C68.7545 90.6273 69.1045 90.702 69.5525 90.786C70.1498 90.8887 70.6305 91.0007 70.9945 91.122C71.3678 91.234 71.6851 91.43 71.9465 91.71C72.2078 91.99 72.3385 92.382 72.3385 92.886C72.3385 93.558 72.0491 94.0947 71.4705 94.496C70.9011 94.888 70.1218 95.084 69.1325 95.084ZM77.9801 87.51C78.9228 87.51 79.6695 87.7853 80.2201 88.336C80.7801 88.8773 81.0601 89.6753 81.0601 90.73V95H79.7161V90.884C79.7161 90.1653 79.5435 89.624 79.1981 89.26C78.8528 88.896 78.3581 88.714 77.7141 88.714C76.9861 88.714 76.4121 88.9287 75.9921 89.358C75.5721 89.778 75.3621 90.3847 75.3621 91.178V95H74.0181V84.612H75.3621V88.63C75.6421 88.2753 76.0061 88 76.4541 87.804C76.9115 87.608 77.4201 87.51 77.9801 87.51ZM83.5474 87.58H84.8914V95H83.5474V87.58ZM84.2194 86.152C83.9581 86.152 83.7388 86.068 83.5614 85.9C83.3934 85.732 83.3094 85.5267 83.3094 85.284C83.3094 85.0413 83.3934 84.836 83.5614 84.668C83.7388 84.4907 83.9581 84.402 84.2194 84.402C84.4808 84.402 84.6954 84.486 84.8634 84.654C85.0408 84.8127 85.1294 85.0133 85.1294 85.256C85.1294 85.508 85.0408 85.7227 84.8634 85.9C84.6954 86.068 84.4808 86.152 84.2194 86.152ZM90.6356 95.084C89.8983 95.084 89.2356 94.9207 88.6476 94.594C88.0596 94.2673 87.5976 93.8193 87.2616 93.25C86.9349 92.6713 86.7716 92.018 86.7716 91.29C86.7716 90.562 86.9349 89.9133 87.2616 89.344C87.5976 88.7653 88.0596 88.3173 88.6476 88C89.2356 87.6733 89.8983 87.51 90.6356 87.51C91.3729 87.51 92.0309 87.6733 92.6096 88C93.1976 88.3173 93.6549 88.7653 93.9816 89.344C94.3176 89.9133 94.4856 90.562 94.4856 91.29C94.4856 92.018 94.3176 92.6713 93.9816 93.25C93.6549 93.8193 93.1976 94.2673 92.6096 94.594C92.0309 94.9207 91.3729 95.084 90.6356 95.084ZM90.6356 93.908C91.1116 93.908 91.5363 93.8007 91.9096 93.586C92.2923 93.362 92.5909 93.054 92.8056 92.662C93.0203 92.2607 93.1276 91.8033 93.1276 91.29C93.1276 90.7767 93.0203 90.324 92.8056 89.932C92.5909 89.5307 92.2923 89.2227 91.9096 89.008C91.5363 88.7933 91.1116 88.686 90.6356 88.686C90.1596 88.686 89.7303 88.7933 89.3476 89.008C88.9743 89.2227 88.6756 89.5307 88.4516 89.932C88.2369 90.324 88.1296 90.7767 88.1296 91.29C88.1296 91.8033 88.2369 92.2607 88.4516 92.662C88.6756 93.054 88.9743 93.362 89.3476 93.586C89.7303 93.8007 90.1596 93.908 90.6356 93.908ZM100.306 87.51C101.249 87.51 101.996 87.7853 102.546 88.336C103.106 88.8773 103.386 89.6753 103.386 90.73V95H102.042V90.884C102.042 90.1653 101.87 89.624 101.524 89.26C101.179 88.896 100.684 88.714 100.04 88.714C99.3123 88.714 98.7383 88.9287 98.3183 89.358C97.8983 89.778 97.6883 90.3847 97.6883 91.178V95H96.3443V87.58H97.6323V88.7C97.903 88.3173 98.267 88.0233 98.7243 87.818C99.191 87.6127 99.7183 87.51 100.306 87.51ZM112.349 85.634C111.547 85.634 111.145 86.068 111.145 86.936V87.58H113.301V88.686H111.173V95H109.829V88.686H108.569V87.58H109.829V86.922C109.829 86.1847 110.044 85.6013 110.473 85.172C110.903 84.7427 111.505 84.528 112.279 84.528C112.578 84.528 112.858 84.5653 113.119 84.64C113.381 84.7147 113.605 84.822 113.791 84.962L113.385 85.984C113.077 85.7507 112.732 85.634 112.349 85.634ZM117.638 95.084C116.9 95.084 116.238 94.9207 115.65 94.594C115.062 94.2673 114.6 93.8193 114.264 93.25C113.937 92.6713 113.774 92.018 113.774 91.29C113.774 90.562 113.937 89.9133 114.264 89.344C114.6 88.7653 115.062 88.3173 115.65 88C116.238 87.6733 116.9 87.51 117.638 87.51C118.375 87.51 119.033 87.6733 119.612 88C120.2 88.3173 120.657 88.7653 120.984 89.344C121.32 89.9133 121.488 90.562 121.488 91.29C121.488 92.018 121.32 92.6713 120.984 93.25C120.657 93.8193 120.2 94.2673 119.612 94.594C119.033 94.9207 118.375 95.084 117.638 95.084ZM117.638 93.908C118.114 93.908 118.538 93.8007 118.912 93.586C119.294 93.362 119.593 93.054 119.808 92.662C120.022 92.2607 120.13 91.8033 120.13 91.29C120.13 90.7767 120.022 90.324 119.808 89.932C119.593 89.5307 119.294 89.2227 118.912 89.008C118.538 88.7933 118.114 88.686 117.638 88.686C117.162 88.686 116.732 88.7933 116.35 89.008C115.976 89.2227 115.678 89.5307 115.454 89.932C115.239 90.324 115.132 90.7767 115.132 91.29C115.132 91.8033 115.239 92.2607 115.454 92.662C115.678 93.054 115.976 93.362 116.35 93.586C116.732 93.8007 117.162 93.908 117.638 93.908ZM124.634 88.826C124.868 88.3967 125.213 88.07 125.67 87.846C126.128 87.622 126.683 87.51 127.336 87.51V88.812C127.262 88.8027 127.159 88.798 127.028 88.798C126.3 88.798 125.726 89.0173 125.306 89.456C124.896 89.8853 124.69 90.5013 124.69 91.304V95H123.346V87.58H124.634V88.826ZM144.076 87.58L141.304 95H140.016L137.874 89.372L135.704 95H134.416L131.658 87.58H132.932L135.088 93.488L137.328 87.58H138.462L140.66 93.516L142.872 87.58H144.076ZM148.413 95.084C147.676 95.084 147.013 94.9207 146.425 94.594C145.837 94.2673 145.375 93.8193 145.039 93.25C144.712 92.6713 144.549 92.018 144.549 91.29C144.549 90.562 144.712 89.9133 145.039 89.344C145.375 88.7653 145.837 88.3173 146.425 88C147.013 87.6733 147.676 87.51 148.413 87.51C149.15 87.51 149.808 87.6733 150.387 88C150.975 88.3173 151.432 88.7653 151.759 89.344C152.095 89.9133 152.263 90.562 152.263 91.29C152.263 92.018 152.095 92.6713 151.759 93.25C151.432 93.8193 150.975 94.2673 150.387 94.594C149.808 94.9207 149.15 95.084 148.413 95.084ZM148.413 93.908C148.889 93.908 149.314 93.8007 149.687 93.586C150.07 93.362 150.368 93.054 150.583 92.662C150.798 92.2607 150.905 91.8033 150.905 91.29C150.905 90.7767 150.798 90.324 150.583 89.932C150.368 89.5307 150.07 89.2227 149.687 89.008C149.314 88.7933 148.889 88.686 148.413 88.686C147.937 88.686 147.508 88.7933 147.125 89.008C146.752 89.2227 146.453 89.5307 146.229 89.932C146.014 90.324 145.907 90.7767 145.907 91.29C145.907 91.8033 146.014 92.2607 146.229 92.662C146.453 93.054 146.752 93.362 147.125 93.586C147.508 93.8007 147.937 93.908 148.413 93.908ZM163.404 87.51C164.337 87.51 165.074 87.7807 165.616 88.322C166.166 88.8633 166.442 89.666 166.442 90.73V95H165.098V90.884C165.098 90.1653 164.93 89.624 164.594 89.26C164.267 88.896 163.796 88.714 163.18 88.714C162.498 88.714 161.957 88.9287 161.556 89.358C161.154 89.778 160.954 90.3847 160.954 91.178V95H159.61V90.884C159.61 90.1653 159.442 89.624 159.106 89.26C158.779 88.896 158.308 88.714 157.692 88.714C157.01 88.714 156.469 88.9287 156.068 89.358C155.666 89.778 155.466 90.3847 155.466 91.178V95H154.122V87.58H155.41V88.686C155.68 88.3033 156.035 88.014 156.474 87.818C156.912 87.6127 157.412 87.51 157.972 87.51C158.55 87.51 159.064 87.6267 159.512 87.86C159.96 88.0933 160.305 88.434 160.548 88.882C160.828 88.4527 161.215 88.1167 161.71 87.874C162.214 87.6313 162.778 87.51 163.404 87.51ZM175.662 91.332C175.662 91.4347 175.652 91.57 175.634 91.738H169.614C169.698 92.3913 169.982 92.9187 170.468 93.32C170.962 93.712 171.574 93.908 172.302 93.908C173.188 93.908 173.902 93.6093 174.444 93.012L175.186 93.88C174.85 94.272 174.43 94.5707 173.926 94.776C173.431 94.9813 172.876 95.084 172.26 95.084C171.476 95.084 170.78 94.9253 170.174 94.608C169.567 94.2813 169.096 93.8287 168.76 93.25C168.433 92.6713 168.27 92.018 168.27 91.29C168.27 90.5713 168.428 89.9227 168.746 89.344C169.072 88.7653 169.516 88.3173 170.076 88C170.645 87.6733 171.284 87.51 171.994 87.51C172.703 87.51 173.333 87.6733 173.884 88C174.444 88.3173 174.878 88.7653 175.186 89.344C175.503 89.9227 175.662 90.5853 175.662 91.332ZM171.994 88.644C171.35 88.644 170.808 88.84 170.37 89.232C169.94 89.624 169.688 90.1373 169.614 90.772H174.374C174.299 90.1467 174.042 89.638 173.604 89.246C173.174 88.8447 172.638 88.644 171.994 88.644ZM181.49 87.51C182.433 87.51 183.179 87.7853 183.73 88.336C184.29 88.8773 184.57 89.6753 184.57 90.73V95H183.226V90.884C183.226 90.1653 183.053 89.624 182.708 89.26C182.363 88.896 181.868 88.714 181.224 88.714C180.496 88.714 179.922 88.9287 179.502 89.358C179.082 89.778 178.872 90.3847 178.872 91.178V95H177.528V87.58H178.816V88.7C179.087 88.3173 179.451 88.0233 179.908 87.818C180.375 87.6127 180.902 87.51 181.49 87.51Z" fill="#C4C4C4"/>
<g clip-path="url(#clip0_1_3637)">
<path d="M5.17471 62.5711V70.0003H0V42.1911H5.17471V44.828C7.31711 42.8741 10.1878 41.758 13.1931 41.7107C19.6608 41.7107 25.3511 46.9859 25.3511 53.6996C25.3511 60.4133 19.6608 65.6871 13.1931 65.6871C10.188 65.6402 7.31733 64.5247 5.17471 62.5711ZM5.17471 53.6996C5.10796 55.6302 5.85294 57.5095 7.25247 58.9408C8.65201 60.372 10.5967 61.2436 12.6762 61.3714C14.7558 61.2436 16.7004 60.372 18.1 58.9408C19.4995 57.5095 20.2445 55.6302 20.1778 53.6996C20.2445 51.769 19.4995 49.8897 18.1 48.4584C16.7004 47.0271 14.7558 46.1556 12.6762 46.0277C10.5967 46.1556 8.65201 47.0271 7.25247 48.4584C5.85294 49.8897 5.10796 51.769 5.17471 53.6996Z" fill="black"/>
<path d="M46.1506 65.2071V62.8104C44.1461 64.6333 41.4571 65.6648 38.6491 65.6876C33.4742 65.6876 29.8531 62.3299 29.8531 58.9738C29.8531 55.1371 32.6983 52.5003 37.0956 51.7809L46.1492 50.3424C46.135 49.7382 45.9874 49.1431 45.7156 48.5937C45.444 48.0443 45.0537 47.5524 44.569 47.148C44.0844 46.7437 43.5155 46.4357 42.8977 46.2428C42.2796 46.05 41.6257 45.9764 40.9758 46.0267C39.7064 46.0222 38.4547 46.3033 37.3282 46.8461C36.202 47.3889 35.2348 48.177 34.5095 49.1428L31.1461 46.0254C32.3346 44.6734 33.834 43.5843 35.5345 42.8377C37.2352 42.091 39.0941 41.7057 40.9758 41.7097C47.1844 41.7097 51.3238 45.5463 51.3238 50.3424V65.2071H46.1506ZM46.1506 54.6581V54.1778L38.1306 55.3775C37.2885 55.4479 36.5045 55.8061 35.931 56.382C35.3574 56.9581 35.0351 57.7108 35.0265 58.4948C35.0265 59.9333 36.5786 61.3718 39.4237 61.3718C43.5576 61.3706 46.1506 58.9738 46.1506 54.6581Z" fill="black"/>
<path d="M63.3852 44.5878C65.3895 42.7647 68.0787 41.7333 70.8867 41.7107C76.8363 41.7107 80.9756 45.5473 80.9756 51.7806V65.2081H75.801V51.7806C75.8404 51.0356 75.7153 50.2909 75.4337 49.5921C75.152 48.8934 74.7194 48.2552 74.1626 47.7166C73.6059 47.178 72.9363 46.7503 72.1951 46.4597C71.4538 46.1691 70.6563 46.0216 69.8515 46.0264C65.9713 46.0264 63.384 48.4244 63.384 52.7401V65.2081H58.2106V42.1911H63.3852V44.5878Z" fill="black"/>
<path d="M91.3224 37.3984H95.9788V42.1907H101.154V46.5063H95.9788V58.4516C95.9573 58.8369 96.0223 59.2222 96.1701 59.5828C96.3177 59.9436 96.5448 60.2719 96.8367 60.5469C97.1286 60.822 97.479 61.0377 97.8658 61.1805C98.2524 61.3232 98.6672 61.3899 99.0831 61.3762C99.9681 61.35 100.842 61.1881 101.67 60.897V65.2129C100.495 65.5346 99.275 65.6959 98.0493 65.6919C93.3929 65.6919 90.8054 63.2939 90.8054 58.4991V46.5063H86.149V42.1907H88.7366C90.2886 42.1907 91.3239 41.2312 91.3239 39.3135L91.3224 37.3984Z" fill="black"/>
<path d="M120.444 46.0258C116.564 46.0258 113.977 48.4239 113.977 52.7395V65.2075H108.802V42.1905H113.977V44.5886C115.981 42.7656 118.67 41.7342 121.478 41.7114H122.771V46.266C122.008 46.1069 121.227 46.0264 120.444 46.0258Z" fill="black"/>
<path d="M130.528 55.3781C130.854 57.0639 131.81 58.5894 133.23 59.6857C134.65 60.782 136.441 61.3788 138.289 61.3712C139.754 61.3477 141.193 61.011 142.495 60.387C143.796 59.7633 144.925 58.8693 145.792 57.7747L149.155 60.8921C147.827 62.3729 146.167 63.5686 144.292 64.3968C142.416 65.2248 140.368 65.6654 138.29 65.6882C134.837 65.6244 131.548 64.3081 129.13 62.0218C126.712 59.7357 125.357 56.6619 125.356 53.4604C125.361 50.3458 126.699 47.3601 129.075 45.1576C131.451 42.9551 134.672 41.7155 138.032 41.7104C139.642 41.6682 141.243 41.9309 142.739 42.4823C144.235 43.0337 145.593 43.8623 146.732 44.9173C147.87 45.9723 148.764 47.2316 149.359 48.6179C149.954 50.0043 150.237 51.4886 150.192 52.9801C150.202 53.7859 150.115 54.5901 149.933 55.3781H130.528ZM130.736 51.3012H145.12C144.868 49.7386 144.008 48.3152 142.703 47.2993C141.397 46.2833 139.735 45.7451 138.031 45.7859C136.312 45.7708 134.641 46.3141 133.308 47.3216C131.976 48.329 131.066 49.737 130.736 51.3012Z" fill="black"/>
<path d="M158.73 37.8749C158.318 37.8899 157.908 37.8257 157.524 37.6864C157.14 37.5471 156.791 37.3358 156.499 37.0655C156.208 36.7953 155.98 36.4721 155.829 36.1163C155.679 35.7604 155.61 35.3796 155.626 34.9977C155.626 34.2347 155.953 33.5029 156.535 32.9633C157.118 32.4237 157.907 32.1206 158.73 32.1206C159.554 32.1206 160.343 32.4237 160.925 32.9633C161.508 33.5029 161.835 34.2347 161.835 34.9977C161.851 35.3796 161.782 35.7604 161.631 36.1163C161.481 36.4721 161.253 36.7953 160.961 37.0655C160.67 37.3358 160.321 37.5471 159.937 37.6864C159.553 37.8257 159.142 37.8899 158.73 37.8749Z" fill="black"/>
<path d="M161.32 42.1902H156.145V65.2072H161.32V42.1902Z" fill="black"/>
<path d="M180.599 56.3268C179.855 56.3268 179.127 56.1222 178.509 55.7391C177.89 55.3559 177.408 54.8112 177.123 54.1741C176.838 53.5368 176.764 52.8357 176.909 52.1591C177.054 51.4827 177.412 50.8614 177.939 50.3737C178.465 49.886 179.135 49.5539 179.865 49.4193C180.595 49.2847 181.351 49.3538 182.039 49.6177C182.726 49.8817 183.314 50.3287 183.728 50.9021C184.141 51.4755 184.362 52.1498 184.362 52.8395C184.381 53.3024 184.297 53.7641 184.115 54.1954C183.933 54.6267 183.657 55.0185 183.303 55.346C182.95 55.6736 182.527 55.9297 182.062 56.0986C181.597 56.2673 181.098 56.345 180.599 56.3268Z" fill="#B95BE6"/>
<path d="M189.96 56.3268C189.215 56.3268 188.488 56.1222 187.869 55.7391C187.25 55.3559 186.768 54.8112 186.483 54.1741C186.198 53.5368 186.124 52.8357 186.269 52.1591C186.414 51.4827 186.773 50.8614 187.299 50.3737C187.825 49.886 188.495 49.5539 189.225 49.4193C189.955 49.2847 190.712 49.3538 191.399 49.6177C192.087 49.8817 192.674 50.3287 193.088 50.9021C193.501 51.4755 193.722 52.1498 193.722 52.8395C193.742 53.3024 193.658 53.7641 193.476 54.1954C193.294 54.6267 193.017 55.0185 192.664 55.346C192.31 55.6736 191.888 55.9297 191.422 56.0986C190.957 56.2673 190.459 56.345 189.96 56.3268Z" fill="#B95BE6"/>
<path d="M199.321 56.3268C198.577 56.3268 197.85 56.1222 197.231 55.7391C196.612 55.3559 196.13 54.8112 195.845 54.1741C195.56 53.5368 195.486 52.8357 195.631 52.1591C195.776 51.4827 196.135 50.8614 196.661 50.3737C197.187 49.886 197.857 49.5539 198.587 49.4193C199.317 49.2847 200.074 49.3538 200.761 49.6177C201.449 49.8817 202.036 50.3287 202.45 50.9021C202.863 51.4755 203.084 52.1498 203.084 52.8395C203.104 53.3024 203.02 53.7641 202.838 54.1954C202.655 54.6267 202.379 55.0185 202.026 55.346C201.672 55.6736 201.249 55.9297 200.784 56.0986C200.319 56.2673 199.821 56.345 199.321 56.3268Z" fill="#B95BE6"/>
<path d="M185.279 47.6505C184.78 47.6687 184.281 47.591 183.816 47.4222C183.351 47.2534 182.928 46.9972 182.575 46.6697C182.221 46.3422 181.945 45.9504 181.763 45.519C181.581 45.0877 181.497 44.6261 181.516 44.1632C181.516 43.2384 181.913 42.3514 182.618 41.6974C183.324 41.0434 184.281 40.676 185.279 40.676C186.277 40.676 187.234 41.0434 187.939 41.6974C188.645 42.3514 189.042 43.2384 189.042 44.1632C189.061 44.6261 188.977 45.0877 188.795 45.519C188.613 45.9504 188.337 46.3422 187.983 46.6697C187.63 46.9972 187.207 47.2534 186.742 47.4222C186.276 47.591 185.778 47.6687 185.279 47.6505Z" fill="#B95BE6"/>
<path d="M194.641 47.6505C194.141 47.6687 193.643 47.591 193.178 47.4222C192.712 47.2535 192.29 46.9973 191.936 46.6698C191.583 46.3422 191.306 45.9505 191.124 45.5191C190.942 45.0878 190.857 44.6262 190.877 44.1632C190.877 43.2384 191.273 42.3514 191.979 41.6974C192.685 41.0434 193.642 40.676 194.64 40.676C195.637 40.676 196.594 41.0434 197.3 41.6974C198.006 42.3514 198.402 43.2384 198.402 44.1632C198.422 44.626 198.338 45.0875 198.156 45.5187C197.974 45.95 197.698 46.3417 197.344 46.6692C196.991 46.9967 196.569 47.253 196.103 47.4218C195.638 47.5907 195.14 47.6686 194.641 47.6505Z" fill="#B95BE6"/>
<path d="M189.963 38.9745C189.464 38.9927 188.965 38.915 188.5 38.7462C188.035 38.5774 187.612 38.3212 187.259 37.9937C186.905 37.6662 186.629 37.2744 186.447 36.843C186.265 36.4117 186.181 35.9501 186.2 35.4872C186.2 34.5624 186.597 33.6754 187.303 33.0214C188.008 32.3674 188.965 32 189.963 32C190.961 32 191.918 32.3674 192.624 33.0214C193.329 33.6754 193.726 34.5624 193.726 35.4872C193.745 35.9501 193.661 36.4117 193.479 36.843C193.297 37.2744 193.021 37.6662 192.667 37.9937C192.314 38.3212 191.891 38.5774 191.426 38.7462C190.96 38.915 190.462 38.9927 189.963 38.9745Z" fill="#B95BE6"/>
<path d="M189.96 65.0875C189.216 65.0875 188.488 64.883 187.87 64.4998C187.251 64.1166 186.769 63.572 186.484 62.9348C186.199 62.2975 186.125 61.5964 186.27 60.92C186.415 60.2434 186.773 59.6221 187.299 59.1344C187.826 58.6467 188.496 58.3146 189.226 58.18C189.956 58.0455 190.712 58.1145 191.4 58.3786C192.087 58.6425 192.675 59.0894 193.088 59.663C193.502 60.2364 193.723 60.9105 193.723 61.6002C193.742 62.0631 193.658 62.5248 193.476 62.9561C193.294 63.3876 193.018 63.7791 192.664 64.1067C192.311 64.4343 191.888 64.6906 191.423 64.8593C190.957 65.028 190.459 65.1057 189.96 65.0875Z" fill="#B95BE6"/>
</g>
<defs>
<clipPath id="clip0_1_3637">
<rect width="205" height="38" fill="white" transform="translate(0 32)"/>
</clipPath>
</defs>
</svg>
