<svg width="60" height="60" viewBox="0 0 60 60" fill="none" xmlns="http://www.w3.org/2000/svg">
<circle cx="30" cy="30" r="30" fill="#E0F1F8"/>
<path d="M35.4407 24.9341C35.185 24.6784 34.8285 24.5318 34.4626 24.5318C34.0915 24.5318 33.7443 24.6745 33.4846 24.9341L28.6413 29.7773L26.9688 28.1045C26.7076 27.8441 26.3605 27.7007 25.9916 27.7007C25.6224 27.7007 25.2751 27.8443 25.0136 28.1056C24.7523 28.3671 24.6083 28.7146 24.6083 29.084C24.6083 29.4538 24.7524 29.8013 25.0135 30.0622L27.664 32.713C27.9231 32.9715 28.2702 33.1139 28.641 33.1139C28.6412 33.1139 28.6411 33.1139 28.6411 33.1139C29.0122 33.1139 29.3592 32.9714 29.6195 32.712L35.4409 26.8907C35.9802 26.3515 35.9803 25.4739 35.4407 24.9341Z" fill="#5287F9"/>
<path d="M46.3675 18.1668C46.3456 17.9148 46.1929 17.6928 45.9655 17.5822L30.5314 10.0725C30.3327 9.97582 30.1005 9.97582 29.9019 10.0725L14.4679 17.5821C14.2404 17.6928 14.0877 17.9147 14.0659 18.1667C14.0462 18.3931 13.6036 23.7889 15.3086 30.3792C16.313 34.2613 17.8596 37.7439 19.9053 40.7302C22.471 44.4755 25.8287 47.4417 29.8855 49.5461C29.9893 49.6 30.1031 49.6269 30.2167 49.6269C30.3304 49.6269 30.4442 49.6 30.548 49.5461C34.6046 47.4417 37.9626 44.4756 40.5283 40.7302C42.574 37.7439 44.1206 34.2613 45.1248 30.3792C46.8298 23.7889 46.3872 18.3932 46.3675 18.1668ZM30.2166 37.8568C25.1712 37.8568 21.0666 33.7521 21.0666 28.7067C21.0666 23.6613 25.1712 19.5566 30.2166 19.5566C35.262 19.5566 39.3667 23.6613 39.3667 28.7067C39.3667 33.7521 35.262 37.8568 30.2166 37.8568Z" fill="#5287F9"/>
</svg>
