<svg width="49" height="16" viewBox="0 0 49 16" fill="none" xmlns="http://www.w3.org/2000/svg">
<path d="M9.46313 8.14552C9.46313 10.763 7.74813 12.5336 5.48188 12.5336C4.47125 12.5336 3.64438 12.2103 3.0625 11.6098V15.0741H0V3.98839H3.0625V4.66585C3.64438 4.08077 4.47125 3.74204 5.48188 3.74204C7.74813 3.72665 9.46313 5.51267 9.46313 8.14552ZM6.40063 8.14552C6.40063 7.09854 5.74219 6.29791 4.73157 6.29791C3.7975 6.29791 3.04719 7.08315 3.04719 8.14552C3.04719 9.17711 3.7975 9.96235 4.73157 9.96235C5.7575 9.96235 6.40063 9.17711 6.40063 8.14552Z" fill="white"/>
<path d="M19.1558 12.2874H16.0933V11.456C15.4502 12.1488 14.608 12.5337 13.6127 12.5337C11.7446 12.5337 10.5043 11.2404 10.5043 9.13105V3.98853H13.5821V8.46899C13.5821 9.25423 14.0415 9.77772 14.7458 9.77772C15.5574 9.77772 16.1087 9.16185 16.1087 8.00709V3.98853H19.1712V12.2874H19.1558Z" fill="white"/>
<path d="M29.3388 7.12937V12.2719H26.2609V7.79143C26.2609 7.0062 25.8016 6.48271 25.0972 6.48271C24.2856 6.48271 23.7344 7.08318 23.7344 8.25334V12.2873H20.6719V3.98843H23.7344V4.81985C24.3775 4.127 25.2197 3.74208 26.215 3.74208C28.0984 3.72668 29.3388 5.03541 29.3388 7.12937Z" fill="white"/>
<path d="M39.2613 9.16186C38.9244 11.2096 37.1022 12.5338 34.9584 12.5338C32.4625 12.5338 30.38 10.7631 30.38 8.14567C30.38 5.51282 32.4625 3.74219 34.9584 3.74219C37.0869 3.74219 38.8631 5.03552 39.2459 7.06789L36.4284 7.65297C36.2447 6.77536 35.6781 6.34425 34.9584 6.34425C33.9784 6.34425 33.32 7.14488 33.32 8.14567C33.32 9.14646 33.9784 9.9317 34.9584 9.9317C35.6781 9.9317 36.2447 9.48519 36.4591 8.62297L39.2613 9.16186Z" fill="white"/>
<path d="M49 7.12947V12.272H45.9222V7.79154C45.9222 7.0063 45.4628 6.48281 44.7584 6.48281C43.9469 6.48281 43.3956 7.08328 43.3956 8.25344V12.2874H40.3331V0.447266H43.3956V4.81995C44.0388 4.1271 44.8809 3.74218 45.8763 3.74218C47.7597 3.72678 49 5.03551 49 7.12947Z" fill="white"/>
</svg>
