<svg width="60" height="60" viewBox="0 0 60 60" fill="none" xmlns="http://www.w3.org/2000/svg">
<circle cx="30" cy="30" r="30" fill="#EA2020" fill-opacity="0.6"/>
<g clip-path="url(#clip0_1_3119)">
<path d="M50.0001 49.3122H11C10.779 49.3122 10.6 49.1331 10.6 48.9122V46.999C10.6 46.7781 10.779 46.5991 11 46.5991H50.0001C50.221 46.5991 50.4001 46.7781 50.4001 46.999V48.9122C50.4001 49.1331 50.2209 49.3122 50.0001 49.3122Z" fill="#5A5A5A"/>
<path d="M22.03 46.5991H15.1312V37.6162C15.1312 37.3953 15.3103 37.2162 15.5312 37.2162H21.63C21.851 37.2162 22.03 37.3953 22.03 37.6162V46.5991Z" fill="#FB2B3A"/>
<path d="M22.0299 37.6166V46.5991H20.0758V37.6166C20.0758 37.395 19.8966 37.2166 19.6758 37.2166H21.6299C21.8507 37.2166 22.0299 37.395 22.0299 37.6166Z" fill="#E41F2D"/>
<path d="M33.9494 46.5991H27.0506V31.0545C27.0506 30.8335 27.2297 30.6545 27.4506 30.6545H33.5494C33.7704 30.6545 33.9494 30.8335 33.9494 31.0545V46.5991Z" fill="#00C27A"/>
<path d="M33.9493 31.0548V46.5991H31.9951V31.0548C31.9951 30.8333 31.8159 30.6548 31.5952 30.6548H33.5493C33.7701 30.6548 33.9493 30.8333 33.9493 31.0548Z" fill="#08B865"/>
<path d="M45.8687 46.5991H38.9698V23.4587C38.9698 23.2378 39.1489 23.0587 39.3698 23.0587H45.4687C45.6896 23.0587 45.8687 23.2378 45.8687 23.4587V46.5991Z" fill="#8AC9FE"/>
<path d="M45.8687 23.459V46.599H43.9146V23.459C43.9146 23.2374 43.7354 23.059 43.5146 23.059H45.4687C45.6895 23.059 45.8687 23.2374 45.8687 23.459Z" fill="#60B7FF"/>
<path d="M19.3665 25.2753L20.3061 27.1792C20.3678 27.3041 20.487 27.3907 20.6249 27.4108L22.7259 27.7161C23.4448 27.8206 23.7318 28.704 23.2117 29.211L21.6913 30.693C21.5916 30.7902 21.5461 30.9304 21.5696 31.0677L21.9285 33.1603C22.0513 33.8763 21.2998 34.4223 20.6569 34.0842L18.7776 33.0962C18.6543 33.0313 18.507 33.0313 18.3837 33.0962L16.5044 34.0842C15.8615 34.4222 15.11 33.8762 15.2328 33.1603L15.5917 31.0677C15.6152 30.9304 15.5698 30.7903 15.47 30.693L13.9495 29.2109C13.4293 28.7039 13.7164 27.8205 14.4352 27.7161L16.5363 27.4107C16.6742 27.3907 16.7934 27.3041 16.855 27.1791L17.7947 25.2752C18.1162 24.6239 19.045 24.6239 19.3665 25.2753Z" fill="#FFBD5A"/>
<path d="M21.6915 30.693C21.5909 30.7905 21.5466 30.9295 21.5702 31.0671L21.928 33.1607C22.0507 33.8764 21.2997 34.422 20.6565 34.0834L18.7772 33.0957C18.6544 33.0307 18.5066 33.0307 18.3839 33.0957L16.5046 34.0834C15.8614 34.422 15.1103 33.8764 15.233 33.1607L15.3144 32.6832C15.3573 32.6699 15.4001 32.6507 15.4431 32.6285C15.7194 32.483 15.9958 32.3375 16.2723 32.192C16.6887 31.9729 17.1055 31.7489 17.5473 31.5841C17.9084 31.4493 18.2949 31.3965 18.6784 31.3821C19.0925 31.3664 19.7044 31.653 19.9608 31.1767C20.0397 31.0301 20.015 30.8253 20.0431 30.6661C20.1731 29.926 20.5971 29.2674 21.1415 28.747C21.4829 28.4217 21.8123 28.0842 22.1499 27.7551C22.1854 27.7196 22.2179 27.6841 22.2446 27.6457L22.7266 27.7166C23.4452 27.8202 23.732 28.7044 23.2115 29.2115L21.6915 30.693Z" fill="#FEB35C"/>
<path d="M31.2858 17.9756L32.2255 19.8796C32.2871 20.0045 32.4063 20.0911 32.5442 20.1112L34.6453 20.4165C35.3641 20.5209 35.6511 21.4043 35.131 21.9114L33.6107 23.3934C33.5109 23.4906 33.4654 23.6308 33.489 23.7681L33.8479 25.8607C33.9706 26.5767 33.2192 27.1226 32.5762 26.7846L30.697 25.7966C30.5736 25.7317 30.4263 25.7317 30.303 25.7966L28.4238 26.7846C27.7808 27.1226 27.0294 26.5766 27.1521 25.8607L27.511 23.7681C27.5346 23.6308 27.4891 23.4907 27.3893 23.3934L25.869 21.9114C25.3488 21.4043 25.6359 20.5209 26.3547 20.4165L28.4558 20.1112C28.5937 20.0911 28.7129 20.0046 28.7745 19.8796L29.7142 17.9756C30.0355 17.3242 30.9644 17.3242 31.2858 17.9756Z" fill="#FFBD5A"/>
<path d="M33.6109 23.3934C33.5103 23.4909 33.466 23.6299 33.4896 23.7675L33.8474 25.8611C33.9701 26.5768 33.219 27.1224 32.5758 26.7838L30.6966 25.7961C30.5738 25.7311 30.426 25.7311 30.3032 25.7961L28.424 26.7838C27.7808 27.1224 27.0296 26.5768 27.1524 25.8611L27.2338 25.3835C27.2767 25.3702 27.3195 25.351 27.3624 25.3288C27.6388 25.1833 27.9152 25.0379 28.1916 24.8924C28.6081 24.6732 29.0249 24.4493 29.4667 24.2845C29.8277 24.1497 30.2143 24.0968 30.5978 24.0824C31.0118 24.0668 31.6238 24.3534 31.8802 23.877C31.9591 23.7305 31.9344 23.5257 31.9624 23.3665C32.0925 22.6264 32.5165 21.9678 33.0609 21.4474C33.4023 21.1221 33.7317 20.7845 34.0693 20.4555C34.1048 20.42 34.1373 20.3845 34.164 20.3461L34.6459 20.417C35.3646 20.5206 35.6514 21.4048 35.1309 21.9119L33.6109 23.3934Z" fill="#FEB35C"/>
<path d="M43.2051 10.1764L44.1447 12.0803C44.2064 12.2052 44.3255 12.2918 44.4634 12.3119L46.5645 12.6172C47.2834 12.7217 47.5704 13.6051 47.0503 14.1121L45.5299 15.5941C45.4301 15.6914 45.3847 15.8315 45.4082 15.9688L45.7671 18.0614C45.8899 18.7774 45.1384 19.3234 44.4955 18.9853L42.6162 17.9973C42.4929 17.9324 42.3455 17.9324 42.2223 17.9973L40.343 18.9853C39.7001 19.3233 38.9486 18.7773 39.0714 18.0614L39.4303 15.9688C39.4538 15.8315 39.4083 15.6914 39.3086 15.5941L37.7882 14.1121C37.268 13.6051 37.5551 12.7217 38.274 12.6172L40.3751 12.3119C40.5129 12.2919 40.6321 12.2053 40.6938 12.0803L41.6334 10.1764C41.9548 9.52495 42.8837 9.52495 43.2051 10.1764Z" fill="#FFBD5A"/>
<path d="M45.5304 15.594C45.4298 15.6916 45.3855 15.8306 45.4091 15.9682L45.7669 18.0618C45.8896 18.7775 45.1385 19.323 44.4953 18.9845L42.6161 17.9968C42.4933 17.9318 42.3455 17.9318 42.2227 17.9968L40.3435 18.9845C39.7003 19.323 38.9491 18.7775 39.0719 18.0618L39.1532 17.5842C39.1962 17.5709 39.239 17.5517 39.2819 17.5295C39.5583 17.384 39.8347 17.2386 40.1111 17.0931C40.5275 16.8739 40.9444 16.65 41.3861 16.4852C41.7472 16.3504 42.1338 16.2975 42.5173 16.2831C42.9313 16.2675 43.5433 16.5541 43.7997 16.0777C43.8786 15.9312 43.8539 15.7263 43.8819 15.5671C44.012 14.8271 44.436 14.1685 44.9804 13.6481C45.3217 13.3228 45.6512 12.9852 45.9888 12.6561C46.0243 12.6207 46.0568 12.5852 46.0835 12.5468L46.5654 12.6177C47.2841 12.7212 47.5709 13.6055 47.0504 14.1126L45.5304 15.594Z" fill="#FEB35C"/>
<path d="M50.0001 45.9991H46.4688V23.4587C46.4688 22.9073 46.0202 22.4587 45.4688 22.4587H43.1873C42.856 22.4587 42.5874 22.7273 42.5874 23.0587C42.5874 23.39 42.856 23.6586 43.1873 23.6586H45.2689V45.9991H39.57V23.6586H40.3662C40.6975 23.6586 40.9661 23.39 40.9661 23.0587C40.9661 22.7273 40.6975 22.4587 40.3662 22.4587H39.37C38.8187 22.4587 38.3701 22.9073 38.3701 23.4587V45.9991H34.5495V31.0544C34.5495 30.5031 34.1009 30.0545 33.5495 30.0545H27.4506C26.8993 30.0545 26.4507 30.5031 26.4507 31.0544V45.9991H22.63V37.6162C22.63 37.0649 22.1814 36.6163 21.6301 36.6163H15.5312C14.9799 36.6163 14.5313 37.0649 14.5313 37.6162V40.2993C14.5313 40.6306 14.7999 40.8992 15.1312 40.8992C15.4626 40.8992 15.7312 40.6306 15.7312 40.2993V37.8163H21.43V45.9991H15.7312V43.0893C15.7312 42.7579 15.4626 42.4893 15.1312 42.4893C14.7999 42.4893 14.5313 42.7579 14.5313 43.0893V45.9991H10.9999C10.4486 45.9991 10 46.4477 10 46.9991V48.9122C10 49.4636 10.4486 49.9122 10.9999 49.9122H50.0001C50.5514 49.9122 51 49.4636 51 48.9122V46.9991C51 46.4477 50.5514 45.9991 50.0001 45.9991ZM27.6506 31.2544H33.3495V45.9991H27.6506V31.2544ZM49.8 48.7123H11.2V47.1991H15.1313H22.0301H27.0507H33.9495H38.97H45.8688H49.8001V48.7123H49.8Z" fill="black"/>
<path d="M14.9846 31.0576L14.6414 33.0587C14.5457 33.6167 14.7708 34.17 15.2287 34.5027C15.4876 34.6907 15.7903 34.7863 16.0951 34.7863C16.3297 34.7863 16.5656 34.7296 16.7835 34.6151L18.5806 33.6704L20.3776 34.6151C20.8786 34.8785 21.4743 34.8354 21.9324 34.5028C22.3904 34.17 22.6155 33.6166 22.5198 33.0587L22.1766 31.0576L23.6304 29.6405C24.0357 29.2454 24.1789 28.6655 24.004 28.1271C23.8291 27.5887 23.3725 27.2036 22.8122 27.1222L20.8031 26.8302L19.9046 25.0097C19.654 24.502 19.1467 24.1867 18.5806 24.1867C18.0145 24.1867 17.5072 24.5021 17.2567 25.0097L16.3582 26.8302L14.349 27.1222C13.7888 27.2036 13.3322 27.5886 13.1572 28.1271C12.9823 28.6656 13.1254 29.2454 13.5308 29.6404L14.9846 31.0576ZM14.2984 28.4979C14.3144 28.4487 14.3681 28.332 14.5216 28.3097L16.6225 28.0044C16.9559 27.9561 17.2439 27.7467 17.3931 27.4446L18.3327 25.5407C18.4014 25.4017 18.5289 25.3866 18.5806 25.3866C18.6322 25.3866 18.7598 25.4016 18.8285 25.5407L19.7681 27.4445C19.9172 27.7467 20.2053 27.956 20.5386 28.0044L22.6397 28.3097C22.7932 28.332 22.8468 28.4487 22.8628 28.4979C22.8788 28.547 22.904 28.673 22.7928 28.7812L21.2726 30.2631C21.0313 30.4981 20.9213 30.8369 20.9783 31.1689L21.3372 33.2615C21.3634 33.4143 21.269 33.5016 21.2272 33.5319C21.1853 33.5623 21.0732 33.6252 20.9361 33.5529L19.0568 32.5649C18.9077 32.4865 18.7441 32.4473 18.5806 32.4473C18.4171 32.4473 18.2535 32.4866 18.1044 32.5649L16.2251 33.5529C16.0877 33.6251 15.9758 33.5623 15.934 33.5319C15.8922 33.5015 15.7978 33.4143 15.824 33.2615L16.1829 31.169C16.2399 30.8369 16.1298 30.4982 15.8887 30.2632L14.3683 28.7813C14.2572 28.673 14.2824 28.547 14.2984 28.4979Z" fill="black"/>
<path d="M26.9038 23.758L26.5606 25.7592C26.4649 26.3171 26.69 26.8703 27.1479 27.2031C27.4067 27.3911 27.7095 27.4866 28.0144 27.4866C28.249 27.4866 28.4848 27.43 28.7028 27.3155L30.4998 26.3707L32.2969 27.3155C32.7979 27.579 33.3937 27.5359 33.8518 27.2031C34.3098 26.8703 34.5348 26.317 34.4391 25.7592L34.0958 23.758L35.5497 22.3409C35.9551 21.9458 36.0982 21.3659 35.9233 20.8275C35.7484 20.289 35.2917 19.9041 34.7314 19.8227L32.7223 19.5307L31.8238 17.71C31.5732 17.2024 31.0659 16.8871 30.4998 16.8871C29.9338 16.8871 29.4265 17.2024 29.1759 17.71L28.2774 19.5307L26.2682 19.8227C25.708 19.9041 25.2514 20.289 25.0764 20.8275C24.9014 21.3658 25.0445 21.9458 25.4499 22.341L26.9038 23.758ZM26.2176 21.1983C26.2336 21.1491 26.2872 21.0325 26.4408 21.0101L28.542 20.7048C28.8753 20.6563 29.1632 20.4471 29.3123 20.1451L30.2519 18.2411C30.3205 18.102 30.4481 18.0871 30.4998 18.0871C30.5514 18.0871 30.679 18.102 30.7476 18.2411L31.6874 20.1453C31.8364 20.4472 32.1244 20.6563 32.4577 20.7048L34.5588 21.0101C34.7123 21.0325 34.766 21.1492 34.782 21.1983C34.7979 21.2475 34.8231 21.3734 34.712 21.4816L33.1917 22.9637C32.9505 23.1988 32.8406 23.5373 32.8975 23.8693L33.2564 25.9619C33.2825 26.1148 33.1881 26.2019 33.1463 26.2323C33.1045 26.2626 32.9924 26.3257 32.8552 26.2533L30.976 25.2653C30.827 25.1869 30.6634 25.1477 30.4998 25.1477C30.3362 25.1477 30.1726 25.1869 30.0235 25.2653L28.1443 26.2533C28.0068 26.3256 27.8949 26.2626 27.8532 26.2323C27.8114 26.2019 27.717 26.1148 27.7432 25.9619L28.1021 23.8693C28.1591 23.5374 28.0491 23.1988 27.8078 22.9636L26.2875 21.4817C26.1765 21.3734 26.2016 21.2475 26.2176 21.1983Z" fill="black"/>
<path d="M38.8232 15.9587L38.48 17.9598C38.3842 18.5177 38.6093 19.071 39.0673 19.4038C39.5254 19.7365 40.121 19.7795 40.6222 19.5162L42.4192 18.5714L44.2163 19.5162C44.4342 19.6307 44.6701 19.6873 44.9048 19.6873C45.2096 19.6873 45.5124 19.5918 45.7711 19.4038C46.2292 19.071 46.4542 18.5177 46.3584 17.9598L46.0152 15.9587L47.469 14.5416C47.8745 14.1465 48.0176 13.5665 47.8427 13.0283C47.6678 12.4898 47.2111 12.1048 46.6509 12.0234L44.6417 11.7313L43.7432 9.91073C43.4926 9.40312 42.9853 9.08777 42.4192 9.08777C41.8531 9.08777 41.3459 9.40312 41.0953 9.91073L40.1967 11.7313L38.1877 12.0234C37.6274 12.1047 37.1707 12.4897 36.9958 13.0282C36.8209 13.5665 36.964 14.1465 37.3693 14.5416L38.8232 15.9587ZM38.137 13.399C38.153 13.3498 38.2066 13.2332 38.3602 13.2108L40.4611 12.9055C40.7947 12.8571 41.0828 12.6479 41.2317 12.3457L42.1714 10.4419C42.2401 10.3028 42.3676 10.2878 42.4192 10.2878C42.4708 10.2878 42.5985 10.3028 42.6671 10.4419L43.6068 12.3458C43.7559 12.6479 44.044 12.8572 44.3771 12.9055L46.4783 13.2108C46.6318 13.2332 46.6855 13.3499 46.7015 13.399C46.7174 13.4482 46.7426 13.5741 46.6315 13.6823L45.111 15.1644C44.87 15.3995 44.76 15.738 44.8168 16.0701L45.1757 18.1626C45.2019 18.3156 45.1075 18.4027 45.0657 18.433C45.024 18.4635 44.9119 18.5263 44.7746 18.454L42.8954 17.4661C42.7463 17.3877 42.5827 17.3485 42.4191 17.3485C42.2555 17.3485 42.092 17.3877 41.943 17.466L40.0637 18.454C39.9265 18.5263 39.8144 18.4633 39.7726 18.433C39.7308 18.4026 39.6364 18.3156 39.6625 18.1626L40.0214 16.0703C40.0785 15.7383 39.9685 15.3997 39.7272 15.1643L38.2069 13.6823C38.0958 13.5741 38.121 13.4481 38.137 13.399Z" fill="black"/>
</g>
<defs>
<clipPath id="clip0_1_3119">
<rect width="41" height="41" fill="white" transform="translate(10 9)"/>
</clipPath>
</defs>
</svg>
