<svg width="196" height="100" viewBox="0 0 196 100" fill="none" xmlns="http://www.w3.org/2000/svg">
<path d="M40.216 10.704C40.792 9.808 41.8053 9.36 43.256 9.36V11.264C43.0853 11.232 42.9307 11.216 42.792 11.216C42.0133 11.216 41.4053 11.4453 40.968 11.904C40.5307 12.352 40.312 13.0027 40.312 13.856V18H38.312V9.456H40.216V10.704ZM52.9065 13.776C52.9065 13.9147 52.8958 14.112 52.8745 14.368H46.1705C46.2878 14.9973 46.5918 15.4987 47.0825 15.872C47.5838 16.2347 48.2025 16.416 48.9385 16.416C49.8772 16.416 50.6505 16.1067 51.2585 15.488L52.3305 16.72C51.9465 17.1787 51.4612 17.5253 50.8745 17.76C50.2878 17.9947 49.6265 18.112 48.8905 18.112C47.9518 18.112 47.1252 17.9253 46.4105 17.552C45.6958 17.1787 45.1412 16.6613 44.7465 16C44.3625 15.328 44.1705 14.5707 44.1705 13.728C44.1705 12.896 44.3572 12.1493 44.7305 11.488C45.1145 10.816 45.6425 10.2933 46.3145 9.92C46.9865 9.54667 47.7438 9.36 48.5865 9.36C49.4185 9.36 50.1598 9.54667 50.8105 9.92C51.4718 10.2827 51.9838 10.8 52.3465 11.472C52.7198 12.1333 52.9065 12.9013 52.9065 13.776ZM48.5865 10.96C47.9465 10.96 47.4025 11.152 46.9545 11.536C46.5172 11.9093 46.2505 12.4107 46.1545 13.04H51.0025C50.9172 12.4213 50.6558 11.92 50.2185 11.536C49.7812 11.152 49.2372 10.96 48.5865 10.96ZM58.7476 18.112C57.8623 18.112 57.0676 17.9253 56.3636 17.552C55.6596 17.1787 55.1103 16.6613 54.7156 16C54.321 15.328 54.1236 14.5707 54.1236 13.728C54.1236 12.8853 54.321 12.1333 54.7156 11.472C55.1103 10.8107 55.6543 10.2933 56.3476 9.92C57.0516 9.54667 57.8516 9.36 58.7476 9.36C59.5903 9.36 60.3263 9.53067 60.9556 9.872C61.5956 10.2133 62.0756 10.704 62.3956 11.344L60.8596 12.24C60.6143 11.8453 60.305 11.552 59.9316 11.36C59.569 11.1573 59.169 11.056 58.7316 11.056C57.985 11.056 57.3663 11.3013 56.8756 11.792C56.385 12.272 56.1396 12.9173 56.1396 13.728C56.1396 14.5387 56.3796 15.1893 56.8596 15.68C57.3503 16.16 57.9743 16.4 58.7316 16.4C59.169 16.4 59.569 16.304 59.9316 16.112C60.305 15.9093 60.6143 15.6107 60.8596 15.216L62.3956 16.112C62.065 16.752 61.5796 17.248 60.9396 17.6C60.3103 17.9413 59.5796 18.112 58.7476 18.112ZM66.0285 10.704C66.6045 9.808 67.6178 9.36 69.0685 9.36V11.264C68.8978 11.232 68.7432 11.216 68.6045 11.216C67.8258 11.216 67.2178 11.4453 66.7805 11.904C66.3432 12.352 66.1245 13.0027 66.1245 13.856V18H64.1245V9.456H66.0285V10.704ZM74.527 18.112C73.663 18.112 72.8843 17.9253 72.191 17.552C71.4977 17.1787 70.9537 16.6613 70.559 16C70.175 15.328 69.983 14.5707 69.983 13.728C69.983 12.8853 70.175 12.1333 70.559 11.472C70.9537 10.8107 71.4977 10.2933 72.191 9.92C72.8843 9.54667 73.663 9.36 74.527 9.36C75.4017 9.36 76.1857 9.54667 76.879 9.92C77.5723 10.2933 78.111 10.8107 78.495 11.472C78.8897 12.1333 79.087 12.8853 79.087 13.728C79.087 14.5707 78.8897 15.328 78.495 16C78.111 16.6613 77.5723 17.1787 76.879 17.552C76.1857 17.9253 75.4017 18.112 74.527 18.112ZM74.527 16.4C75.263 16.4 75.871 16.1547 76.351 15.664C76.831 15.1733 77.071 14.528 77.071 13.728C77.071 12.928 76.831 12.2827 76.351 11.792C75.871 11.3013 75.263 11.056 74.527 11.056C73.791 11.056 73.183 11.3013 72.703 11.792C72.2337 12.2827 71.999 12.928 71.999 13.728C71.999 14.528 72.2337 15.1733 72.703 15.664C73.183 16.1547 73.791 16.4 74.527 16.4ZM94.0931 9.456L90.9411 18H89.0211L86.8131 12.112L84.5731 18H82.6531L79.5171 9.456H81.4051L83.6611 15.76L86.0131 9.456H87.6931L89.9971 15.792L92.3171 9.456H94.0931ZM103.602 6.128V18H101.682V16.896C101.351 17.3013 100.941 17.6053 100.45 17.808C99.9699 18.0107 99.4365 18.112 98.8499 18.112C98.0285 18.112 97.2872 17.9307 96.6259 17.568C95.9752 17.2053 95.4632 16.6933 95.0899 16.032C94.7165 15.36 94.5299 14.592 94.5299 13.728C94.5299 12.864 94.7165 12.1013 95.0899 11.44C95.4632 10.7787 95.9752 10.2667 96.6259 9.904C97.2872 9.54133 98.0285 9.36 98.8499 9.36C99.4152 9.36 99.9325 9.456 100.402 9.648C100.871 9.84 101.271 10.128 101.602 10.512V6.128H103.602ZM99.0899 16.4C99.5699 16.4 100.002 16.2933 100.386 16.08C100.77 15.856 101.074 15.5413 101.298 15.136C101.522 14.7307 101.634 14.2613 101.634 13.728C101.634 13.1947 101.522 12.7253 101.298 12.32C101.074 11.9147 100.77 11.6053 100.386 11.392C100.002 11.168 99.5699 11.056 99.0899 11.056C98.6099 11.056 98.1779 11.168 97.7939 11.392C97.4099 11.6053 97.1059 11.9147 96.8819 12.32C96.6579 12.7253 96.5459 13.1947 96.5459 13.728C96.5459 14.2613 96.6579 14.7307 96.8819 15.136C97.1059 15.5413 97.4099 15.856 97.7939 16.08C98.1779 16.2933 98.6099 16.4 99.0899 16.4ZM106.218 6.128H108.218V18H106.218V6.128ZM118.843 9.456L114.843 18.688C114.47 19.616 114.017 20.2667 113.483 20.64C112.95 21.024 112.305 21.216 111.547 21.216C111.121 21.216 110.699 21.1467 110.283 21.008C109.867 20.8693 109.526 20.6773 109.259 20.432L110.059 18.96C110.251 19.1413 110.475 19.2853 110.731 19.392C110.998 19.4987 111.265 19.552 111.531 19.552C111.883 19.552 112.171 19.4613 112.395 19.28C112.63 19.0987 112.843 18.7947 113.035 18.368L113.179 18.032L109.451 9.456H111.531L114.219 15.776L116.923 9.456H118.843ZM120.202 18.112C119.839 18.112 119.53 17.9893 119.274 17.744C119.018 17.488 118.89 17.168 118.89 16.784C118.89 16.3893 119.013 16.0693 119.258 15.824C119.514 15.5787 119.829 15.456 120.202 15.456C120.575 15.456 120.885 15.5787 121.13 15.824C121.386 16.0693 121.514 16.3893 121.514 16.784C121.514 17.168 121.386 17.488 121.13 17.744C120.874 17.9893 120.565 18.112 120.202 18.112ZM127.232 18.112C126.347 18.112 125.552 17.9253 124.848 17.552C124.144 17.1787 123.595 16.6613 123.2 16C122.805 15.328 122.608 14.5707 122.608 13.728C122.608 12.8853 122.805 12.1333 123.2 11.472C123.595 10.8107 124.139 10.2933 124.832 9.92C125.536 9.54667 126.336 9.36 127.232 9.36C128.075 9.36 128.811 9.53067 129.44 9.872C130.08 10.2133 130.56 10.704 130.88 11.344L129.344 12.24C129.099 11.8453 128.789 11.552 128.416 11.36C128.053 11.1573 127.653 11.056 127.216 11.056C126.469 11.056 125.851 11.3013 125.36 11.792C124.869 12.272 124.624 12.9173 124.624 13.728C124.624 14.5387 124.864 15.1893 125.344 15.68C125.835 16.16 126.459 16.4 127.216 16.4C127.653 16.4 128.053 16.304 128.416 16.112C128.789 15.9093 129.099 15.6107 129.344 15.216L130.88 16.112C130.549 16.752 130.064 17.248 129.424 17.6C128.795 17.9413 128.064 18.112 127.232 18.112ZM136.324 18.112C135.46 18.112 134.681 17.9253 133.988 17.552C133.295 17.1787 132.751 16.6613 132.356 16C131.972 15.328 131.78 14.5707 131.78 13.728C131.78 12.8853 131.972 12.1333 132.356 11.472C132.751 10.8107 133.295 10.2933 133.988 9.92C134.681 9.54667 135.46 9.36 136.324 9.36C137.199 9.36 137.983 9.54667 138.676 9.92C139.369 10.2933 139.908 10.8107 140.292 11.472C140.687 12.1333 140.884 12.8853 140.884 13.728C140.884 14.5707 140.687 15.328 140.292 16C139.908 16.6613 139.369 17.1787 138.676 17.552C137.983 17.9253 137.199 18.112 136.324 18.112ZM136.324 16.4C137.06 16.4 137.668 16.1547 138.148 15.664C138.628 15.1733 138.868 14.528 138.868 13.728C138.868 12.928 138.628 12.2827 138.148 11.792C137.668 11.3013 137.06 11.056 136.324 11.056C135.588 11.056 134.98 11.3013 134.5 11.792C134.031 12.2827 133.796 12.928 133.796 13.728C133.796 14.528 134.031 15.1733 134.5 15.664C134.98 16.1547 135.588 16.4 136.324 16.4ZM153.58 9.36C154.658 9.36 155.511 9.67467 156.14 10.304C156.77 10.9227 157.084 11.856 157.084 13.104V18H155.084V13.36C155.084 12.6133 154.919 12.0533 154.588 11.68C154.258 11.296 153.783 11.104 153.164 11.104C152.492 11.104 151.954 11.328 151.548 11.776C151.143 12.2133 150.94 12.8427 150.94 13.664V18H148.94V13.36C148.94 12.6133 148.775 12.0533 148.444 11.68C148.114 11.296 147.639 11.104 147.02 11.104C146.338 11.104 145.794 11.3227 145.388 11.76C144.994 12.1973 144.796 12.832 144.796 13.664V18H142.796V9.456H144.7V10.544C145.02 10.16 145.42 9.86667 145.9 9.664C146.38 9.46133 146.914 9.36 147.5 9.36C148.14 9.36 148.706 9.48267 149.196 9.728C149.698 9.96267 150.092 10.3147 150.38 10.784C150.732 10.336 151.186 9.98933 151.74 9.744C152.295 9.488 152.908 9.36 153.58 9.36Z" fill="#222222"/>
<path d="M40.976 85.51C42.0027 85.51 42.7867 85.762 43.328 86.266C43.8787 86.77 44.154 87.5213 44.154 88.52V93H42.88V92.02C42.656 92.3653 42.334 92.6313 41.914 92.818C41.5033 92.9953 41.0133 93.084 40.444 93.084C39.6133 93.084 38.946 92.8833 38.442 92.482C37.9473 92.0807 37.7 91.5533 37.7 90.9C37.7 90.2467 37.938 89.724 38.414 89.332C38.89 88.9307 39.646 88.73 40.682 88.73H42.81V88.464C42.81 87.8853 42.642 87.442 42.306 87.134C41.97 86.826 41.4753 86.672 40.822 86.672C40.3833 86.672 39.954 86.7467 39.534 86.896C39.114 87.036 38.7593 87.2273 38.47 87.47L37.91 86.462C38.2927 86.154 38.75 85.9207 39.282 85.762C39.814 85.594 40.3787 85.51 40.976 85.51ZM40.668 92.048C41.1813 92.048 41.6247 91.936 41.998 91.712C42.3713 91.4787 42.642 91.152 42.81 90.732V89.696H40.738C39.5993 89.696 39.03 90.0787 39.03 90.844C39.03 91.2173 39.1747 91.5113 39.464 91.726C39.7533 91.9407 40.1547 92.048 40.668 92.048ZM50.6032 85.51C51.5459 85.51 52.2925 85.7853 52.8432 86.336C53.4032 86.8773 53.6832 87.6753 53.6832 88.73V93H52.3392V88.884C52.3392 88.1653 52.1665 87.624 51.8212 87.26C51.4759 86.896 50.9812 86.714 50.3372 86.714C49.6092 86.714 49.0352 86.9287 48.6152 87.358C48.1952 87.778 47.9852 88.3847 47.9852 89.178V93H46.6412V85.58H47.9292V86.7C48.1999 86.3173 48.5639 86.0233 49.0212 85.818C49.4879 85.6127 50.0152 85.51 50.6032 85.51ZM56.1705 85.58H57.5145V93H56.1705V85.58ZM56.8425 84.152C56.5812 84.152 56.3618 84.068 56.1845 83.9C56.0165 83.732 55.9325 83.5267 55.9325 83.284C55.9325 83.0413 56.0165 82.836 56.1845 82.668C56.3618 82.4907 56.5812 82.402 56.8425 82.402C57.1038 82.402 57.3185 82.486 57.4865 82.654C57.6638 82.8127 57.7525 83.0133 57.7525 83.256C57.7525 83.508 57.6638 83.7227 57.4865 83.9C57.3185 84.068 57.1038 84.152 56.8425 84.152ZM69.3626 85.51C70.296 85.51 71.0333 85.7807 71.5746 86.322C72.1253 86.8633 72.4006 87.666 72.4006 88.73V93H71.0566V88.884C71.0566 88.1653 70.8886 87.624 70.5526 87.26C70.226 86.896 69.7546 86.714 69.1386 86.714C68.4573 86.714 67.916 86.9287 67.5146 87.358C67.1133 87.778 66.9126 88.3847 66.9126 89.178V93H65.5686V88.884C65.5686 88.1653 65.4006 87.624 65.0646 87.26C64.738 86.896 64.2666 86.714 63.6506 86.714C62.9693 86.714 62.428 86.9287 62.0266 87.358C61.6253 87.778 61.4246 88.3847 61.4246 89.178V93H60.0806V85.58H61.3686V86.686C61.6393 86.3033 61.994 86.014 62.4326 85.818C62.8713 85.6127 63.3706 85.51 63.9306 85.51C64.5093 85.51 65.0226 85.6267 65.4706 85.86C65.9186 86.0933 66.264 86.434 66.5066 86.882C66.7866 86.4527 67.174 86.1167 67.6686 85.874C68.1726 85.6313 68.7373 85.51 69.3626 85.51ZM77.5756 85.51C78.6023 85.51 79.3863 85.762 79.9276 86.266C80.4783 86.77 80.7536 87.5213 80.7536 88.52V93H79.4796V92.02C79.2556 92.3653 78.9336 92.6313 78.5136 92.818C78.1029 92.9953 77.6129 93.084 77.0436 93.084C76.2129 93.084 75.5456 92.8833 75.0416 92.482C74.5469 92.0807 74.2996 91.5533 74.2996 90.9C74.2996 90.2467 74.5376 89.724 75.0136 89.332C75.4896 88.9307 76.2456 88.73 77.2816 88.73H79.4096V88.464C79.4096 87.8853 79.2416 87.442 78.9056 87.134C78.5696 86.826 78.0749 86.672 77.4216 86.672C76.9829 86.672 76.5536 86.7467 76.1336 86.896C75.7136 87.036 75.3589 87.2273 75.0696 87.47L74.5096 86.462C74.8923 86.154 75.3496 85.9207 75.8816 85.762C76.4136 85.594 76.9783 85.51 77.5756 85.51ZM77.2676 92.048C77.7809 92.048 78.2243 91.936 78.5976 91.712C78.9709 91.4787 79.2416 91.152 79.4096 90.732V89.696H77.3376C76.1989 89.696 75.6296 90.0787 75.6296 90.844C75.6296 91.2173 75.7743 91.5113 76.0636 91.726C76.3529 91.9407 76.7543 92.048 77.2676 92.048ZM87.4128 92.566C87.2168 92.734 86.9741 92.8647 86.6848 92.958C86.3955 93.042 86.0968 93.084 85.7888 93.084C85.0421 93.084 84.4635 92.8833 84.0528 92.482C83.6421 92.0807 83.4368 91.5067 83.4368 90.76V86.686H82.1768V85.58H83.4368V83.956H84.7808V85.58H86.9088V86.686H84.7808V90.704C84.7808 91.1053 84.8788 91.4133 85.0748 91.628C85.2801 91.8427 85.5695 91.95 85.9428 91.95C86.3535 91.95 86.7035 91.8333 86.9928 91.6L87.4128 92.566ZM89.0377 85.58H90.3817V93H89.0377V85.58ZM89.7097 84.152C89.4483 84.152 89.229 84.068 89.0517 83.9C88.8837 83.732 88.7997 83.5267 88.7997 83.284C88.7997 83.0413 88.8837 82.836 89.0517 82.668C89.229 82.4907 89.4483 82.402 89.7097 82.402C89.971 82.402 90.1857 82.486 90.3537 82.654C90.531 82.8127 90.6197 83.0133 90.6197 83.256C90.6197 83.508 90.531 83.7227 90.3537 83.9C90.1857 84.068 89.971 84.152 89.7097 84.152ZM96.1258 93.084C95.3885 93.084 94.7258 92.9207 94.1378 92.594C93.5498 92.2673 93.0878 91.8193 92.7518 91.25C92.4252 90.6713 92.2618 90.018 92.2618 89.29C92.2618 88.562 92.4252 87.9133 92.7518 87.344C93.0878 86.7653 93.5498 86.3173 94.1378 86C94.7258 85.6733 95.3885 85.51 96.1258 85.51C96.8632 85.51 97.5212 85.6733 98.0998 86C98.6878 86.3173 99.1452 86.7653 99.4718 87.344C99.8078 87.9133 99.9758 88.562 99.9758 89.29C99.9758 90.018 99.8078 90.6713 99.4718 91.25C99.1452 91.8193 98.6878 92.2673 98.0998 92.594C97.5212 92.9207 96.8632 93.084 96.1258 93.084ZM96.1258 91.908C96.6018 91.908 97.0265 91.8007 97.3998 91.586C97.7825 91.362 98.0812 91.054 98.2958 90.662C98.5105 90.2607 98.6178 89.8033 98.6178 89.29C98.6178 88.7767 98.5105 88.324 98.2958 87.932C98.0812 87.5307 97.7825 87.2227 97.3998 87.008C97.0265 86.7933 96.6018 86.686 96.1258 86.686C95.6498 86.686 95.2205 86.7933 94.8378 87.008C94.4645 87.2227 94.1658 87.5307 93.9418 87.932C93.7272 88.324 93.6198 88.7767 93.6198 89.29C93.6198 89.8033 93.7272 90.2607 93.9418 90.662C94.1658 91.054 94.4645 91.362 94.8378 91.586C95.2205 91.8007 95.6498 91.908 96.1258 91.908ZM105.797 85.51C106.739 85.51 107.486 85.7853 108.037 86.336C108.597 86.8773 108.877 87.6753 108.877 88.73V93H107.533V88.884C107.533 88.1653 107.36 87.624 107.015 87.26C106.669 86.896 106.175 86.714 105.531 86.714C104.803 86.714 104.229 86.9287 103.809 87.358C103.389 87.778 103.179 88.3847 103.179 89.178V93H101.835V85.58H103.123V86.7C103.393 86.3173 103.757 86.0233 104.215 85.818C104.681 85.6127 105.209 85.51 105.797 85.51ZM117.252 93.084C116.645 93.084 116.062 93.0047 115.502 92.846C114.942 92.678 114.503 92.468 114.186 92.216L114.746 91.152C115.072 91.3853 115.469 91.572 115.936 91.712C116.402 91.852 116.874 91.922 117.35 91.922C118.526 91.922 119.114 91.586 119.114 90.914C119.114 90.69 119.034 90.5127 118.876 90.382C118.717 90.2513 118.516 90.158 118.274 90.102C118.04 90.0367 117.704 89.9667 117.266 89.892C116.668 89.7987 116.178 89.6913 115.796 89.57C115.422 89.4487 115.1 89.2433 114.83 88.954C114.559 88.6647 114.424 88.2587 114.424 87.736C114.424 87.064 114.704 86.5273 115.264 86.126C115.824 85.7153 116.575 85.51 117.518 85.51C118.012 85.51 118.507 85.5707 119.002 85.692C119.496 85.8133 119.902 85.9767 120.22 86.182L119.646 87.246C119.039 86.854 118.325 86.658 117.504 86.658C116.934 86.658 116.5 86.7513 116.202 86.938C115.903 87.1247 115.754 87.372 115.754 87.68C115.754 87.9227 115.838 88.114 116.006 88.254C116.174 88.394 116.379 88.4967 116.622 88.562C116.874 88.6273 117.224 88.702 117.672 88.786C118.269 88.8887 118.75 89.0007 119.114 89.122C119.487 89.234 119.804 89.43 120.066 89.71C120.327 89.99 120.458 90.382 120.458 90.886C120.458 91.558 120.168 92.0947 119.59 92.496C119.02 92.888 118.241 93.084 117.252 93.084ZM126.309 92.566C126.113 92.734 125.871 92.8647 125.581 92.958C125.292 93.042 124.993 93.084 124.685 93.084C123.939 93.084 123.36 92.8833 122.949 92.482C122.539 92.0807 122.333 91.5067 122.333 90.76V86.686H121.073V85.58H122.333V83.956H123.677V85.58H125.805V86.686H123.677V90.704C123.677 91.1053 123.775 91.4133 123.971 91.628C124.177 91.8427 124.466 91.95 124.839 91.95C125.25 91.95 125.6 91.8333 125.889 91.6L126.309 92.566ZM134.85 85.58V93H133.576V91.88C133.305 92.2627 132.946 92.5613 132.498 92.776C132.059 92.9813 131.579 93.084 131.056 93.084C130.067 93.084 129.287 92.8133 128.718 92.272C128.149 91.7213 127.864 90.914 127.864 89.85V85.58H129.208V89.696C129.208 90.4147 129.381 90.9607 129.726 91.334C130.071 91.698 130.566 91.88 131.21 91.88C131.919 91.88 132.479 91.6653 132.89 91.236C133.301 90.8067 133.506 90.2 133.506 89.416V85.58H134.85ZM144.409 82.612V93H143.121V91.824C142.822 92.2347 142.444 92.5473 141.987 92.762C141.529 92.9767 141.025 93.084 140.475 93.084C139.756 93.084 139.112 92.9253 138.543 92.608C137.973 92.2907 137.525 91.8473 137.199 91.278C136.881 90.6993 136.723 90.0367 136.723 89.29C136.723 88.5433 136.881 87.8853 137.199 87.316C137.525 86.7467 137.973 86.3033 138.543 85.986C139.112 85.6687 139.756 85.51 140.475 85.51C141.007 85.51 141.497 85.6127 141.945 85.818C142.393 86.014 142.766 86.308 143.065 86.7V82.612H144.409ZM140.587 91.908C141.053 91.908 141.478 91.8007 141.861 91.586C142.243 91.362 142.542 91.054 142.757 90.662C142.971 90.2607 143.079 89.8033 143.079 89.29C143.079 88.7767 142.971 88.324 142.757 87.932C142.542 87.5307 142.243 87.2227 141.861 87.008C141.478 86.7933 141.053 86.686 140.587 86.686C140.111 86.686 139.681 86.7933 139.299 87.008C138.925 87.2227 138.627 87.5307 138.403 87.932C138.188 88.324 138.081 88.7767 138.081 89.29C138.081 89.8033 138.188 90.2607 138.403 90.662C138.627 91.054 138.925 91.362 139.299 91.586C139.681 91.8007 140.111 91.908 140.587 91.908ZM146.952 85.58H148.296V93H146.952V85.58ZM147.624 84.152C147.362 84.152 147.143 84.068 146.966 83.9C146.798 83.732 146.714 83.5267 146.714 83.284C146.714 83.0413 146.798 82.836 146.966 82.668C147.143 82.4907 147.362 82.402 147.624 82.402C147.885 82.402 148.1 82.486 148.268 82.654C148.445 82.8127 148.534 83.0133 148.534 83.256C148.534 83.508 148.445 83.7227 148.268 83.9C148.1 84.068 147.885 84.152 147.624 84.152ZM154.04 93.084C153.303 93.084 152.64 92.9207 152.052 92.594C151.464 92.2673 151.002 91.8193 150.666 91.25C150.339 90.6713 150.176 90.018 150.176 89.29C150.176 88.562 150.339 87.9133 150.666 87.344C151.002 86.7653 151.464 86.3173 152.052 86C152.64 85.6733 153.303 85.51 154.04 85.51C154.777 85.51 155.435 85.6733 156.014 86C156.602 86.3173 157.059 86.7653 157.386 87.344C157.722 87.9133 157.89 88.562 157.89 89.29C157.89 90.018 157.722 90.6713 157.386 91.25C157.059 91.8193 156.602 92.2673 156.014 92.594C155.435 92.9207 154.777 93.084 154.04 93.084ZM154.04 91.908C154.516 91.908 154.941 91.8007 155.314 91.586C155.697 91.362 155.995 91.054 156.21 90.662C156.425 90.2607 156.532 89.8033 156.532 89.29C156.532 88.7767 156.425 88.324 156.21 87.932C155.995 87.5307 155.697 87.2227 155.314 87.008C154.941 86.7933 154.516 86.686 154.04 86.686C153.564 86.686 153.135 86.7933 152.752 87.008C152.379 87.2227 152.08 87.5307 151.856 87.932C151.641 88.324 151.534 88.7767 151.534 89.29C151.534 89.8033 151.641 90.2607 151.856 90.662C152.08 91.054 152.379 91.362 152.752 91.586C153.135 91.8007 153.564 91.908 154.04 91.908Z" fill="#C4C4C4"/>
<path d="M58.8757 39.4225C55.6925 37.4204 52.536 37.8936 49.8611 41.1153C48.6306 42.5897 47.467 44.2096 46.3168 45.8113C44.3239 43.0447 42.3444 40.2598 40.2981 37.5842C35.3896 31.2318 27.4851 31.2864 22.6167 37.6752C20.5837 40.3508 18.6043 43.1175 16.6115 45.866C15.5949 44.4462 14.5785 43.0447 13.5218 41.716C11.0208 38.6035 8.0516 38.0028 5.00216 39.8048C1.77885 41.716 0.133747 45.3017 0 50.5439C0.200622 54.6939 1.61834 58.1885 4.65441 60.1908C7.78411 62.2657 10.7934 61.7015 13.3882 58.6253C14.5116 57.2967 15.5549 55.8405 16.5847 54.3844C18.5106 57.0419 20.4233 59.7357 22.3894 62.3568C24.9172 65.7241 27.98 67.4351 31.5243 67.3623C34.9616 67.3987 37.9576 65.7969 40.4051 62.5569C42.4114 59.9177 44.3507 57.1875 46.3034 54.4755C47.3734 55.9861 48.4434 57.4969 49.5936 58.8803C52.3087 62.1201 55.4116 62.9211 58.7686 60.8643C62.1257 58.8256 63.597 55.0396 63.9314 50.3619C63.7039 45.2835 62.1392 41.4793 58.8757 39.4225ZM13.348 50.7259C12.3984 51.9817 11.529 53.3651 10.5126 54.5483C9.16171 56.15 7.59686 56.4229 5.96514 55.3673C4.38692 54.3297 3.65131 52.4915 3.54431 50.3436C3.61118 47.5952 4.48054 45.7204 6.15239 44.7375C7.74398 43.8092 9.29546 44.1186 10.5928 45.7385C11.5424 46.9035 12.4251 48.2321 13.3347 49.4517C13.6824 49.8885 13.7359 50.2344 13.348 50.7259ZM43.0534 50.7259C41.1674 53.2741 39.3486 55.9133 37.4493 58.4252C35.8042 60.5912 33.798 61.6651 31.5109 61.6287C29.1436 61.6833 27.0973 60.5365 25.412 58.2977C23.5664 55.8223 21.7875 53.2741 19.9552 50.7987C19.5673 50.2889 19.5806 49.9796 19.9417 49.4881C21.8276 46.9581 23.6599 44.3188 25.5725 41.8252C28.8226 37.5478 34.0922 37.5114 37.3691 41.7706C39.3084 44.2824 41.1408 46.9581 43.0399 49.5427C43.3743 49.9977 43.4145 50.2525 43.0534 50.7259ZM57.0032 55.3673C55.3581 56.4229 53.7933 56.15 52.4558 54.5483C51.4393 53.3651 50.57 51.9817 49.607 50.7259C49.2325 50.2344 49.286 49.8885 49.6338 49.4517C50.5432 48.2321 51.4259 46.9035 52.3755 45.7385C53.6729 44.1186 55.2244 43.8092 56.816 44.7375C58.4878 45.7204 59.3571 47.5952 59.4241 50.3436C59.317 52.4915 58.5815 54.3297 57.0032 55.3673Z" fill="#96D0E4"/>
<path d="M88.322 60.8133H83.5344L79.8484 51.6244H78.5562V60.8133H74.4465V36.812H80.7382C82.6871 36.812 84.2335 37.3918 85.3562 38.5223C86.6485 39.8267 87.284 41.6529 87.284 44.0008C87.284 45.4212 87.0721 46.6387 86.6696 47.6821C86.246 48.7257 85.8223 49.4504 85.3562 49.8852C84.8902 50.32 84.403 50.6679 83.8734 50.8997L88.322 60.8133ZM82.2634 41.7688C81.8609 41.363 81.1618 41.1601 80.1662 41.1601H78.535V47.3053H80.1662C81.1407 47.3053 81.8609 47.0735 82.2846 46.6387C82.8777 46.0589 83.1743 45.2473 83.1743 44.2037C83.1531 43.1602 82.8566 42.3775 82.2634 41.7688Z" fill="#1A2537"/>
<path d="M101.435 53.5664H92.5166C92.6014 54.7549 92.9403 55.6534 93.5123 56.2333C94.1054 56.842 94.8257 57.1318 95.7154 57.1318C97.05 57.1318 98.2999 56.581 99.4857 55.5085L101.096 58.4073L100.864 58.6972C100.694 58.871 100.545 59.045 100.397 59.1609C100.27 59.2769 100.058 59.4508 99.8042 59.6828C99.5494 59.9146 99.274 60.0885 98.9565 60.2334C98.6595 60.3784 98.3214 60.5524 97.9397 60.6973C97.5584 60.8422 97.1348 60.9872 96.6475 61.0741C96.1603 61.161 95.6518 61.1901 95.1222 61.1901C93.131 61.1901 91.521 60.4074 90.2923 58.813C89.0637 57.2188 88.4493 55.0158 88.4493 52.262C88.4493 49.5372 89.0848 47.3632 90.3771 45.7689C91.6693 44.1746 93.2792 43.334 95.207 43.334C97.0712 43.334 98.5753 44.1166 99.7405 45.6529C100.906 47.1893 101.477 49.2184 101.477 51.7113L101.435 53.5664ZM97.7067 50.4069C97.6855 49.5372 97.4525 48.7256 97.0077 48.0298C96.5627 47.3342 95.9485 46.9574 95.1434 46.9574C94.3596 46.9574 93.7453 47.3052 93.2792 48.0009C92.8133 48.6966 92.5802 49.5082 92.5378 50.4069H97.7067Z" fill="#1A2537"/>
<path d="M114.018 59.132L113.934 59.19C113.892 59.2479 113.828 59.335 113.785 59.3929C113.743 59.4509 113.658 59.5378 113.553 59.6248C113.447 59.7407 113.341 59.8277 113.234 59.9147L112.832 60.2046C112.663 60.3204 112.493 60.4075 112.324 60.4944C112.154 60.5814 111.942 60.6683 111.731 60.7552C111.498 60.8423 111.264 60.9292 111.01 60.9872C110.756 61.0451 110.48 61.1031 110.184 61.1322C109.887 61.1611 109.57 61.19 109.252 61.19C107.431 61.19 105.884 60.3784 104.591 58.7842C103.299 57.1899 102.642 55.0159 102.642 52.2911C102.642 49.5663 103.299 47.3922 104.613 45.769C105.926 44.1457 107.493 43.363 109.295 43.363C110.248 43.363 111.116 43.508 111.879 43.8268C112.663 44.1167 113.192 44.4356 113.509 44.7254L113.934 45.1892L113.044 49.3923C112.112 48.3489 111.031 47.827 109.824 47.827C108.934 47.827 108.214 48.2329 107.621 49.0155C107.028 49.7982 106.731 50.8707 106.731 52.1751C106.731 53.5086 107.028 54.581 107.6 55.3927C108.171 56.2043 108.934 56.5811 109.887 56.5811C110.438 56.5811 110.989 56.4362 111.519 56.1754C112.048 55.8855 112.451 55.6246 112.705 55.3347L113.066 54.9288L114.018 59.132Z" fill="#1A2537"/>
<path d="M123.869 48.7836H123.7C123.318 48.4937 122.83 48.3777 122.216 48.3777C121.411 48.3777 120.797 48.7836 120.331 49.6242C119.907 50.3778 119.695 51.5953 119.695 53.2186V60.8422H115.628V43.6528H119.695L119.675 46.0877H119.717C120.416 44.2616 121.453 43.334 122.81 43.334C123.064 43.334 123.297 43.363 123.508 43.392C123.72 43.4499 123.869 43.4789 123.953 43.5369L124.081 43.6528L123.869 48.7836Z" fill="#1A2537"/>
<path d="M136.283 58.7552C134.969 60.3784 133.316 61.161 131.304 61.161C129.271 61.161 127.597 60.3494 126.304 58.7552C124.991 57.1318 124.356 54.9868 124.356 52.262C124.356 49.5372 125.013 47.3922 126.326 45.7689C127.639 44.1456 129.313 43.334 131.325 43.334C133.338 43.334 134.99 44.1456 136.303 45.7689C137.617 47.3922 138.253 49.5662 138.253 52.262C138.253 54.9578 137.596 57.1608 136.283 58.7552ZM133.38 48.9865C132.871 48.1458 132.173 47.74 131.304 47.74C130.414 47.74 129.736 48.1458 129.228 48.9865C128.72 49.827 128.465 50.8996 128.465 52.175C128.465 53.4794 128.72 54.552 129.228 55.3636C129.736 56.2042 130.435 56.6101 131.304 56.6101C132.173 56.6101 132.851 56.2042 133.38 55.3636C133.889 54.523 134.164 53.4505 134.164 52.175C134.142 50.8706 133.889 49.827 133.38 48.9865Z" fill="#1A2537"/>
<path d="M159.374 43.6531L155.263 60.7845H151.429L148.993 50.2911L146.535 60.7845H142.701L138.592 43.6531H142.701L144.905 54.6102L147.319 43.6531H150.646L153.06 54.6102L155.263 43.6531H159.374Z" fill="#1A2537"/>
<path d="M173.609 60.8133H169.754L169.774 58.5524L169.69 58.5813C168.758 60.3205 167.381 61.1901 165.58 61.1901C163.801 61.1901 162.381 60.3496 161.28 58.6393C160.2 56.958 159.649 54.8131 159.649 52.2332C159.649 49.6533 160.2 47.5372 161.28 45.856C162.36 44.1747 163.801 43.3341 165.58 43.3341C166.597 43.3341 167.445 43.595 168.101 44.0878C168.778 44.6095 169.245 45.1313 169.542 45.7111V36.812H173.609V60.8133ZM168.864 48.9576C168.334 48.146 167.613 47.7112 166.745 47.7112C165.877 47.7112 165.156 48.1169 164.606 48.9576C164.055 49.7692 163.801 50.8417 163.801 52.1752C163.801 53.5085 164.076 54.5811 164.606 55.3928C165.156 56.2044 165.855 56.6392 166.745 56.6392C167.635 56.6392 168.334 56.2333 168.864 55.3928C169.393 54.5811 169.668 53.5085 169.668 52.1752C169.668 50.8708 169.393 49.7983 168.864 48.9576Z" fill="#1A2537"/>
<path d="M180.579 60.8133H176.511V36.812H180.579V60.8133Z" fill="#1A2537"/>
<path d="M196 43.6531L190.408 62.4367C189.9 64.1179 189.349 65.3354 188.734 66.147C188.141 66.9587 187.336 67.3645 186.34 67.3645C185.705 67.3645 185.112 67.3066 184.518 67.1617C183.925 67.0167 183.523 66.8717 183.269 66.7558L182.866 66.5529L183.672 62.4367C184.265 62.7266 184.773 62.9005 185.175 62.9005C185.388 62.9005 185.536 62.9005 185.641 62.8715C185.747 62.8425 185.875 62.7555 186.023 62.5817C186.171 62.4077 186.298 62.1469 186.404 61.799L186.87 60.2917L181.913 43.6821H186.15L188.988 54.6971L191.806 43.6821H196V43.6531Z" fill="#1A2537"/>
</svg>
