<svg width="60" height="60" viewBox="0 0 60 60" fill="none" xmlns="http://www.w3.org/2000/svg">
<path d="M50.0246 39.5682C49.5439 40.0485 48.765 40.0485 48.2843 39.5682L40.2215 31.5054L41.9618 29.7651L50.0246 37.8279C50.5049 38.3086 50.5049 39.0875 50.0246 39.5682Z" fill="#484B63"/>
<path d="M9.61523 14.127H35.4551V50.3848H9.61523V14.127Z" fill="#D8D5ED"/>
<path d="M12.2812 34.2432H17.2031V47.5323H12.2812V34.2432Z" fill="#FF2C5C"/>
<path d="M19.9922 29.3214H24.9141V47.5323H19.9922V29.3214Z" fill="#FFD659"/>
<path d="M27.8672 31.126H32.7891V47.5323H27.8672V31.126Z" fill="#4FC6F5"/>
<path d="M14.7422 34.2432H17.2031V47.5323H14.7422V34.2432Z" fill="#E62753"/>
<path d="M22.4531 29.3214H24.9141V47.5323H22.4531V29.3214Z" fill="#FFBD54"/>
<path d="M30.3281 31.126H32.7891V47.5323H30.3281V31.126Z" fill="#3BB3E3"/>
<path d="M42.4966 13.4358C37.403 8.34213 29.1447 8.34213 24.0511 13.4358C18.9578 18.5291 18.9578 26.7873 24.0511 31.8809C29.1447 36.9746 37.403 36.9746 42.4966 31.8809C47.5902 26.7873 47.5902 18.5291 42.4966 13.4358Z" fill="#50536E"/>
<path d="M40.7566 30.141C36.6307 34.2669 29.9176 34.2669 25.7914 30.141C21.6655 26.0151 21.6655 19.3016 25.7914 15.1757C29.9173 11.0495 36.6307 11.0498 40.7566 15.1757C44.8829 19.3016 44.8829 26.0151 40.7566 30.141Z" fill="#B5FCFF"/>
<path d="M40.7566 15.1757C38.3809 12.7997 35.1474 11.7922 32.0437 12.1527C34.33 12.418 36.5458 13.4255 38.2957 15.1757C42.4216 19.3016 42.4216 26.015 38.2957 30.141C36.5458 31.8912 34.33 32.8983 32.0437 33.1639C35.1474 33.5241 38.3809 32.5167 40.7566 30.141C44.8826 26.015 44.8826 19.3016 40.7566 15.1757Z" fill="#71F6FC"/>
<path d="M50.4606 37.2321L44.1487 30.9192C45.6737 28.9098 46.6257 26.5011 46.8698 23.9757C47.1688 20.8765 46.3969 17.7452 44.696 15.1584C44.5092 14.8745 44.1276 14.7956 43.844 14.9824C43.5601 15.1693 43.4813 15.5509 43.6681 15.8348C46.8868 20.7297 46.2117 27.2945 42.0627 31.4438C37.2168 36.29 29.3325 36.29 24.4869 31.4438C19.641 26.5975 19.641 18.712 24.4869 13.8657C29.3325 9.01948 37.2171 9.01948 42.0611 13.8641L42.0947 13.8981C42.3344 14.1391 42.7237 14.1407 42.9647 13.901C43.206 13.6616 43.2073 13.272 42.9679 13.031L42.9327 12.9954C37.6071 7.66949 28.9422 7.66949 23.6166 12.9954C23.4493 13.1627 23.2875 13.3332 23.1308 13.5068H9.61523C9.27557 13.5068 9 13.7824 9 14.1221V16.8432C9 17.1832 9.27557 17.4588 9.61523 17.4588C9.95521 17.4588 10.2305 17.1832 10.2305 16.8432V14.7376H22.1439C21.6738 15.398 21.2694 16.0908 20.9307 16.8076H13.2656C12.926 16.8076 12.6504 17.0829 12.6504 17.4229C12.6504 17.7628 12.926 18.0381 13.2656 18.0381H20.4215C20.245 18.5322 20.0979 19.0343 19.98 19.5422H13.2656C12.926 19.5422 12.6504 19.8175 12.6504 20.1574C12.6504 20.4971 12.926 20.7727 13.2656 20.7727H19.7525C19.6836 21.2716 19.6423 21.7737 19.6285 22.2765H13.2656C12.926 22.2765 12.6504 22.552 12.6504 22.892C12.6504 23.2317 12.926 23.5073 13.2656 23.5073H19.6499C19.7608 25.2946 20.2194 27.0641 21.0272 28.7037H19.9925C19.6525 28.7037 19.3773 28.9793 19.3773 29.3193V47.5328C19.3773 47.8727 19.6525 48.1483 19.9925 48.1483H24.9144C25.2543 48.1483 25.5296 47.8727 25.5296 47.5328V33.9076C26.0836 34.2892 26.6594 34.6257 27.2522 34.9163V47.5328C27.2522 47.8727 27.5278 48.1483 27.8675 48.1483H32.7893C33.1293 48.1483 33.4046 47.8727 33.4046 47.5328V36.3073C33.8843 36.3025 34.3633 36.2734 34.8404 36.2189V45.7226C34.8404 46.0626 35.1157 46.3382 35.4557 46.3382C35.7953 46.3382 36.0709 46.0626 36.0709 45.7226V36.0208C38.0156 35.6171 39.8885 34.7872 41.5388 33.5308L47.8494 39.8423C48.1984 40.191 48.662 40.3832 49.1549 40.3832C49.648 40.3832 50.1117 40.191 50.4603 39.8423C51.1797 39.1233 51.18 37.9524 50.4606 37.2321ZM24.2991 46.9175H20.6077V29.9345H21.7161C22.2483 30.7795 22.8815 31.5787 23.6166 32.3141C23.8383 32.5358 24.0665 32.7476 24.2991 32.9508V46.9175ZM28.483 46.9175V35.4457C29.6763 35.8908 30.9196 36.1631 32.1744 36.2637V46.9175H28.483ZM49.5906 38.972C49.4743 39.0884 49.3196 39.1525 49.1552 39.1525C48.9908 39.1525 48.836 39.0884 48.72 38.972L42.4873 32.739C42.6382 32.6009 42.7869 32.4599 42.9327 32.3141C43.0781 32.1686 43.2198 32.0202 43.3579 31.8687L49.59 38.1021C49.83 38.3421 49.8303 38.7327 49.5906 38.972Z" fill="black"/>
<path d="M35.4557 47.7595C35.1161 47.7595 34.8405 48.0347 34.8405 48.3747V49.7695H10.2305V19.509C10.2305 19.169 9.95522 18.8937 9.61523 18.8937C9.27557 18.8937 9 19.169 9 19.509V50.3848C9 50.7248 9.27557 51 9.61523 51H35.4557C35.7957 51 36.071 50.7248 36.071 50.3848V48.3747C36.071 48.0347 35.7957 47.7595 35.4557 47.7595Z" fill="black"/>
<path d="M11.666 34.2406V47.5319C11.666 47.8716 11.9416 48.1471 12.2812 48.1471H17.2034C17.5431 48.1471 17.8187 47.8716 17.8187 47.5319V34.2406C17.8187 33.9009 17.5431 33.6254 17.2034 33.6254H12.2812C11.9416 33.6254 11.666 33.9009 11.666 34.2406ZM12.8965 34.8562H16.5882V46.9164H12.8965V34.8562Z" fill="black"/>
<path d="M17.8661 26.2417C18.2061 26.2417 18.4813 25.9661 18.4813 25.6261C18.4813 25.2864 18.2061 25.0109 17.8661 25.0109H13.2656C12.926 25.0109 12.6504 25.2864 12.6504 25.6261C12.6504 25.9661 12.926 26.2417 13.2656 26.2417H17.8661Z" fill="black"/>
<path d="M33.2748 11.46C30.2807 11.46 27.4686 12.6231 25.3569 14.7351C23.2452 16.8471 22.0821 19.6596 22.0821 22.654C22.0821 25.6485 23.2452 28.4609 25.3569 30.5729C27.4689 32.6849 30.2807 33.8481 33.2748 33.8481C36.269 33.8481 39.0808 32.6849 41.1928 30.5729C43.3044 28.4609 44.4673 25.6485 44.4673 22.654C44.4673 19.6596 43.3044 16.8471 41.1928 14.7351C39.0808 12.6231 36.269 11.46 33.2748 11.46ZM40.3225 29.7026C38.4431 31.5823 35.9402 32.6173 33.2748 32.6173C30.6091 32.6173 28.1066 31.5823 26.2272 29.7026C24.3475 27.8229 23.3125 25.3197 23.3125 22.654C23.3125 19.988 24.3475 17.4848 26.2272 15.6051C28.17 13.662 30.7226 12.6901 33.2748 12.6901C35.8271 12.6901 38.3797 13.662 40.3225 15.6051C42.2018 17.4848 43.2368 19.988 43.2368 22.654C43.2368 25.3197 42.2018 27.8229 40.3225 29.7026Z" fill="black"/>
<circle cx="30" cy="30" r="30" fill="#B95BE6" fill-opacity="0.2"/>
</svg>
