<svg width="46" height="11" viewBox="0 0 46 11" fill="none" xmlns="http://www.w3.org/2000/svg">
<path d="M6.866 6.528V10H4.598V6.5L0.804 0.199999H3.212L5.83 4.554L8.448 0.199999H10.674L6.866 6.528ZM15.9451 10.168C14.9278 10.168 14.0084 9.94867 13.1871 9.51C12.3751 9.07133 11.7358 8.46933 11.2691 7.704C10.8118 6.92933 10.5831 6.06133 10.5831 5.1C10.5831 4.13867 10.8118 3.27533 11.2691 2.51C11.7358 1.73533 12.3751 1.12867 13.1871 0.69C14.0084 0.251333 14.9278 0.0319998 15.9451 0.0319998C16.9624 0.0319998 17.8771 0.251333 18.6891 0.69C19.5011 1.12867 20.1404 1.73533 20.6071 2.51C21.0738 3.27533 21.3071 4.13867 21.3071 5.1C21.3071 6.06133 21.0738 6.92933 20.6071 7.704C20.1404 8.46933 19.5011 9.07133 18.6891 9.51C17.8771 9.94867 16.9624 10.168 15.9451 10.168ZM15.9451 8.236C16.5238 8.236 17.0464 8.10533 17.5131 7.844C17.9798 7.57333 18.3438 7.2 18.6051 6.724C18.8758 6.248 19.0111 5.70667 19.0111 5.1C19.0111 4.49333 18.8758 3.952 18.6051 3.476C18.3438 3 17.9798 2.63133 17.5131 2.37C17.0464 2.09933 16.5238 1.964 15.9451 1.964C15.3664 1.964 14.8438 2.09933 14.3771 2.37C13.9104 2.63133 13.5418 3 13.2711 3.476C13.0098 3.952 12.8791 4.49333 12.8791 5.1C12.8791 5.70667 13.0098 6.248 13.2711 6.724C13.5418 7.2 13.9104 7.57333 14.3771 7.844C14.8438 8.10533 15.3664 8.236 15.9451 8.236ZM23.0116 0.199999H27.4636C28.5276 0.199999 29.4656 0.405333 30.2776 0.816C31.0989 1.21733 31.7336 1.78667 32.1816 2.524C32.6389 3.26133 32.8676 4.12 32.8676 5.1C32.8676 6.08 32.6389 6.93867 32.1816 7.676C31.7336 8.41333 31.0989 8.98733 30.2776 9.398C29.4656 9.79933 28.5276 10 27.4636 10H23.0116V0.199999ZM27.3516 8.138C28.3316 8.138 29.1109 7.86733 29.6896 7.326C30.2776 6.77533 30.5716 6.03333 30.5716 5.1C30.5716 4.16667 30.2776 3.42933 29.6896 2.888C29.1109 2.33733 28.3316 2.062 27.3516 2.062H25.2796V8.138H27.3516ZM37.798 10.168C37.0233 10.168 36.272 10.0653 35.544 9.86C34.8253 9.64533 34.2467 9.37 33.808 9.034L34.578 7.326C34.998 7.634 35.4973 7.88133 36.076 8.068C36.6547 8.25467 37.2333 8.348 37.812 8.348C38.456 8.348 38.932 8.25467 39.24 8.068C39.548 7.872 39.702 7.61533 39.702 7.298C39.702 7.06467 39.6087 6.87333 39.422 6.724C39.2447 6.56533 39.0113 6.43933 38.722 6.346C38.442 6.25267 38.0593 6.15 37.574 6.038C36.8273 5.86067 36.216 5.68333 35.74 5.506C35.264 5.32867 34.8533 5.044 34.508 4.652C34.172 4.26 34.004 3.73733 34.004 3.084C34.004 2.51467 34.158 2.00133 34.466 1.544C34.774 1.07733 35.236 0.708666 35.852 0.438C36.4773 0.167333 37.238 0.0319998 38.134 0.0319998C38.7593 0.0319998 39.3707 0.106666 39.968 0.255999C40.5653 0.405333 41.088 0.62 41.536 0.899999L40.836 2.622C39.9307 2.10867 39.0253 1.852 38.12 1.852C37.4853 1.852 37.014 1.95467 36.706 2.16C36.4073 2.36533 36.258 2.636 36.258 2.972C36.258 3.308 36.4307 3.56 36.776 3.728C37.1307 3.88667 37.6673 4.04533 38.386 4.204C39.1327 4.38133 39.744 4.55867 40.22 4.736C40.696 4.91333 41.102 5.19333 41.438 5.576C41.7833 5.95867 41.956 6.47667 41.956 7.13C41.956 7.69 41.7973 8.20333 41.48 8.67C41.172 9.12733 40.7053 9.49133 40.08 9.762C39.4547 10.0327 38.694 10.168 37.798 10.168ZM43.5058 0.199999H45.7738V10H43.5058V0.199999Z" fill="white"/>
</svg>
